%TF.GenerationSoftware,KiCad,Pcbnew,9.0.7*%
%TF.CreationDate,2026-02-15T15:39:25-05:00*%
%TF.ProjectId,BezelBud,42657a65-6c42-4756-942e-6b696361645f,rev?*%
%TF.SameCoordinates,Original*%
%TF.FileFunction,Drillmap*%
%TF.FilePolarity,Positive*%
%FSLAX45Y45*%
G04 Gerber Fmt 4.5, Leading zero omitted, Abs format (unit mm)*
G04 Created by KiCad (PCBNEW 9.0.7) date 2026-02-15 15:39:25*
%MOMM*%
%LPD*%
G01*
G04 APERTURE LIST*
%ADD10C,0.300000*%
%ADD11C,0.200000*%
%ADD12C,0.100000*%
%ADD13C,0.320000*%
G04 APERTURE END LIST*
D10*
X10718800Y-6169400D02*
G75*
G02*
X11018800Y-5869400I300000J0D01*
G01*
X11018800Y-9828200D02*
G75*
G02*
X10718800Y-9528200I0J300000D01*
G01*
X17429200Y-5869400D02*
G75*
G02*
X17729200Y-6169400I0J-300000D01*
G01*
X17729200Y-9528200D02*
G75*
G02*
X17429200Y-9828200I-300000J0D01*
G01*
X11018800Y-5869400D02*
X17429200Y-5869400D01*
X10718800Y-9528200D02*
X10718800Y-6169400D01*
X17429200Y-9828200D02*
X11018800Y-9828200D01*
X17729200Y-6169400D02*
X17729200Y-9528200D01*
D11*
D12*
X10895000Y-7495000D02*
X10925000Y-7525000D01*
X10925000Y-7495000D02*
X10895000Y-7525000D01*
X11281685Y-7499860D02*
X11311685Y-7529860D01*
X11311685Y-7499860D02*
X11281685Y-7529860D01*
X11681685Y-7499860D02*
X11711685Y-7529860D01*
X11711685Y-7499860D02*
X11681685Y-7529860D01*
X11860000Y-7828163D02*
X11890000Y-7858163D01*
X11890000Y-7828163D02*
X11860000Y-7858163D01*
X11910000Y-7376400D02*
X11940000Y-7406400D01*
X11940000Y-7376400D02*
X11910000Y-7406400D01*
X11986101Y-6923892D02*
X12016101Y-6953892D01*
X12016101Y-6923892D02*
X11986101Y-6953892D01*
X12081685Y-7499860D02*
X12111685Y-7529860D01*
X12111685Y-7499860D02*
X12081685Y-7529860D01*
X12082002Y-7134000D02*
X12112002Y-7164000D01*
X12112002Y-7134000D02*
X12082002Y-7164000D01*
X12160000Y-6657595D02*
X12190000Y-6687595D01*
X12190000Y-6657595D02*
X12160000Y-6687595D01*
X12160000Y-7885000D02*
X12190000Y-7915000D01*
X12190000Y-7885000D02*
X12160000Y-7915000D01*
X12307600Y-9265000D02*
X12337600Y-9295000D01*
X12337600Y-9265000D02*
X12307600Y-9295000D01*
X12310000Y-7710000D02*
X12340000Y-7740000D01*
X12340000Y-7710000D02*
X12310000Y-7740000D01*
X12503935Y-7174000D02*
X12533935Y-7204000D01*
X12533935Y-7174000D02*
X12503935Y-7204000D01*
X12503935Y-7424000D02*
X12533935Y-7454000D01*
X12533935Y-7424000D02*
X12503935Y-7454000D01*
X12581448Y-7125538D02*
X12611448Y-7155538D01*
X12611448Y-7125538D02*
X12581448Y-7155538D01*
X12661000Y-7134000D02*
X12691000Y-7164000D01*
X12691000Y-7134000D02*
X12661000Y-7164000D01*
X12665883Y-7213970D02*
X12695883Y-7243970D01*
X12695883Y-7213970D02*
X12665883Y-7243970D01*
X12685000Y-7810000D02*
X12715000Y-7840000D01*
X12715000Y-7810000D02*
X12685000Y-7840000D01*
X12742722Y-7236238D02*
X12772722Y-7266238D01*
X12772722Y-7236238D02*
X12742722Y-7266238D01*
X12746765Y-7317047D02*
X12776765Y-7347047D01*
X12776765Y-7317047D02*
X12746765Y-7347047D01*
X12822588Y-7342561D02*
X12852588Y-7372561D01*
X12852588Y-7342561D02*
X12822588Y-7372561D01*
X12825941Y-7430062D02*
X12855941Y-7460062D01*
X12855941Y-7430062D02*
X12825941Y-7460062D01*
X12845000Y-6690600D02*
X12875000Y-6720600D01*
X12875000Y-6690600D02*
X12845000Y-6720600D01*
X13035000Y-6425000D02*
X13065000Y-6455000D01*
X13065000Y-6425000D02*
X13035000Y-6455000D01*
X13045000Y-6195598D02*
X13075000Y-6225598D01*
X13075000Y-6195598D02*
X13045000Y-6225598D01*
X13085000Y-7810000D02*
X13115000Y-7840000D01*
X13115000Y-7810000D02*
X13085000Y-7840000D01*
X13135000Y-7110000D02*
X13165000Y-7140000D01*
X13165000Y-7110000D02*
X13135000Y-7140000D01*
X13165000Y-7495000D02*
X13195000Y-7525000D01*
X13195000Y-7495000D02*
X13165000Y-7525000D01*
X13195000Y-6565000D02*
X13225000Y-6595000D01*
X13225000Y-6565000D02*
X13195000Y-6595000D01*
X13195000Y-6835000D02*
X13225000Y-6865000D01*
X13225000Y-6835000D02*
X13195000Y-6865000D01*
X13360000Y-8010000D02*
X13390000Y-8040000D01*
X13390000Y-8010000D02*
X13360000Y-8040000D01*
X13414202Y-6956455D02*
X13444202Y-6986455D01*
X13444202Y-6956455D02*
X13414202Y-6986455D01*
X13445000Y-7285000D02*
X13475000Y-7315000D01*
X13475000Y-7285000D02*
X13445000Y-7315000D01*
X13485000Y-6195598D02*
X13515000Y-6225598D01*
X13515000Y-6195598D02*
X13485000Y-6225598D01*
X13485000Y-6505000D02*
X13515000Y-6535000D01*
X13515000Y-6505000D02*
X13485000Y-6535000D01*
X13535000Y-7110000D02*
X13565000Y-7140000D01*
X13565000Y-7110000D02*
X13535000Y-7140000D01*
X13735000Y-8010000D02*
X13765000Y-8040000D01*
X13765000Y-8010000D02*
X13735000Y-8040000D01*
X13785000Y-6565000D02*
X13815000Y-6595000D01*
X13815000Y-6565000D02*
X13785000Y-6595000D01*
X13785000Y-6835000D02*
X13815000Y-6865000D01*
X13815000Y-6835000D02*
X13785000Y-6865000D01*
X13795000Y-7285000D02*
X13825000Y-7315000D01*
X13825000Y-7285000D02*
X13795000Y-7315000D01*
X13825000Y-8135000D02*
X13855000Y-8165000D01*
X13855000Y-8135000D02*
X13825000Y-8165000D01*
X13935000Y-7110000D02*
X13965000Y-7140000D01*
X13965000Y-7110000D02*
X13935000Y-7140000D01*
X13945000Y-6195598D02*
X13975000Y-6225598D01*
X13975000Y-6195598D02*
X13945000Y-6225598D01*
X13945000Y-6425000D02*
X13975000Y-6455000D01*
X13975000Y-6425000D02*
X13945000Y-6455000D01*
X13981250Y-8256250D02*
X14011250Y-8286250D01*
X14011250Y-8256250D02*
X13981250Y-8286250D01*
X13985000Y-8465000D02*
X14015000Y-8495000D01*
X14015000Y-8465000D02*
X13985000Y-8495000D01*
X14010000Y-7760000D02*
X14040000Y-7790000D01*
X14040000Y-7760000D02*
X14010000Y-7790000D01*
X14260000Y-8810000D02*
X14290000Y-8840000D01*
X14290000Y-8810000D02*
X14260000Y-8840000D01*
X14295000Y-7575000D02*
X14325000Y-7605000D01*
X14325000Y-7575000D02*
X14295000Y-7605000D01*
X14335000Y-7110000D02*
X14365000Y-7140000D01*
X14365000Y-7110000D02*
X14335000Y-7140000D01*
X14455000Y-7865000D02*
X14485000Y-7895000D01*
X14485000Y-7865000D02*
X14455000Y-7895000D01*
X14455000Y-8415000D02*
X14485000Y-8445000D01*
X14485000Y-8415000D02*
X14455000Y-8445000D01*
X14613700Y-7131300D02*
X14643700Y-7161300D01*
X14643700Y-7131300D02*
X14613700Y-7161300D01*
X14632500Y-8060000D02*
X14662500Y-8090000D01*
X14662500Y-8060000D02*
X14632500Y-8090000D01*
X14745000Y-6675050D02*
X14775000Y-6705050D01*
X14775000Y-6675050D02*
X14745000Y-6705050D01*
X14760000Y-6852850D02*
X14790000Y-6882850D01*
X14790000Y-6852850D02*
X14760000Y-6882850D01*
X14768700Y-7126300D02*
X14798700Y-7156300D01*
X14798700Y-7126300D02*
X14768700Y-7156300D01*
X14787500Y-7860000D02*
X14817500Y-7890000D01*
X14817500Y-7860000D02*
X14787500Y-7890000D01*
X14915115Y-7712923D02*
X14945115Y-7742923D01*
X14945115Y-7712923D02*
X14915115Y-7742923D01*
X14985000Y-8935000D02*
X15015000Y-8965000D01*
X15015000Y-8935000D02*
X14985000Y-8965000D01*
X15007113Y-7208608D02*
X15037113Y-7238608D01*
X15037113Y-7208608D02*
X15007113Y-7238608D01*
X15027426Y-8327426D02*
X15057426Y-8357426D01*
X15057426Y-8327426D02*
X15027426Y-8357426D01*
X15085000Y-8885000D02*
X15115000Y-8915000D01*
X15115000Y-8885000D02*
X15085000Y-8915000D01*
X15175000Y-7205000D02*
X15205000Y-7235000D01*
X15205000Y-7205000D02*
X15175000Y-7235000D01*
X15185000Y-9495000D02*
X15215000Y-9525000D01*
X15215000Y-9495000D02*
X15185000Y-9525000D01*
X15285000Y-7575000D02*
X15315000Y-7605000D01*
X15315000Y-7575000D02*
X15285000Y-7605000D01*
X15335000Y-9495000D02*
X15365000Y-9525000D01*
X15365000Y-9495000D02*
X15335000Y-9525000D01*
X15410000Y-7635000D02*
X15440000Y-7665000D01*
X15440000Y-7635000D02*
X15410000Y-7665000D01*
X15425000Y-7762352D02*
X15455000Y-7792352D01*
X15455000Y-7762352D02*
X15425000Y-7792352D01*
X15435000Y-6852850D02*
X15465000Y-6882850D01*
X15465000Y-6852850D02*
X15435000Y-6882850D01*
X15455000Y-6675050D02*
X15485000Y-6705050D01*
X15485000Y-6675050D02*
X15455000Y-6705050D01*
X15510000Y-8535000D02*
X15540000Y-8565000D01*
X15540000Y-8535000D02*
X15510000Y-8565000D01*
X15541400Y-9360000D02*
X15571400Y-9390000D01*
X15571400Y-9360000D02*
X15541400Y-9390000D01*
X15660000Y-7110000D02*
X15690000Y-7140000D01*
X15690000Y-7110000D02*
X15660000Y-7140000D01*
X15765000Y-8385000D02*
X15795000Y-8415000D01*
X15795000Y-8385000D02*
X15765000Y-8415000D01*
X15765000Y-8505000D02*
X15795000Y-8535000D01*
X15795000Y-8505000D02*
X15765000Y-8535000D01*
X15800000Y-9260000D02*
X15830000Y-9290000D01*
X15830000Y-9260000D02*
X15800000Y-9290000D01*
X15885000Y-8748000D02*
X15915000Y-8778000D01*
X15915000Y-8748000D02*
X15885000Y-8778000D01*
X15905000Y-7495000D02*
X15935000Y-7525000D01*
X15935000Y-7495000D02*
X15905000Y-7525000D01*
X15905000Y-7725000D02*
X15935000Y-7755000D01*
X15935000Y-7725000D02*
X15905000Y-7755000D01*
X15935000Y-7232550D02*
X15965000Y-7262550D01*
X15965000Y-7232550D02*
X15935000Y-7262550D01*
X15965000Y-8385000D02*
X15995000Y-8415000D01*
X15995000Y-8385000D02*
X15965000Y-8415000D01*
X15965000Y-8505000D02*
X15995000Y-8535000D01*
X15995000Y-8505000D02*
X15965000Y-8535000D01*
X16045000Y-7902150D02*
X16075000Y-7932150D01*
X16075000Y-7902150D02*
X16045000Y-7932150D01*
X16045000Y-8060000D02*
X16075000Y-8090000D01*
X16075000Y-8060000D02*
X16045000Y-8090000D01*
X16060000Y-7110000D02*
X16090000Y-7140000D01*
X16090000Y-7110000D02*
X16060000Y-7140000D01*
X16085000Y-8235000D02*
X16115000Y-8265000D01*
X16115000Y-8235000D02*
X16085000Y-8265000D01*
X16135000Y-7260000D02*
X16165000Y-7290000D01*
X16165000Y-7260000D02*
X16135000Y-7290000D01*
X16135000Y-7910000D02*
X16165000Y-7940000D01*
X16165000Y-7910000D02*
X16135000Y-7940000D01*
X16215600Y-8960000D02*
X16245600Y-8990000D01*
X16245600Y-8960000D02*
X16215600Y-8990000D01*
X16285000Y-9260000D02*
X16315000Y-9290000D01*
X16315000Y-9260000D02*
X16285000Y-9290000D01*
X16325000Y-7335000D02*
X16355000Y-7365000D01*
X16355000Y-7335000D02*
X16325000Y-7365000D01*
X16325000Y-7835000D02*
X16355000Y-7865000D01*
X16355000Y-7835000D02*
X16325000Y-7865000D01*
X16460000Y-7110000D02*
X16490000Y-7140000D01*
X16490000Y-7110000D02*
X16460000Y-7140000D01*
X16495000Y-7335000D02*
X16525000Y-7365000D01*
X16525000Y-7335000D02*
X16495000Y-7365000D01*
X16495000Y-7835000D02*
X16525000Y-7865000D01*
X16525000Y-7835000D02*
X16495000Y-7865000D01*
X16575000Y-8755000D02*
X16605000Y-8785000D01*
X16605000Y-8755000D02*
X16575000Y-8785000D01*
X16610000Y-8160000D02*
X16640000Y-8190000D01*
X16640000Y-8160000D02*
X16610000Y-8190000D01*
X16615000Y-7485000D02*
X16645000Y-7515000D01*
X16645000Y-7485000D02*
X16615000Y-7515000D01*
X16615000Y-7705000D02*
X16645000Y-7735000D01*
X16645000Y-7705000D02*
X16615000Y-7735000D01*
X16645000Y-8005000D02*
X16675000Y-8035000D01*
X16675000Y-8005000D02*
X16645000Y-8035000D01*
X16860000Y-7110000D02*
X16890000Y-7140000D01*
X16890000Y-7110000D02*
X16860000Y-7140000D01*
X17005000Y-8045000D02*
X17035000Y-8075000D01*
X17035000Y-8045000D02*
X17005000Y-8075000D01*
X17250400Y-7825000D02*
X17280400Y-7855000D01*
X17280400Y-7825000D02*
X17250400Y-7855000D01*
X17260000Y-7110000D02*
X17290000Y-7140000D01*
X17290000Y-7110000D02*
X17260000Y-7140000D01*
X17455000Y-7261550D02*
X17485000Y-7291550D01*
X17485000Y-7261550D02*
X17455000Y-7291550D01*
X17460000Y-7908700D02*
X17490000Y-7938700D01*
X17490000Y-7908700D02*
X17460000Y-7938700D01*
X17575000Y-8215000D02*
X17605000Y-8245000D01*
X17605000Y-8215000D02*
X17575000Y-8245000D01*
X17575000Y-8445000D02*
X17605000Y-8475000D01*
X17605000Y-8445000D02*
X17575000Y-8475000D01*
X17615000Y-7115000D02*
X17645000Y-7145000D01*
X17645000Y-7115000D02*
X17615000Y-7145000D01*
X11035000Y-6410000D02*
G75*
G02*
X10985000Y-6410000I-25000J0D01*
G01*
X10985000Y-6410000D02*
G75*
G02*
X11035000Y-6410000I25000J0D01*
G01*
X11035294Y-9319706D02*
G75*
G02*
X10985294Y-9319706I-25000J0D01*
G01*
X10985294Y-9319706D02*
G75*
G02*
X11035294Y-9319706I25000J0D01*
G01*
X11105294Y-6240294D02*
G75*
G02*
X11055294Y-6240294I-25000J0D01*
G01*
X11055294Y-6240294D02*
G75*
G02*
X11105294Y-6240294I25000J0D01*
G01*
X11105294Y-6579706D02*
G75*
G02*
X11055294Y-6579706I-25000J0D01*
G01*
X11055294Y-6579706D02*
G75*
G02*
X11105294Y-6579706I25000J0D01*
G01*
X11105589Y-9150000D02*
G75*
G02*
X11055589Y-9150000I-25000J0D01*
G01*
X11055589Y-9150000D02*
G75*
G02*
X11105589Y-9150000I25000J0D01*
G01*
X11105589Y-9489411D02*
G75*
G02*
X11055589Y-9489411I-25000J0D01*
G01*
X11055589Y-9489411D02*
G75*
G02*
X11105589Y-9489411I25000J0D01*
G01*
X11275000Y-6170000D02*
G75*
G02*
X11225000Y-6170000I-25000J0D01*
G01*
X11225000Y-6170000D02*
G75*
G02*
X11275000Y-6170000I25000J0D01*
G01*
X11275000Y-6650000D02*
G75*
G02*
X11225000Y-6650000I-25000J0D01*
G01*
X11225000Y-6650000D02*
G75*
G02*
X11275000Y-6650000I25000J0D01*
G01*
X11275294Y-9079706D02*
G75*
G02*
X11225294Y-9079706I-25000J0D01*
G01*
X11225294Y-9079706D02*
G75*
G02*
X11275294Y-9079706I25000J0D01*
G01*
X11275294Y-9559706D02*
G75*
G02*
X11225294Y-9559706I-25000J0D01*
G01*
X11225294Y-9559706D02*
G75*
G02*
X11275294Y-9559706I25000J0D01*
G01*
X11444706Y-6240294D02*
G75*
G02*
X11394706Y-6240294I-25000J0D01*
G01*
X11394706Y-6240294D02*
G75*
G02*
X11444706Y-6240294I25000J0D01*
G01*
X11444706Y-6579706D02*
G75*
G02*
X11394706Y-6579706I-25000J0D01*
G01*
X11394706Y-6579706D02*
G75*
G02*
X11444706Y-6579706I25000J0D01*
G01*
X11445000Y-9150000D02*
G75*
G02*
X11395000Y-9150000I-25000J0D01*
G01*
X11395000Y-9150000D02*
G75*
G02*
X11445000Y-9150000I25000J0D01*
G01*
X11445000Y-9489411D02*
G75*
G02*
X11395000Y-9489411I-25000J0D01*
G01*
X11395000Y-9489411D02*
G75*
G02*
X11445000Y-9489411I25000J0D01*
G01*
X11515000Y-6410000D02*
G75*
G02*
X11465000Y-6410000I-25000J0D01*
G01*
X11465000Y-6410000D02*
G75*
G02*
X11515000Y-6410000I25000J0D01*
G01*
X11515294Y-9319706D02*
G75*
G02*
X11465294Y-9319706I-25000J0D01*
G01*
X11465294Y-9319706D02*
G75*
G02*
X11515294Y-9319706I25000J0D01*
G01*
X16985000Y-6400000D02*
G75*
G02*
X16935000Y-6400000I-25000J0D01*
G01*
X16935000Y-6400000D02*
G75*
G02*
X16985000Y-6400000I25000J0D01*
G01*
X16985000Y-9320000D02*
G75*
G02*
X16935000Y-9320000I-25000J0D01*
G01*
X16935000Y-9320000D02*
G75*
G02*
X16985000Y-9320000I25000J0D01*
G01*
X17055294Y-6230294D02*
G75*
G02*
X17005294Y-6230294I-25000J0D01*
G01*
X17005294Y-6230294D02*
G75*
G02*
X17055294Y-6230294I25000J0D01*
G01*
X17055294Y-6569706D02*
G75*
G02*
X17005294Y-6569706I-25000J0D01*
G01*
X17005294Y-6569706D02*
G75*
G02*
X17055294Y-6569706I25000J0D01*
G01*
X17055294Y-9150294D02*
G75*
G02*
X17005294Y-9150294I-25000J0D01*
G01*
X17005294Y-9150294D02*
G75*
G02*
X17055294Y-9150294I25000J0D01*
G01*
X17055294Y-9489706D02*
G75*
G02*
X17005294Y-9489706I-25000J0D01*
G01*
X17005294Y-9489706D02*
G75*
G02*
X17055294Y-9489706I25000J0D01*
G01*
X17225000Y-6160000D02*
G75*
G02*
X17175000Y-6160000I-25000J0D01*
G01*
X17175000Y-6160000D02*
G75*
G02*
X17225000Y-6160000I25000J0D01*
G01*
X17225000Y-6640000D02*
G75*
G02*
X17175000Y-6640000I-25000J0D01*
G01*
X17175000Y-6640000D02*
G75*
G02*
X17225000Y-6640000I25000J0D01*
G01*
X17225000Y-9080000D02*
G75*
G02*
X17175000Y-9080000I-25000J0D01*
G01*
X17175000Y-9080000D02*
G75*
G02*
X17225000Y-9080000I25000J0D01*
G01*
X17225000Y-9560000D02*
G75*
G02*
X17175000Y-9560000I-25000J0D01*
G01*
X17175000Y-9560000D02*
G75*
G02*
X17225000Y-9560000I25000J0D01*
G01*
X17394706Y-6230294D02*
G75*
G02*
X17344706Y-6230294I-25000J0D01*
G01*
X17344706Y-6230294D02*
G75*
G02*
X17394706Y-6230294I25000J0D01*
G01*
X17394706Y-6569706D02*
G75*
G02*
X17344706Y-6569706I-25000J0D01*
G01*
X17344706Y-6569706D02*
G75*
G02*
X17394706Y-6569706I25000J0D01*
G01*
X17394706Y-9150294D02*
G75*
G02*
X17344706Y-9150294I-25000J0D01*
G01*
X17344706Y-9150294D02*
G75*
G02*
X17394706Y-9150294I25000J0D01*
G01*
X17394706Y-9489706D02*
G75*
G02*
X17344706Y-9489706I-25000J0D01*
G01*
X17344706Y-9489706D02*
G75*
G02*
X17394706Y-9489706I25000J0D01*
G01*
X17465000Y-6400000D02*
G75*
G02*
X17415000Y-6400000I-25000J0D01*
G01*
X17415000Y-6400000D02*
G75*
G02*
X17465000Y-6400000I25000J0D01*
G01*
X17465000Y-9320000D02*
G75*
G02*
X17415000Y-9320000I-25000J0D01*
G01*
X17415000Y-9320000D02*
G75*
G02*
X17465000Y-9320000I25000J0D01*
G01*
X13842600Y-9075000D02*
X13842600Y-9135000D01*
X13812600Y-9105000D02*
X13872600Y-9105000D01*
X13812600Y-9050000D02*
X13812600Y-9160000D01*
X13872600Y-9160000D02*
G75*
G02*
X13812600Y-9160000I-30000J0D01*
G01*
X13872600Y-9160000D02*
X13872600Y-9050000D01*
X13872600Y-9050000D02*
G75*
G03*
X13812600Y-9050000I-30000J0D01*
G01*
X13842600Y-9495000D02*
X13842600Y-9555000D01*
X13812600Y-9525000D02*
X13872600Y-9525000D01*
X13812600Y-9485000D02*
X13812600Y-9565000D01*
X13872600Y-9565000D02*
G75*
G02*
X13812600Y-9565000I-30000J0D01*
G01*
X13872600Y-9565000D02*
X13872600Y-9485000D01*
X13872600Y-9485000D02*
G75*
G03*
X13812600Y-9485000I-30000J0D01*
G01*
X14706600Y-9075000D02*
X14706600Y-9135000D01*
X14676600Y-9105000D02*
X14736600Y-9105000D01*
X14676600Y-9050000D02*
X14676600Y-9160000D01*
X14736600Y-9160000D02*
G75*
G02*
X14676600Y-9160000I-30000J0D01*
G01*
X14736600Y-9160000D02*
X14736600Y-9050000D01*
X14736600Y-9050000D02*
G75*
G03*
X14676600Y-9050000I-30000J0D01*
G01*
X14706600Y-9495000D02*
X14706600Y-9555000D01*
X14676600Y-9525000D02*
X14736600Y-9525000D01*
X14676600Y-9485000D02*
X14676600Y-9565000D01*
X14736600Y-9565000D02*
G75*
G02*
X14676600Y-9565000I-30000J0D01*
G01*
X14736600Y-9565000D02*
X14736600Y-9485000D01*
X14736600Y-9485000D02*
G75*
G03*
X14676600Y-9485000I-30000J0D01*
G01*
X13233415Y-6383747D02*
X13233415Y-6334249D01*
X13183917Y-6334249D01*
X13183917Y-6383747D01*
X13233415Y-6383747D01*
X13423415Y-6383747D02*
X13423415Y-6334249D01*
X13373917Y-6334249D01*
X13373917Y-6383747D01*
X13423415Y-6383747D01*
X13639149Y-6383747D02*
X13639149Y-6334249D01*
X13589651Y-6334249D01*
X13589651Y-6383747D01*
X13639149Y-6383747D01*
X13829149Y-6383747D02*
X13829149Y-6334249D01*
X13779651Y-6334249D01*
X13779651Y-6383747D01*
X13829149Y-6383747D01*
X11252200Y-8330400D02*
X11302200Y-8280400D01*
X11252200Y-8230400D01*
X11202200Y-8280400D01*
X11252200Y-8330400D01*
X11252200Y-8584400D02*
X11302200Y-8534400D01*
X11252200Y-8484400D01*
X11202200Y-8534400D01*
X11252200Y-8584400D01*
X11252200Y-8838400D02*
X11302200Y-8788400D01*
X11252200Y-8738400D01*
X11202200Y-8788400D01*
X11252200Y-8838400D01*
X11633200Y-8330400D02*
X11683200Y-8280400D01*
X11633200Y-8230400D01*
X11583200Y-8280400D01*
X11633200Y-8330400D01*
X11633200Y-8584400D02*
X11683200Y-8534400D01*
X11633200Y-8484400D01*
X11583200Y-8534400D01*
X11633200Y-8584400D01*
X11633200Y-8838400D02*
X11683200Y-8788400D01*
X11633200Y-8738400D01*
X11583200Y-8788400D01*
X11633200Y-8838400D01*
X12014200Y-8330400D02*
X12064200Y-8280400D01*
X12014200Y-8230400D01*
X11964200Y-8280400D01*
X12014200Y-8330400D01*
X12014200Y-8584400D02*
X12064200Y-8534400D01*
X12014200Y-8484400D01*
X11964200Y-8534400D01*
X12014200Y-8584400D01*
X12014200Y-8838400D02*
X12064200Y-8788400D01*
X12014200Y-8738400D01*
X11964200Y-8788400D01*
X12014200Y-8838400D01*
X12395200Y-8330400D02*
X12445200Y-8280400D01*
X12395200Y-8230400D01*
X12345200Y-8280400D01*
X12395200Y-8330400D01*
X12395200Y-8584400D02*
X12445200Y-8534400D01*
X12395200Y-8484400D01*
X12345200Y-8534400D01*
X12395200Y-8584400D01*
X12395200Y-8838400D02*
X12445200Y-8788400D01*
X12395200Y-8738400D01*
X12345200Y-8788400D01*
X12395200Y-8838400D01*
X12776200Y-8330400D02*
X12826200Y-8280400D01*
X12776200Y-8230400D01*
X12726200Y-8280400D01*
X12776200Y-8330400D01*
X12776200Y-8584400D02*
X12826200Y-8534400D01*
X12776200Y-8484400D01*
X12726200Y-8534400D01*
X12776200Y-8584400D01*
X12776200Y-8838400D02*
X12826200Y-8788400D01*
X12776200Y-8738400D01*
X12726200Y-8788400D01*
X12776200Y-8838400D01*
X13157200Y-8330400D02*
X13207200Y-8280400D01*
X13157200Y-8230400D01*
X13107200Y-8280400D01*
X13157200Y-8330400D01*
X13157200Y-8584400D02*
X13207200Y-8534400D01*
X13157200Y-8484400D01*
X13107200Y-8534400D01*
X13157200Y-8584400D01*
X13157200Y-8838400D02*
X13207200Y-8788400D01*
X13157200Y-8738400D01*
X13107200Y-8788400D01*
X13157200Y-8838400D01*
X13538200Y-8330400D02*
X13588200Y-8280400D01*
X13538200Y-8230400D01*
X13488200Y-8280400D01*
X13538200Y-8330400D01*
X13538200Y-8584400D02*
X13588200Y-8534400D01*
X13538200Y-8484400D01*
X13488200Y-8534400D01*
X13538200Y-8584400D01*
X13538200Y-8838400D02*
X13588200Y-8788400D01*
X13538200Y-8738400D01*
X13488200Y-8788400D01*
X13538200Y-8838400D01*
X14700881Y-8539504D02*
X14750881Y-8489504D01*
X14700881Y-8439504D01*
X14650881Y-8489504D01*
X14700881Y-8539504D01*
X14954881Y-8539504D02*
X15004881Y-8489504D01*
X14954881Y-8439504D01*
X14904881Y-8489504D01*
X14954881Y-8539504D01*
X15208881Y-8539504D02*
X15258881Y-8489504D01*
X15208881Y-8439504D01*
X15158881Y-8489504D01*
X15208881Y-8539504D01*
X16840200Y-7466800D02*
X16890200Y-7416800D01*
X16840200Y-7366800D01*
X16790200Y-7416800D01*
X16840200Y-7466800D01*
X16840200Y-7720800D02*
X16890200Y-7670800D01*
X16840200Y-7620800D01*
X16790200Y-7670800D01*
X16840200Y-7720800D01*
X16840200Y-7974800D02*
X16890200Y-7924800D01*
X16840200Y-7874800D01*
X16790200Y-7924800D01*
X16840200Y-7974800D01*
X16840200Y-8228800D02*
X16890200Y-8178800D01*
X16840200Y-8128800D01*
X16790200Y-8178800D01*
X16840200Y-8228800D01*
X16840200Y-8482800D02*
X16890200Y-8432800D01*
X16840200Y-8382800D01*
X16790200Y-8432800D01*
X16840200Y-8482800D01*
D13*
X11090000Y-6250000D02*
X11410000Y-6570000D01*
X11410000Y-6250000D02*
X11090000Y-6570000D01*
X11410000Y-6410000D02*
G75*
G02*
X11090000Y-6410000I-160000J0D01*
G01*
X11090000Y-6410000D02*
G75*
G02*
X11410000Y-6410000I160000J0D01*
G01*
X11090294Y-9159706D02*
X11410294Y-9479706D01*
X11410294Y-9159706D02*
X11090294Y-9479706D01*
X11410294Y-9319706D02*
G75*
G02*
X11090294Y-9319706I-160000J0D01*
G01*
X11090294Y-9319706D02*
G75*
G02*
X11410294Y-9319706I160000J0D01*
G01*
X17040000Y-6240000D02*
X17360000Y-6560000D01*
X17360000Y-6240000D02*
X17040000Y-6560000D01*
X17360000Y-6400000D02*
G75*
G02*
X17040000Y-6400000I-160000J0D01*
G01*
X17040000Y-6400000D02*
G75*
G02*
X17360000Y-6400000I160000J0D01*
G01*
X17040000Y-9160000D02*
X17360000Y-9480000D01*
X17360000Y-9160000D02*
X17040000Y-9480000D01*
X17360000Y-9320000D02*
G75*
G02*
X17040000Y-9320000I-160000J0D01*
G01*
X17040000Y-9320000D02*
G75*
G02*
X17360000Y-9320000I160000J0D01*
G01*
D11*
X10964577Y-10154684D02*
X10964577Y-9954684D01*
X10964577Y-9954684D02*
X11012196Y-9954684D01*
X11012196Y-9954684D02*
X11040767Y-9964208D01*
X11040767Y-9964208D02*
X11059815Y-9983255D01*
X11059815Y-9983255D02*
X11069339Y-10002303D01*
X11069339Y-10002303D02*
X11078863Y-10040398D01*
X11078863Y-10040398D02*
X11078863Y-10068970D01*
X11078863Y-10068970D02*
X11069339Y-10107065D01*
X11069339Y-10107065D02*
X11059815Y-10126112D01*
X11059815Y-10126112D02*
X11040767Y-10145160D01*
X11040767Y-10145160D02*
X11012196Y-10154684D01*
X11012196Y-10154684D02*
X10964577Y-10154684D01*
X11164577Y-10154684D02*
X11164577Y-10021350D01*
X11164577Y-10059446D02*
X11174101Y-10040398D01*
X11174101Y-10040398D02*
X11183624Y-10030874D01*
X11183624Y-10030874D02*
X11202672Y-10021350D01*
X11202672Y-10021350D02*
X11221720Y-10021350D01*
X11288386Y-10154684D02*
X11288386Y-10021350D01*
X11288386Y-9954684D02*
X11278862Y-9964208D01*
X11278862Y-9964208D02*
X11288386Y-9973731D01*
X11288386Y-9973731D02*
X11297910Y-9964208D01*
X11297910Y-9964208D02*
X11288386Y-9954684D01*
X11288386Y-9954684D02*
X11288386Y-9973731D01*
X11412196Y-10154684D02*
X11393148Y-10145160D01*
X11393148Y-10145160D02*
X11383624Y-10126112D01*
X11383624Y-10126112D02*
X11383624Y-9954684D01*
X11516958Y-10154684D02*
X11497910Y-10145160D01*
X11497910Y-10145160D02*
X11488386Y-10126112D01*
X11488386Y-10126112D02*
X11488386Y-9954684D01*
X11745529Y-10154684D02*
X11745529Y-9954684D01*
X11745529Y-9954684D02*
X11812196Y-10097541D01*
X11812196Y-10097541D02*
X11878862Y-9954684D01*
X11878862Y-9954684D02*
X11878862Y-10154684D01*
X12059815Y-10154684D02*
X12059815Y-10049922D01*
X12059815Y-10049922D02*
X12050291Y-10030874D01*
X12050291Y-10030874D02*
X12031243Y-10021350D01*
X12031243Y-10021350D02*
X11993148Y-10021350D01*
X11993148Y-10021350D02*
X11974101Y-10030874D01*
X12059815Y-10145160D02*
X12040767Y-10154684D01*
X12040767Y-10154684D02*
X11993148Y-10154684D01*
X11993148Y-10154684D02*
X11974101Y-10145160D01*
X11974101Y-10145160D02*
X11964577Y-10126112D01*
X11964577Y-10126112D02*
X11964577Y-10107065D01*
X11964577Y-10107065D02*
X11974101Y-10088017D01*
X11974101Y-10088017D02*
X11993148Y-10078493D01*
X11993148Y-10078493D02*
X12040767Y-10078493D01*
X12040767Y-10078493D02*
X12059815Y-10068970D01*
X12155053Y-10021350D02*
X12155053Y-10221350D01*
X12155053Y-10030874D02*
X12174101Y-10021350D01*
X12174101Y-10021350D02*
X12212196Y-10021350D01*
X12212196Y-10021350D02*
X12231243Y-10030874D01*
X12231243Y-10030874D02*
X12240767Y-10040398D01*
X12240767Y-10040398D02*
X12250291Y-10059446D01*
X12250291Y-10059446D02*
X12250291Y-10116589D01*
X12250291Y-10116589D02*
X12240767Y-10135636D01*
X12240767Y-10135636D02*
X12231243Y-10145160D01*
X12231243Y-10145160D02*
X12212196Y-10154684D01*
X12212196Y-10154684D02*
X12174101Y-10154684D01*
X12174101Y-10154684D02*
X12155053Y-10145160D01*
X12336005Y-10135636D02*
X12345529Y-10145160D01*
X12345529Y-10145160D02*
X12336005Y-10154684D01*
X12336005Y-10154684D02*
X12326482Y-10145160D01*
X12326482Y-10145160D02*
X12336005Y-10135636D01*
X12336005Y-10135636D02*
X12336005Y-10154684D01*
X12336005Y-10030874D02*
X12345529Y-10040398D01*
X12345529Y-10040398D02*
X12336005Y-10049922D01*
X12336005Y-10049922D02*
X12326482Y-10040398D01*
X12326482Y-10040398D02*
X12336005Y-10030874D01*
X12336005Y-10030874D02*
X12336005Y-10049922D01*
D12*
X10673800Y-10468200D02*
X10703800Y-10498200D01*
X10703800Y-10468200D02*
X10673800Y-10498200D01*
D11*
X11002672Y-10374684D02*
X11021720Y-10374684D01*
X11021720Y-10374684D02*
X11040767Y-10384208D01*
X11040767Y-10384208D02*
X11050291Y-10393731D01*
X11050291Y-10393731D02*
X11059815Y-10412779D01*
X11059815Y-10412779D02*
X11069339Y-10450874D01*
X11069339Y-10450874D02*
X11069339Y-10498493D01*
X11069339Y-10498493D02*
X11059815Y-10536589D01*
X11059815Y-10536589D02*
X11050291Y-10555636D01*
X11050291Y-10555636D02*
X11040767Y-10565160D01*
X11040767Y-10565160D02*
X11021720Y-10574684D01*
X11021720Y-10574684D02*
X11002672Y-10574684D01*
X11002672Y-10574684D02*
X10983624Y-10565160D01*
X10983624Y-10565160D02*
X10974101Y-10555636D01*
X10974101Y-10555636D02*
X10964577Y-10536589D01*
X10964577Y-10536589D02*
X10955053Y-10498493D01*
X10955053Y-10498493D02*
X10955053Y-10450874D01*
X10955053Y-10450874D02*
X10964577Y-10412779D01*
X10964577Y-10412779D02*
X10974101Y-10393731D01*
X10974101Y-10393731D02*
X10983624Y-10384208D01*
X10983624Y-10384208D02*
X11002672Y-10374684D01*
X11155053Y-10555636D02*
X11164577Y-10565160D01*
X11164577Y-10565160D02*
X11155053Y-10574684D01*
X11155053Y-10574684D02*
X11145529Y-10565160D01*
X11145529Y-10565160D02*
X11155053Y-10555636D01*
X11155053Y-10555636D02*
X11155053Y-10574684D01*
X11231243Y-10374684D02*
X11355053Y-10374684D01*
X11355053Y-10374684D02*
X11288386Y-10450874D01*
X11288386Y-10450874D02*
X11316958Y-10450874D01*
X11316958Y-10450874D02*
X11336005Y-10460398D01*
X11336005Y-10460398D02*
X11345529Y-10469922D01*
X11345529Y-10469922D02*
X11355053Y-10488970D01*
X11355053Y-10488970D02*
X11355053Y-10536589D01*
X11355053Y-10536589D02*
X11345529Y-10555636D01*
X11345529Y-10555636D02*
X11336005Y-10565160D01*
X11336005Y-10565160D02*
X11316958Y-10574684D01*
X11316958Y-10574684D02*
X11259815Y-10574684D01*
X11259815Y-10574684D02*
X11240767Y-10565160D01*
X11240767Y-10565160D02*
X11231243Y-10555636D01*
X11478862Y-10374684D02*
X11497910Y-10374684D01*
X11497910Y-10374684D02*
X11516958Y-10384208D01*
X11516958Y-10384208D02*
X11526482Y-10393731D01*
X11526482Y-10393731D02*
X11536005Y-10412779D01*
X11536005Y-10412779D02*
X11545529Y-10450874D01*
X11545529Y-10450874D02*
X11545529Y-10498493D01*
X11545529Y-10498493D02*
X11536005Y-10536589D01*
X11536005Y-10536589D02*
X11526482Y-10555636D01*
X11526482Y-10555636D02*
X11516958Y-10565160D01*
X11516958Y-10565160D02*
X11497910Y-10574684D01*
X11497910Y-10574684D02*
X11478862Y-10574684D01*
X11478862Y-10574684D02*
X11459815Y-10565160D01*
X11459815Y-10565160D02*
X11450291Y-10555636D01*
X11450291Y-10555636D02*
X11440767Y-10536589D01*
X11440767Y-10536589D02*
X11431243Y-10498493D01*
X11431243Y-10498493D02*
X11431243Y-10450874D01*
X11431243Y-10450874D02*
X11440767Y-10412779D01*
X11440767Y-10412779D02*
X11450291Y-10393731D01*
X11450291Y-10393731D02*
X11459815Y-10384208D01*
X11459815Y-10384208D02*
X11478862Y-10374684D01*
X11669339Y-10374684D02*
X11688386Y-10374684D01*
X11688386Y-10374684D02*
X11707434Y-10384208D01*
X11707434Y-10384208D02*
X11716958Y-10393731D01*
X11716958Y-10393731D02*
X11726482Y-10412779D01*
X11726482Y-10412779D02*
X11736005Y-10450874D01*
X11736005Y-10450874D02*
X11736005Y-10498493D01*
X11736005Y-10498493D02*
X11726482Y-10536589D01*
X11726482Y-10536589D02*
X11716958Y-10555636D01*
X11716958Y-10555636D02*
X11707434Y-10565160D01*
X11707434Y-10565160D02*
X11688386Y-10574684D01*
X11688386Y-10574684D02*
X11669339Y-10574684D01*
X11669339Y-10574684D02*
X11650291Y-10565160D01*
X11650291Y-10565160D02*
X11640767Y-10555636D01*
X11640767Y-10555636D02*
X11631243Y-10536589D01*
X11631243Y-10536589D02*
X11621720Y-10498493D01*
X11621720Y-10498493D02*
X11621720Y-10450874D01*
X11621720Y-10450874D02*
X11631243Y-10412779D01*
X11631243Y-10412779D02*
X11640767Y-10393731D01*
X11640767Y-10393731D02*
X11650291Y-10384208D01*
X11650291Y-10384208D02*
X11669339Y-10374684D01*
X11821720Y-10574684D02*
X11821720Y-10441350D01*
X11821720Y-10460398D02*
X11831243Y-10450874D01*
X11831243Y-10450874D02*
X11850291Y-10441350D01*
X11850291Y-10441350D02*
X11878863Y-10441350D01*
X11878863Y-10441350D02*
X11897910Y-10450874D01*
X11897910Y-10450874D02*
X11907434Y-10469922D01*
X11907434Y-10469922D02*
X11907434Y-10574684D01*
X11907434Y-10469922D02*
X11916958Y-10450874D01*
X11916958Y-10450874D02*
X11936005Y-10441350D01*
X11936005Y-10441350D02*
X11964577Y-10441350D01*
X11964577Y-10441350D02*
X11983624Y-10450874D01*
X11983624Y-10450874D02*
X11993148Y-10469922D01*
X11993148Y-10469922D02*
X11993148Y-10574684D01*
X12088386Y-10574684D02*
X12088386Y-10441350D01*
X12088386Y-10460398D02*
X12097910Y-10450874D01*
X12097910Y-10450874D02*
X12116958Y-10441350D01*
X12116958Y-10441350D02*
X12145529Y-10441350D01*
X12145529Y-10441350D02*
X12164577Y-10450874D01*
X12164577Y-10450874D02*
X12174101Y-10469922D01*
X12174101Y-10469922D02*
X12174101Y-10574684D01*
X12174101Y-10469922D02*
X12183624Y-10450874D01*
X12183624Y-10450874D02*
X12202672Y-10441350D01*
X12202672Y-10441350D02*
X12231243Y-10441350D01*
X12231243Y-10441350D02*
X12250291Y-10450874D01*
X12250291Y-10450874D02*
X12259815Y-10469922D01*
X12259815Y-10469922D02*
X12259815Y-10574684D01*
X12650291Y-10365160D02*
X12478863Y-10622303D01*
X12907434Y-10374684D02*
X12926482Y-10374684D01*
X12926482Y-10374684D02*
X12945529Y-10384208D01*
X12945529Y-10384208D02*
X12955053Y-10393731D01*
X12955053Y-10393731D02*
X12964577Y-10412779D01*
X12964577Y-10412779D02*
X12974101Y-10450874D01*
X12974101Y-10450874D02*
X12974101Y-10498493D01*
X12974101Y-10498493D02*
X12964577Y-10536589D01*
X12964577Y-10536589D02*
X12955053Y-10555636D01*
X12955053Y-10555636D02*
X12945529Y-10565160D01*
X12945529Y-10565160D02*
X12926482Y-10574684D01*
X12926482Y-10574684D02*
X12907434Y-10574684D01*
X12907434Y-10574684D02*
X12888386Y-10565160D01*
X12888386Y-10565160D02*
X12878863Y-10555636D01*
X12878863Y-10555636D02*
X12869339Y-10536589D01*
X12869339Y-10536589D02*
X12859815Y-10498493D01*
X12859815Y-10498493D02*
X12859815Y-10450874D01*
X12859815Y-10450874D02*
X12869339Y-10412779D01*
X12869339Y-10412779D02*
X12878863Y-10393731D01*
X12878863Y-10393731D02*
X12888386Y-10384208D01*
X12888386Y-10384208D02*
X12907434Y-10374684D01*
X13059815Y-10555636D02*
X13069339Y-10565160D01*
X13069339Y-10565160D02*
X13059815Y-10574684D01*
X13059815Y-10574684D02*
X13050291Y-10565160D01*
X13050291Y-10565160D02*
X13059815Y-10555636D01*
X13059815Y-10555636D02*
X13059815Y-10574684D01*
X13193148Y-10374684D02*
X13212196Y-10374684D01*
X13212196Y-10374684D02*
X13231244Y-10384208D01*
X13231244Y-10384208D02*
X13240767Y-10393731D01*
X13240767Y-10393731D02*
X13250291Y-10412779D01*
X13250291Y-10412779D02*
X13259815Y-10450874D01*
X13259815Y-10450874D02*
X13259815Y-10498493D01*
X13259815Y-10498493D02*
X13250291Y-10536589D01*
X13250291Y-10536589D02*
X13240767Y-10555636D01*
X13240767Y-10555636D02*
X13231244Y-10565160D01*
X13231244Y-10565160D02*
X13212196Y-10574684D01*
X13212196Y-10574684D02*
X13193148Y-10574684D01*
X13193148Y-10574684D02*
X13174101Y-10565160D01*
X13174101Y-10565160D02*
X13164577Y-10555636D01*
X13164577Y-10555636D02*
X13155053Y-10536589D01*
X13155053Y-10536589D02*
X13145529Y-10498493D01*
X13145529Y-10498493D02*
X13145529Y-10450874D01*
X13145529Y-10450874D02*
X13155053Y-10412779D01*
X13155053Y-10412779D02*
X13164577Y-10393731D01*
X13164577Y-10393731D02*
X13174101Y-10384208D01*
X13174101Y-10384208D02*
X13193148Y-10374684D01*
X13450291Y-10574684D02*
X13336006Y-10574684D01*
X13393148Y-10574684D02*
X13393148Y-10374684D01*
X13393148Y-10374684D02*
X13374101Y-10403255D01*
X13374101Y-10403255D02*
X13355053Y-10422303D01*
X13355053Y-10422303D02*
X13336006Y-10431827D01*
X13640767Y-10574684D02*
X13526482Y-10574684D01*
X13583625Y-10574684D02*
X13583625Y-10374684D01*
X13583625Y-10374684D02*
X13564577Y-10403255D01*
X13564577Y-10403255D02*
X13545529Y-10422303D01*
X13545529Y-10422303D02*
X13526482Y-10431827D01*
X13755053Y-10460398D02*
X13736006Y-10450874D01*
X13736006Y-10450874D02*
X13726482Y-10441350D01*
X13726482Y-10441350D02*
X13716958Y-10422303D01*
X13716958Y-10422303D02*
X13716958Y-10412779D01*
X13716958Y-10412779D02*
X13726482Y-10393731D01*
X13726482Y-10393731D02*
X13736006Y-10384208D01*
X13736006Y-10384208D02*
X13755053Y-10374684D01*
X13755053Y-10374684D02*
X13793148Y-10374684D01*
X13793148Y-10374684D02*
X13812196Y-10384208D01*
X13812196Y-10384208D02*
X13821720Y-10393731D01*
X13821720Y-10393731D02*
X13831244Y-10412779D01*
X13831244Y-10412779D02*
X13831244Y-10422303D01*
X13831244Y-10422303D02*
X13821720Y-10441350D01*
X13821720Y-10441350D02*
X13812196Y-10450874D01*
X13812196Y-10450874D02*
X13793148Y-10460398D01*
X13793148Y-10460398D02*
X13755053Y-10460398D01*
X13755053Y-10460398D02*
X13736006Y-10469922D01*
X13736006Y-10469922D02*
X13726482Y-10479446D01*
X13726482Y-10479446D02*
X13716958Y-10498493D01*
X13716958Y-10498493D02*
X13716958Y-10536589D01*
X13716958Y-10536589D02*
X13726482Y-10555636D01*
X13726482Y-10555636D02*
X13736006Y-10565160D01*
X13736006Y-10565160D02*
X13755053Y-10574684D01*
X13755053Y-10574684D02*
X13793148Y-10574684D01*
X13793148Y-10574684D02*
X13812196Y-10565160D01*
X13812196Y-10565160D02*
X13821720Y-10555636D01*
X13821720Y-10555636D02*
X13831244Y-10536589D01*
X13831244Y-10536589D02*
X13831244Y-10498493D01*
X13831244Y-10498493D02*
X13821720Y-10479446D01*
X13821720Y-10479446D02*
X13812196Y-10469922D01*
X13812196Y-10469922D02*
X13793148Y-10460398D01*
X13907434Y-10374684D02*
X13907434Y-10412779D01*
X13983625Y-10374684D02*
X13983625Y-10412779D01*
X14278863Y-10650874D02*
X14269339Y-10641350D01*
X14269339Y-10641350D02*
X14250291Y-10612779D01*
X14250291Y-10612779D02*
X14240768Y-10593731D01*
X14240768Y-10593731D02*
X14231244Y-10565160D01*
X14231244Y-10565160D02*
X14221720Y-10517541D01*
X14221720Y-10517541D02*
X14221720Y-10479446D01*
X14221720Y-10479446D02*
X14231244Y-10431827D01*
X14231244Y-10431827D02*
X14240768Y-10403255D01*
X14240768Y-10403255D02*
X14250291Y-10384208D01*
X14250291Y-10384208D02*
X14269339Y-10355636D01*
X14269339Y-10355636D02*
X14278863Y-10346112D01*
X14459815Y-10574684D02*
X14345529Y-10574684D01*
X14402672Y-10574684D02*
X14402672Y-10374684D01*
X14402672Y-10374684D02*
X14383625Y-10403255D01*
X14383625Y-10403255D02*
X14364577Y-10422303D01*
X14364577Y-10422303D02*
X14345529Y-10431827D01*
X14650291Y-10574684D02*
X14536006Y-10574684D01*
X14593148Y-10574684D02*
X14593148Y-10374684D01*
X14593148Y-10374684D02*
X14574101Y-10403255D01*
X14574101Y-10403255D02*
X14555053Y-10422303D01*
X14555053Y-10422303D02*
X14536006Y-10431827D01*
X14774101Y-10374684D02*
X14793149Y-10374684D01*
X14793149Y-10374684D02*
X14812196Y-10384208D01*
X14812196Y-10384208D02*
X14821720Y-10393731D01*
X14821720Y-10393731D02*
X14831244Y-10412779D01*
X14831244Y-10412779D02*
X14840768Y-10450874D01*
X14840768Y-10450874D02*
X14840768Y-10498493D01*
X14840768Y-10498493D02*
X14831244Y-10536589D01*
X14831244Y-10536589D02*
X14821720Y-10555636D01*
X14821720Y-10555636D02*
X14812196Y-10565160D01*
X14812196Y-10565160D02*
X14793149Y-10574684D01*
X14793149Y-10574684D02*
X14774101Y-10574684D01*
X14774101Y-10574684D02*
X14755053Y-10565160D01*
X14755053Y-10565160D02*
X14745529Y-10555636D01*
X14745529Y-10555636D02*
X14736006Y-10536589D01*
X14736006Y-10536589D02*
X14726482Y-10498493D01*
X14726482Y-10498493D02*
X14726482Y-10450874D01*
X14726482Y-10450874D02*
X14736006Y-10412779D01*
X14736006Y-10412779D02*
X14745529Y-10393731D01*
X14745529Y-10393731D02*
X14755053Y-10384208D01*
X14755053Y-10384208D02*
X14774101Y-10374684D01*
X15078863Y-10574684D02*
X15078863Y-10374684D01*
X15164577Y-10574684D02*
X15164577Y-10469922D01*
X15164577Y-10469922D02*
X15155053Y-10450874D01*
X15155053Y-10450874D02*
X15136006Y-10441350D01*
X15136006Y-10441350D02*
X15107434Y-10441350D01*
X15107434Y-10441350D02*
X15088387Y-10450874D01*
X15088387Y-10450874D02*
X15078863Y-10460398D01*
X15288387Y-10574684D02*
X15269339Y-10565160D01*
X15269339Y-10565160D02*
X15259815Y-10555636D01*
X15259815Y-10555636D02*
X15250291Y-10536589D01*
X15250291Y-10536589D02*
X15250291Y-10479446D01*
X15250291Y-10479446D02*
X15259815Y-10460398D01*
X15259815Y-10460398D02*
X15269339Y-10450874D01*
X15269339Y-10450874D02*
X15288387Y-10441350D01*
X15288387Y-10441350D02*
X15316958Y-10441350D01*
X15316958Y-10441350D02*
X15336006Y-10450874D01*
X15336006Y-10450874D02*
X15345530Y-10460398D01*
X15345530Y-10460398D02*
X15355053Y-10479446D01*
X15355053Y-10479446D02*
X15355053Y-10536589D01*
X15355053Y-10536589D02*
X15345530Y-10555636D01*
X15345530Y-10555636D02*
X15336006Y-10565160D01*
X15336006Y-10565160D02*
X15316958Y-10574684D01*
X15316958Y-10574684D02*
X15288387Y-10574684D01*
X15469339Y-10574684D02*
X15450291Y-10565160D01*
X15450291Y-10565160D02*
X15440768Y-10546112D01*
X15440768Y-10546112D02*
X15440768Y-10374684D01*
X15621720Y-10565160D02*
X15602672Y-10574684D01*
X15602672Y-10574684D02*
X15564577Y-10574684D01*
X15564577Y-10574684D02*
X15545530Y-10565160D01*
X15545530Y-10565160D02*
X15536006Y-10546112D01*
X15536006Y-10546112D02*
X15536006Y-10469922D01*
X15536006Y-10469922D02*
X15545530Y-10450874D01*
X15545530Y-10450874D02*
X15564577Y-10441350D01*
X15564577Y-10441350D02*
X15602672Y-10441350D01*
X15602672Y-10441350D02*
X15621720Y-10450874D01*
X15621720Y-10450874D02*
X15631244Y-10469922D01*
X15631244Y-10469922D02*
X15631244Y-10488970D01*
X15631244Y-10488970D02*
X15536006Y-10508017D01*
X15707434Y-10565160D02*
X15726482Y-10574684D01*
X15726482Y-10574684D02*
X15764577Y-10574684D01*
X15764577Y-10574684D02*
X15783625Y-10565160D01*
X15783625Y-10565160D02*
X15793149Y-10546112D01*
X15793149Y-10546112D02*
X15793149Y-10536589D01*
X15793149Y-10536589D02*
X15783625Y-10517541D01*
X15783625Y-10517541D02*
X15764577Y-10508017D01*
X15764577Y-10508017D02*
X15736006Y-10508017D01*
X15736006Y-10508017D02*
X15716958Y-10498493D01*
X15716958Y-10498493D02*
X15707434Y-10479446D01*
X15707434Y-10479446D02*
X15707434Y-10469922D01*
X15707434Y-10469922D02*
X15716958Y-10450874D01*
X15716958Y-10450874D02*
X15736006Y-10441350D01*
X15736006Y-10441350D02*
X15764577Y-10441350D01*
X15764577Y-10441350D02*
X15783625Y-10450874D01*
X15859815Y-10650874D02*
X15869339Y-10641350D01*
X15869339Y-10641350D02*
X15888387Y-10612779D01*
X15888387Y-10612779D02*
X15897911Y-10593731D01*
X15897911Y-10593731D02*
X15907434Y-10565160D01*
X15907434Y-10565160D02*
X15916958Y-10517541D01*
X15916958Y-10517541D02*
X15916958Y-10479446D01*
X15916958Y-10479446D02*
X15907434Y-10431827D01*
X15907434Y-10431827D02*
X15897911Y-10403255D01*
X15897911Y-10403255D02*
X15888387Y-10384208D01*
X15888387Y-10384208D02*
X15869339Y-10355636D01*
X15869339Y-10355636D02*
X15859815Y-10346112D01*
D12*
X10703800Y-10747200D02*
G75*
G02*
X10653800Y-10747200I-25000J0D01*
G01*
X10653800Y-10747200D02*
G75*
G02*
X10703800Y-10747200I25000J0D01*
G01*
D11*
X11002672Y-10638684D02*
X11021720Y-10638684D01*
X11021720Y-10638684D02*
X11040767Y-10648208D01*
X11040767Y-10648208D02*
X11050291Y-10657731D01*
X11050291Y-10657731D02*
X11059815Y-10676779D01*
X11059815Y-10676779D02*
X11069339Y-10714874D01*
X11069339Y-10714874D02*
X11069339Y-10762493D01*
X11069339Y-10762493D02*
X11059815Y-10800589D01*
X11059815Y-10800589D02*
X11050291Y-10819636D01*
X11050291Y-10819636D02*
X11040767Y-10829160D01*
X11040767Y-10829160D02*
X11021720Y-10838684D01*
X11021720Y-10838684D02*
X11002672Y-10838684D01*
X11002672Y-10838684D02*
X10983624Y-10829160D01*
X10983624Y-10829160D02*
X10974101Y-10819636D01*
X10974101Y-10819636D02*
X10964577Y-10800589D01*
X10964577Y-10800589D02*
X10955053Y-10762493D01*
X10955053Y-10762493D02*
X10955053Y-10714874D01*
X10955053Y-10714874D02*
X10964577Y-10676779D01*
X10964577Y-10676779D02*
X10974101Y-10657731D01*
X10974101Y-10657731D02*
X10983624Y-10648208D01*
X10983624Y-10648208D02*
X11002672Y-10638684D01*
X11155053Y-10819636D02*
X11164577Y-10829160D01*
X11164577Y-10829160D02*
X11155053Y-10838684D01*
X11155053Y-10838684D02*
X11145529Y-10829160D01*
X11145529Y-10829160D02*
X11155053Y-10819636D01*
X11155053Y-10819636D02*
X11155053Y-10838684D01*
X11345529Y-10638684D02*
X11250291Y-10638684D01*
X11250291Y-10638684D02*
X11240767Y-10733922D01*
X11240767Y-10733922D02*
X11250291Y-10724398D01*
X11250291Y-10724398D02*
X11269339Y-10714874D01*
X11269339Y-10714874D02*
X11316958Y-10714874D01*
X11316958Y-10714874D02*
X11336005Y-10724398D01*
X11336005Y-10724398D02*
X11345529Y-10733922D01*
X11345529Y-10733922D02*
X11355053Y-10752970D01*
X11355053Y-10752970D02*
X11355053Y-10800589D01*
X11355053Y-10800589D02*
X11345529Y-10819636D01*
X11345529Y-10819636D02*
X11336005Y-10829160D01*
X11336005Y-10829160D02*
X11316958Y-10838684D01*
X11316958Y-10838684D02*
X11269339Y-10838684D01*
X11269339Y-10838684D02*
X11250291Y-10829160D01*
X11250291Y-10829160D02*
X11240767Y-10819636D01*
X11478862Y-10638684D02*
X11497910Y-10638684D01*
X11497910Y-10638684D02*
X11516958Y-10648208D01*
X11516958Y-10648208D02*
X11526482Y-10657731D01*
X11526482Y-10657731D02*
X11536005Y-10676779D01*
X11536005Y-10676779D02*
X11545529Y-10714874D01*
X11545529Y-10714874D02*
X11545529Y-10762493D01*
X11545529Y-10762493D02*
X11536005Y-10800589D01*
X11536005Y-10800589D02*
X11526482Y-10819636D01*
X11526482Y-10819636D02*
X11516958Y-10829160D01*
X11516958Y-10829160D02*
X11497910Y-10838684D01*
X11497910Y-10838684D02*
X11478862Y-10838684D01*
X11478862Y-10838684D02*
X11459815Y-10829160D01*
X11459815Y-10829160D02*
X11450291Y-10819636D01*
X11450291Y-10819636D02*
X11440767Y-10800589D01*
X11440767Y-10800589D02*
X11431243Y-10762493D01*
X11431243Y-10762493D02*
X11431243Y-10714874D01*
X11431243Y-10714874D02*
X11440767Y-10676779D01*
X11440767Y-10676779D02*
X11450291Y-10657731D01*
X11450291Y-10657731D02*
X11459815Y-10648208D01*
X11459815Y-10648208D02*
X11478862Y-10638684D01*
X11669339Y-10638684D02*
X11688386Y-10638684D01*
X11688386Y-10638684D02*
X11707434Y-10648208D01*
X11707434Y-10648208D02*
X11716958Y-10657731D01*
X11716958Y-10657731D02*
X11726482Y-10676779D01*
X11726482Y-10676779D02*
X11736005Y-10714874D01*
X11736005Y-10714874D02*
X11736005Y-10762493D01*
X11736005Y-10762493D02*
X11726482Y-10800589D01*
X11726482Y-10800589D02*
X11716958Y-10819636D01*
X11716958Y-10819636D02*
X11707434Y-10829160D01*
X11707434Y-10829160D02*
X11688386Y-10838684D01*
X11688386Y-10838684D02*
X11669339Y-10838684D01*
X11669339Y-10838684D02*
X11650291Y-10829160D01*
X11650291Y-10829160D02*
X11640767Y-10819636D01*
X11640767Y-10819636D02*
X11631243Y-10800589D01*
X11631243Y-10800589D02*
X11621720Y-10762493D01*
X11621720Y-10762493D02*
X11621720Y-10714874D01*
X11621720Y-10714874D02*
X11631243Y-10676779D01*
X11631243Y-10676779D02*
X11640767Y-10657731D01*
X11640767Y-10657731D02*
X11650291Y-10648208D01*
X11650291Y-10648208D02*
X11669339Y-10638684D01*
X11821720Y-10838684D02*
X11821720Y-10705350D01*
X11821720Y-10724398D02*
X11831243Y-10714874D01*
X11831243Y-10714874D02*
X11850291Y-10705350D01*
X11850291Y-10705350D02*
X11878863Y-10705350D01*
X11878863Y-10705350D02*
X11897910Y-10714874D01*
X11897910Y-10714874D02*
X11907434Y-10733922D01*
X11907434Y-10733922D02*
X11907434Y-10838684D01*
X11907434Y-10733922D02*
X11916958Y-10714874D01*
X11916958Y-10714874D02*
X11936005Y-10705350D01*
X11936005Y-10705350D02*
X11964577Y-10705350D01*
X11964577Y-10705350D02*
X11983624Y-10714874D01*
X11983624Y-10714874D02*
X11993148Y-10733922D01*
X11993148Y-10733922D02*
X11993148Y-10838684D01*
X12088386Y-10838684D02*
X12088386Y-10705350D01*
X12088386Y-10724398D02*
X12097910Y-10714874D01*
X12097910Y-10714874D02*
X12116958Y-10705350D01*
X12116958Y-10705350D02*
X12145529Y-10705350D01*
X12145529Y-10705350D02*
X12164577Y-10714874D01*
X12164577Y-10714874D02*
X12174101Y-10733922D01*
X12174101Y-10733922D02*
X12174101Y-10838684D01*
X12174101Y-10733922D02*
X12183624Y-10714874D01*
X12183624Y-10714874D02*
X12202672Y-10705350D01*
X12202672Y-10705350D02*
X12231243Y-10705350D01*
X12231243Y-10705350D02*
X12250291Y-10714874D01*
X12250291Y-10714874D02*
X12259815Y-10733922D01*
X12259815Y-10733922D02*
X12259815Y-10838684D01*
X12650291Y-10629160D02*
X12478863Y-10886303D01*
X12907434Y-10638684D02*
X12926482Y-10638684D01*
X12926482Y-10638684D02*
X12945529Y-10648208D01*
X12945529Y-10648208D02*
X12955053Y-10657731D01*
X12955053Y-10657731D02*
X12964577Y-10676779D01*
X12964577Y-10676779D02*
X12974101Y-10714874D01*
X12974101Y-10714874D02*
X12974101Y-10762493D01*
X12974101Y-10762493D02*
X12964577Y-10800589D01*
X12964577Y-10800589D02*
X12955053Y-10819636D01*
X12955053Y-10819636D02*
X12945529Y-10829160D01*
X12945529Y-10829160D02*
X12926482Y-10838684D01*
X12926482Y-10838684D02*
X12907434Y-10838684D01*
X12907434Y-10838684D02*
X12888386Y-10829160D01*
X12888386Y-10829160D02*
X12878863Y-10819636D01*
X12878863Y-10819636D02*
X12869339Y-10800589D01*
X12869339Y-10800589D02*
X12859815Y-10762493D01*
X12859815Y-10762493D02*
X12859815Y-10714874D01*
X12859815Y-10714874D02*
X12869339Y-10676779D01*
X12869339Y-10676779D02*
X12878863Y-10657731D01*
X12878863Y-10657731D02*
X12888386Y-10648208D01*
X12888386Y-10648208D02*
X12907434Y-10638684D01*
X13059815Y-10819636D02*
X13069339Y-10829160D01*
X13069339Y-10829160D02*
X13059815Y-10838684D01*
X13059815Y-10838684D02*
X13050291Y-10829160D01*
X13050291Y-10829160D02*
X13059815Y-10819636D01*
X13059815Y-10819636D02*
X13059815Y-10838684D01*
X13193148Y-10638684D02*
X13212196Y-10638684D01*
X13212196Y-10638684D02*
X13231244Y-10648208D01*
X13231244Y-10648208D02*
X13240767Y-10657731D01*
X13240767Y-10657731D02*
X13250291Y-10676779D01*
X13250291Y-10676779D02*
X13259815Y-10714874D01*
X13259815Y-10714874D02*
X13259815Y-10762493D01*
X13259815Y-10762493D02*
X13250291Y-10800589D01*
X13250291Y-10800589D02*
X13240767Y-10819636D01*
X13240767Y-10819636D02*
X13231244Y-10829160D01*
X13231244Y-10829160D02*
X13212196Y-10838684D01*
X13212196Y-10838684D02*
X13193148Y-10838684D01*
X13193148Y-10838684D02*
X13174101Y-10829160D01*
X13174101Y-10829160D02*
X13164577Y-10819636D01*
X13164577Y-10819636D02*
X13155053Y-10800589D01*
X13155053Y-10800589D02*
X13145529Y-10762493D01*
X13145529Y-10762493D02*
X13145529Y-10714874D01*
X13145529Y-10714874D02*
X13155053Y-10676779D01*
X13155053Y-10676779D02*
X13164577Y-10657731D01*
X13164577Y-10657731D02*
X13174101Y-10648208D01*
X13174101Y-10648208D02*
X13193148Y-10638684D01*
X13450291Y-10838684D02*
X13336006Y-10838684D01*
X13393148Y-10838684D02*
X13393148Y-10638684D01*
X13393148Y-10638684D02*
X13374101Y-10667255D01*
X13374101Y-10667255D02*
X13355053Y-10686303D01*
X13355053Y-10686303D02*
X13336006Y-10695827D01*
X13545529Y-10838684D02*
X13583625Y-10838684D01*
X13583625Y-10838684D02*
X13602672Y-10829160D01*
X13602672Y-10829160D02*
X13612196Y-10819636D01*
X13612196Y-10819636D02*
X13631244Y-10791065D01*
X13631244Y-10791065D02*
X13640767Y-10752970D01*
X13640767Y-10752970D02*
X13640767Y-10676779D01*
X13640767Y-10676779D02*
X13631244Y-10657731D01*
X13631244Y-10657731D02*
X13621720Y-10648208D01*
X13621720Y-10648208D02*
X13602672Y-10638684D01*
X13602672Y-10638684D02*
X13564577Y-10638684D01*
X13564577Y-10638684D02*
X13545529Y-10648208D01*
X13545529Y-10648208D02*
X13536006Y-10657731D01*
X13536006Y-10657731D02*
X13526482Y-10676779D01*
X13526482Y-10676779D02*
X13526482Y-10724398D01*
X13526482Y-10724398D02*
X13536006Y-10743446D01*
X13536006Y-10743446D02*
X13545529Y-10752970D01*
X13545529Y-10752970D02*
X13564577Y-10762493D01*
X13564577Y-10762493D02*
X13602672Y-10762493D01*
X13602672Y-10762493D02*
X13621720Y-10752970D01*
X13621720Y-10752970D02*
X13631244Y-10743446D01*
X13631244Y-10743446D02*
X13640767Y-10724398D01*
X13707434Y-10638684D02*
X13840767Y-10638684D01*
X13840767Y-10638684D02*
X13755053Y-10838684D01*
X13907434Y-10638684D02*
X13907434Y-10676779D01*
X13983625Y-10638684D02*
X13983625Y-10676779D01*
X14278863Y-10914874D02*
X14269339Y-10905350D01*
X14269339Y-10905350D02*
X14250291Y-10876779D01*
X14250291Y-10876779D02*
X14240768Y-10857731D01*
X14240768Y-10857731D02*
X14231244Y-10829160D01*
X14231244Y-10829160D02*
X14221720Y-10781541D01*
X14221720Y-10781541D02*
X14221720Y-10743446D01*
X14221720Y-10743446D02*
X14231244Y-10695827D01*
X14231244Y-10695827D02*
X14240768Y-10667255D01*
X14240768Y-10667255D02*
X14250291Y-10648208D01*
X14250291Y-10648208D02*
X14269339Y-10619636D01*
X14269339Y-10619636D02*
X14278863Y-10610112D01*
X14336006Y-10638684D02*
X14459815Y-10638684D01*
X14459815Y-10638684D02*
X14393148Y-10714874D01*
X14393148Y-10714874D02*
X14421720Y-10714874D01*
X14421720Y-10714874D02*
X14440768Y-10724398D01*
X14440768Y-10724398D02*
X14450291Y-10733922D01*
X14450291Y-10733922D02*
X14459815Y-10752970D01*
X14459815Y-10752970D02*
X14459815Y-10800589D01*
X14459815Y-10800589D02*
X14450291Y-10819636D01*
X14450291Y-10819636D02*
X14440768Y-10829160D01*
X14440768Y-10829160D02*
X14421720Y-10838684D01*
X14421720Y-10838684D02*
X14364577Y-10838684D01*
X14364577Y-10838684D02*
X14345529Y-10829160D01*
X14345529Y-10829160D02*
X14336006Y-10819636D01*
X14536006Y-10657731D02*
X14545529Y-10648208D01*
X14545529Y-10648208D02*
X14564577Y-10638684D01*
X14564577Y-10638684D02*
X14612196Y-10638684D01*
X14612196Y-10638684D02*
X14631244Y-10648208D01*
X14631244Y-10648208D02*
X14640768Y-10657731D01*
X14640768Y-10657731D02*
X14650291Y-10676779D01*
X14650291Y-10676779D02*
X14650291Y-10695827D01*
X14650291Y-10695827D02*
X14640768Y-10724398D01*
X14640768Y-10724398D02*
X14526482Y-10838684D01*
X14526482Y-10838684D02*
X14650291Y-10838684D01*
X14888387Y-10838684D02*
X14888387Y-10638684D01*
X14974101Y-10838684D02*
X14974101Y-10733922D01*
X14974101Y-10733922D02*
X14964577Y-10714874D01*
X14964577Y-10714874D02*
X14945530Y-10705350D01*
X14945530Y-10705350D02*
X14916958Y-10705350D01*
X14916958Y-10705350D02*
X14897910Y-10714874D01*
X14897910Y-10714874D02*
X14888387Y-10724398D01*
X15097910Y-10838684D02*
X15078863Y-10829160D01*
X15078863Y-10829160D02*
X15069339Y-10819636D01*
X15069339Y-10819636D02*
X15059815Y-10800589D01*
X15059815Y-10800589D02*
X15059815Y-10743446D01*
X15059815Y-10743446D02*
X15069339Y-10724398D01*
X15069339Y-10724398D02*
X15078863Y-10714874D01*
X15078863Y-10714874D02*
X15097910Y-10705350D01*
X15097910Y-10705350D02*
X15126482Y-10705350D01*
X15126482Y-10705350D02*
X15145530Y-10714874D01*
X15145530Y-10714874D02*
X15155053Y-10724398D01*
X15155053Y-10724398D02*
X15164577Y-10743446D01*
X15164577Y-10743446D02*
X15164577Y-10800589D01*
X15164577Y-10800589D02*
X15155053Y-10819636D01*
X15155053Y-10819636D02*
X15145530Y-10829160D01*
X15145530Y-10829160D02*
X15126482Y-10838684D01*
X15126482Y-10838684D02*
X15097910Y-10838684D01*
X15278863Y-10838684D02*
X15259815Y-10829160D01*
X15259815Y-10829160D02*
X15250291Y-10810112D01*
X15250291Y-10810112D02*
X15250291Y-10638684D01*
X15431244Y-10829160D02*
X15412196Y-10838684D01*
X15412196Y-10838684D02*
X15374101Y-10838684D01*
X15374101Y-10838684D02*
X15355053Y-10829160D01*
X15355053Y-10829160D02*
X15345530Y-10810112D01*
X15345530Y-10810112D02*
X15345530Y-10733922D01*
X15345530Y-10733922D02*
X15355053Y-10714874D01*
X15355053Y-10714874D02*
X15374101Y-10705350D01*
X15374101Y-10705350D02*
X15412196Y-10705350D01*
X15412196Y-10705350D02*
X15431244Y-10714874D01*
X15431244Y-10714874D02*
X15440768Y-10733922D01*
X15440768Y-10733922D02*
X15440768Y-10752970D01*
X15440768Y-10752970D02*
X15345530Y-10772017D01*
X15516958Y-10829160D02*
X15536006Y-10838684D01*
X15536006Y-10838684D02*
X15574101Y-10838684D01*
X15574101Y-10838684D02*
X15593149Y-10829160D01*
X15593149Y-10829160D02*
X15602672Y-10810112D01*
X15602672Y-10810112D02*
X15602672Y-10800589D01*
X15602672Y-10800589D02*
X15593149Y-10781541D01*
X15593149Y-10781541D02*
X15574101Y-10772017D01*
X15574101Y-10772017D02*
X15545530Y-10772017D01*
X15545530Y-10772017D02*
X15526482Y-10762493D01*
X15526482Y-10762493D02*
X15516958Y-10743446D01*
X15516958Y-10743446D02*
X15516958Y-10733922D01*
X15516958Y-10733922D02*
X15526482Y-10714874D01*
X15526482Y-10714874D02*
X15545530Y-10705350D01*
X15545530Y-10705350D02*
X15574101Y-10705350D01*
X15574101Y-10705350D02*
X15593149Y-10714874D01*
X15669339Y-10914874D02*
X15678863Y-10905350D01*
X15678863Y-10905350D02*
X15697911Y-10876779D01*
X15697911Y-10876779D02*
X15707434Y-10857731D01*
X15707434Y-10857731D02*
X15716958Y-10829160D01*
X15716958Y-10829160D02*
X15726482Y-10781541D01*
X15726482Y-10781541D02*
X15726482Y-10743446D01*
X15726482Y-10743446D02*
X15716958Y-10695827D01*
X15716958Y-10695827D02*
X15707434Y-10667255D01*
X15707434Y-10667255D02*
X15697911Y-10648208D01*
X15697911Y-10648208D02*
X15678863Y-10619636D01*
X15678863Y-10619636D02*
X15669339Y-10610112D01*
D12*
X10673800Y-10981200D02*
X10673800Y-11041200D01*
X10643800Y-11011200D02*
X10703800Y-11011200D01*
D11*
X11002672Y-10902684D02*
X11021720Y-10902684D01*
X11021720Y-10902684D02*
X11040767Y-10912208D01*
X11040767Y-10912208D02*
X11050291Y-10921731D01*
X11050291Y-10921731D02*
X11059815Y-10940779D01*
X11059815Y-10940779D02*
X11069339Y-10978874D01*
X11069339Y-10978874D02*
X11069339Y-11026493D01*
X11069339Y-11026493D02*
X11059815Y-11064589D01*
X11059815Y-11064589D02*
X11050291Y-11083636D01*
X11050291Y-11083636D02*
X11040767Y-11093160D01*
X11040767Y-11093160D02*
X11021720Y-11102684D01*
X11021720Y-11102684D02*
X11002672Y-11102684D01*
X11002672Y-11102684D02*
X10983624Y-11093160D01*
X10983624Y-11093160D02*
X10974101Y-11083636D01*
X10974101Y-11083636D02*
X10964577Y-11064589D01*
X10964577Y-11064589D02*
X10955053Y-11026493D01*
X10955053Y-11026493D02*
X10955053Y-10978874D01*
X10955053Y-10978874D02*
X10964577Y-10940779D01*
X10964577Y-10940779D02*
X10974101Y-10921731D01*
X10974101Y-10921731D02*
X10983624Y-10912208D01*
X10983624Y-10912208D02*
X11002672Y-10902684D01*
X11155053Y-11083636D02*
X11164577Y-11093160D01*
X11164577Y-11093160D02*
X11155053Y-11102684D01*
X11155053Y-11102684D02*
X11145529Y-11093160D01*
X11145529Y-11093160D02*
X11155053Y-11083636D01*
X11155053Y-11083636D02*
X11155053Y-11102684D01*
X11336005Y-10902684D02*
X11297910Y-10902684D01*
X11297910Y-10902684D02*
X11278862Y-10912208D01*
X11278862Y-10912208D02*
X11269339Y-10921731D01*
X11269339Y-10921731D02*
X11250291Y-10950303D01*
X11250291Y-10950303D02*
X11240767Y-10988398D01*
X11240767Y-10988398D02*
X11240767Y-11064589D01*
X11240767Y-11064589D02*
X11250291Y-11083636D01*
X11250291Y-11083636D02*
X11259815Y-11093160D01*
X11259815Y-11093160D02*
X11278862Y-11102684D01*
X11278862Y-11102684D02*
X11316958Y-11102684D01*
X11316958Y-11102684D02*
X11336005Y-11093160D01*
X11336005Y-11093160D02*
X11345529Y-11083636D01*
X11345529Y-11083636D02*
X11355053Y-11064589D01*
X11355053Y-11064589D02*
X11355053Y-11016970D01*
X11355053Y-11016970D02*
X11345529Y-10997922D01*
X11345529Y-10997922D02*
X11336005Y-10988398D01*
X11336005Y-10988398D02*
X11316958Y-10978874D01*
X11316958Y-10978874D02*
X11278862Y-10978874D01*
X11278862Y-10978874D02*
X11259815Y-10988398D01*
X11259815Y-10988398D02*
X11250291Y-10997922D01*
X11250291Y-10997922D02*
X11240767Y-11016970D01*
X11478862Y-10902684D02*
X11497910Y-10902684D01*
X11497910Y-10902684D02*
X11516958Y-10912208D01*
X11516958Y-10912208D02*
X11526482Y-10921731D01*
X11526482Y-10921731D02*
X11536005Y-10940779D01*
X11536005Y-10940779D02*
X11545529Y-10978874D01*
X11545529Y-10978874D02*
X11545529Y-11026493D01*
X11545529Y-11026493D02*
X11536005Y-11064589D01*
X11536005Y-11064589D02*
X11526482Y-11083636D01*
X11526482Y-11083636D02*
X11516958Y-11093160D01*
X11516958Y-11093160D02*
X11497910Y-11102684D01*
X11497910Y-11102684D02*
X11478862Y-11102684D01*
X11478862Y-11102684D02*
X11459815Y-11093160D01*
X11459815Y-11093160D02*
X11450291Y-11083636D01*
X11450291Y-11083636D02*
X11440767Y-11064589D01*
X11440767Y-11064589D02*
X11431243Y-11026493D01*
X11431243Y-11026493D02*
X11431243Y-10978874D01*
X11431243Y-10978874D02*
X11440767Y-10940779D01*
X11440767Y-10940779D02*
X11450291Y-10921731D01*
X11450291Y-10921731D02*
X11459815Y-10912208D01*
X11459815Y-10912208D02*
X11478862Y-10902684D01*
X11669339Y-10902684D02*
X11688386Y-10902684D01*
X11688386Y-10902684D02*
X11707434Y-10912208D01*
X11707434Y-10912208D02*
X11716958Y-10921731D01*
X11716958Y-10921731D02*
X11726482Y-10940779D01*
X11726482Y-10940779D02*
X11736005Y-10978874D01*
X11736005Y-10978874D02*
X11736005Y-11026493D01*
X11736005Y-11026493D02*
X11726482Y-11064589D01*
X11726482Y-11064589D02*
X11716958Y-11083636D01*
X11716958Y-11083636D02*
X11707434Y-11093160D01*
X11707434Y-11093160D02*
X11688386Y-11102684D01*
X11688386Y-11102684D02*
X11669339Y-11102684D01*
X11669339Y-11102684D02*
X11650291Y-11093160D01*
X11650291Y-11093160D02*
X11640767Y-11083636D01*
X11640767Y-11083636D02*
X11631243Y-11064589D01*
X11631243Y-11064589D02*
X11621720Y-11026493D01*
X11621720Y-11026493D02*
X11621720Y-10978874D01*
X11621720Y-10978874D02*
X11631243Y-10940779D01*
X11631243Y-10940779D02*
X11640767Y-10921731D01*
X11640767Y-10921731D02*
X11650291Y-10912208D01*
X11650291Y-10912208D02*
X11669339Y-10902684D01*
X11821720Y-11102684D02*
X11821720Y-10969350D01*
X11821720Y-10988398D02*
X11831243Y-10978874D01*
X11831243Y-10978874D02*
X11850291Y-10969350D01*
X11850291Y-10969350D02*
X11878863Y-10969350D01*
X11878863Y-10969350D02*
X11897910Y-10978874D01*
X11897910Y-10978874D02*
X11907434Y-10997922D01*
X11907434Y-10997922D02*
X11907434Y-11102684D01*
X11907434Y-10997922D02*
X11916958Y-10978874D01*
X11916958Y-10978874D02*
X11936005Y-10969350D01*
X11936005Y-10969350D02*
X11964577Y-10969350D01*
X11964577Y-10969350D02*
X11983624Y-10978874D01*
X11983624Y-10978874D02*
X11993148Y-10997922D01*
X11993148Y-10997922D02*
X11993148Y-11102684D01*
X12088386Y-11102684D02*
X12088386Y-10969350D01*
X12088386Y-10988398D02*
X12097910Y-10978874D01*
X12097910Y-10978874D02*
X12116958Y-10969350D01*
X12116958Y-10969350D02*
X12145529Y-10969350D01*
X12145529Y-10969350D02*
X12164577Y-10978874D01*
X12164577Y-10978874D02*
X12174101Y-10997922D01*
X12174101Y-10997922D02*
X12174101Y-11102684D01*
X12174101Y-10997922D02*
X12183624Y-10978874D01*
X12183624Y-10978874D02*
X12202672Y-10969350D01*
X12202672Y-10969350D02*
X12231243Y-10969350D01*
X12231243Y-10969350D02*
X12250291Y-10978874D01*
X12250291Y-10978874D02*
X12259815Y-10997922D01*
X12259815Y-10997922D02*
X12259815Y-11102684D01*
X12650291Y-10893160D02*
X12478863Y-11150303D01*
X12907434Y-10902684D02*
X12926482Y-10902684D01*
X12926482Y-10902684D02*
X12945529Y-10912208D01*
X12945529Y-10912208D02*
X12955053Y-10921731D01*
X12955053Y-10921731D02*
X12964577Y-10940779D01*
X12964577Y-10940779D02*
X12974101Y-10978874D01*
X12974101Y-10978874D02*
X12974101Y-11026493D01*
X12974101Y-11026493D02*
X12964577Y-11064589D01*
X12964577Y-11064589D02*
X12955053Y-11083636D01*
X12955053Y-11083636D02*
X12945529Y-11093160D01*
X12945529Y-11093160D02*
X12926482Y-11102684D01*
X12926482Y-11102684D02*
X12907434Y-11102684D01*
X12907434Y-11102684D02*
X12888386Y-11093160D01*
X12888386Y-11093160D02*
X12878863Y-11083636D01*
X12878863Y-11083636D02*
X12869339Y-11064589D01*
X12869339Y-11064589D02*
X12859815Y-11026493D01*
X12859815Y-11026493D02*
X12859815Y-10978874D01*
X12859815Y-10978874D02*
X12869339Y-10940779D01*
X12869339Y-10940779D02*
X12878863Y-10921731D01*
X12878863Y-10921731D02*
X12888386Y-10912208D01*
X12888386Y-10912208D02*
X12907434Y-10902684D01*
X13059815Y-11083636D02*
X13069339Y-11093160D01*
X13069339Y-11093160D02*
X13059815Y-11102684D01*
X13059815Y-11102684D02*
X13050291Y-11093160D01*
X13050291Y-11093160D02*
X13059815Y-11083636D01*
X13059815Y-11083636D02*
X13059815Y-11102684D01*
X13193148Y-10902684D02*
X13212196Y-10902684D01*
X13212196Y-10902684D02*
X13231244Y-10912208D01*
X13231244Y-10912208D02*
X13240767Y-10921731D01*
X13240767Y-10921731D02*
X13250291Y-10940779D01*
X13250291Y-10940779D02*
X13259815Y-10978874D01*
X13259815Y-10978874D02*
X13259815Y-11026493D01*
X13259815Y-11026493D02*
X13250291Y-11064589D01*
X13250291Y-11064589D02*
X13240767Y-11083636D01*
X13240767Y-11083636D02*
X13231244Y-11093160D01*
X13231244Y-11093160D02*
X13212196Y-11102684D01*
X13212196Y-11102684D02*
X13193148Y-11102684D01*
X13193148Y-11102684D02*
X13174101Y-11093160D01*
X13174101Y-11093160D02*
X13164577Y-11083636D01*
X13164577Y-11083636D02*
X13155053Y-11064589D01*
X13155053Y-11064589D02*
X13145529Y-11026493D01*
X13145529Y-11026493D02*
X13145529Y-10978874D01*
X13145529Y-10978874D02*
X13155053Y-10940779D01*
X13155053Y-10940779D02*
X13164577Y-10921731D01*
X13164577Y-10921731D02*
X13174101Y-10912208D01*
X13174101Y-10912208D02*
X13193148Y-10902684D01*
X13336006Y-10921731D02*
X13345529Y-10912208D01*
X13345529Y-10912208D02*
X13364577Y-10902684D01*
X13364577Y-10902684D02*
X13412196Y-10902684D01*
X13412196Y-10902684D02*
X13431244Y-10912208D01*
X13431244Y-10912208D02*
X13440767Y-10921731D01*
X13440767Y-10921731D02*
X13450291Y-10940779D01*
X13450291Y-10940779D02*
X13450291Y-10959827D01*
X13450291Y-10959827D02*
X13440767Y-10988398D01*
X13440767Y-10988398D02*
X13326482Y-11102684D01*
X13326482Y-11102684D02*
X13450291Y-11102684D01*
X13516958Y-10902684D02*
X13640767Y-10902684D01*
X13640767Y-10902684D02*
X13574101Y-10978874D01*
X13574101Y-10978874D02*
X13602672Y-10978874D01*
X13602672Y-10978874D02*
X13621720Y-10988398D01*
X13621720Y-10988398D02*
X13631244Y-10997922D01*
X13631244Y-10997922D02*
X13640767Y-11016970D01*
X13640767Y-11016970D02*
X13640767Y-11064589D01*
X13640767Y-11064589D02*
X13631244Y-11083636D01*
X13631244Y-11083636D02*
X13621720Y-11093160D01*
X13621720Y-11093160D02*
X13602672Y-11102684D01*
X13602672Y-11102684D02*
X13545529Y-11102684D01*
X13545529Y-11102684D02*
X13526482Y-11093160D01*
X13526482Y-11093160D02*
X13516958Y-11083636D01*
X13812196Y-10902684D02*
X13774101Y-10902684D01*
X13774101Y-10902684D02*
X13755053Y-10912208D01*
X13755053Y-10912208D02*
X13745529Y-10921731D01*
X13745529Y-10921731D02*
X13726482Y-10950303D01*
X13726482Y-10950303D02*
X13716958Y-10988398D01*
X13716958Y-10988398D02*
X13716958Y-11064589D01*
X13716958Y-11064589D02*
X13726482Y-11083636D01*
X13726482Y-11083636D02*
X13736006Y-11093160D01*
X13736006Y-11093160D02*
X13755053Y-11102684D01*
X13755053Y-11102684D02*
X13793148Y-11102684D01*
X13793148Y-11102684D02*
X13812196Y-11093160D01*
X13812196Y-11093160D02*
X13821720Y-11083636D01*
X13821720Y-11083636D02*
X13831244Y-11064589D01*
X13831244Y-11064589D02*
X13831244Y-11016970D01*
X13831244Y-11016970D02*
X13821720Y-10997922D01*
X13821720Y-10997922D02*
X13812196Y-10988398D01*
X13812196Y-10988398D02*
X13793148Y-10978874D01*
X13793148Y-10978874D02*
X13755053Y-10978874D01*
X13755053Y-10978874D02*
X13736006Y-10988398D01*
X13736006Y-10988398D02*
X13726482Y-10997922D01*
X13726482Y-10997922D02*
X13716958Y-11016970D01*
X13907434Y-10902684D02*
X13907434Y-10940779D01*
X13983625Y-10902684D02*
X13983625Y-10940779D01*
X14278863Y-11178874D02*
X14269339Y-11169350D01*
X14269339Y-11169350D02*
X14250291Y-11140779D01*
X14250291Y-11140779D02*
X14240768Y-11121731D01*
X14240768Y-11121731D02*
X14231244Y-11093160D01*
X14231244Y-11093160D02*
X14221720Y-11045541D01*
X14221720Y-11045541D02*
X14221720Y-11007446D01*
X14221720Y-11007446D02*
X14231244Y-10959827D01*
X14231244Y-10959827D02*
X14240768Y-10931255D01*
X14240768Y-10931255D02*
X14250291Y-10912208D01*
X14250291Y-10912208D02*
X14269339Y-10883636D01*
X14269339Y-10883636D02*
X14278863Y-10874112D01*
X14393148Y-10902684D02*
X14412196Y-10902684D01*
X14412196Y-10902684D02*
X14431244Y-10912208D01*
X14431244Y-10912208D02*
X14440768Y-10921731D01*
X14440768Y-10921731D02*
X14450291Y-10940779D01*
X14450291Y-10940779D02*
X14459815Y-10978874D01*
X14459815Y-10978874D02*
X14459815Y-11026493D01*
X14459815Y-11026493D02*
X14450291Y-11064589D01*
X14450291Y-11064589D02*
X14440768Y-11083636D01*
X14440768Y-11083636D02*
X14431244Y-11093160D01*
X14431244Y-11093160D02*
X14412196Y-11102684D01*
X14412196Y-11102684D02*
X14393148Y-11102684D01*
X14393148Y-11102684D02*
X14374101Y-11093160D01*
X14374101Y-11093160D02*
X14364577Y-11083636D01*
X14364577Y-11083636D02*
X14355053Y-11064589D01*
X14355053Y-11064589D02*
X14345529Y-11026493D01*
X14345529Y-11026493D02*
X14345529Y-10978874D01*
X14345529Y-10978874D02*
X14355053Y-10940779D01*
X14355053Y-10940779D02*
X14364577Y-10921731D01*
X14364577Y-10921731D02*
X14374101Y-10912208D01*
X14374101Y-10912208D02*
X14393148Y-10902684D01*
X14697910Y-11102684D02*
X14697910Y-10902684D01*
X14783625Y-11102684D02*
X14783625Y-10997922D01*
X14783625Y-10997922D02*
X14774101Y-10978874D01*
X14774101Y-10978874D02*
X14755053Y-10969350D01*
X14755053Y-10969350D02*
X14726482Y-10969350D01*
X14726482Y-10969350D02*
X14707434Y-10978874D01*
X14707434Y-10978874D02*
X14697910Y-10988398D01*
X14907434Y-11102684D02*
X14888387Y-11093160D01*
X14888387Y-11093160D02*
X14878863Y-11083636D01*
X14878863Y-11083636D02*
X14869339Y-11064589D01*
X14869339Y-11064589D02*
X14869339Y-11007446D01*
X14869339Y-11007446D02*
X14878863Y-10988398D01*
X14878863Y-10988398D02*
X14888387Y-10978874D01*
X14888387Y-10978874D02*
X14907434Y-10969350D01*
X14907434Y-10969350D02*
X14936006Y-10969350D01*
X14936006Y-10969350D02*
X14955053Y-10978874D01*
X14955053Y-10978874D02*
X14964577Y-10988398D01*
X14964577Y-10988398D02*
X14974101Y-11007446D01*
X14974101Y-11007446D02*
X14974101Y-11064589D01*
X14974101Y-11064589D02*
X14964577Y-11083636D01*
X14964577Y-11083636D02*
X14955053Y-11093160D01*
X14955053Y-11093160D02*
X14936006Y-11102684D01*
X14936006Y-11102684D02*
X14907434Y-11102684D01*
X15088387Y-11102684D02*
X15069339Y-11093160D01*
X15069339Y-11093160D02*
X15059815Y-11074112D01*
X15059815Y-11074112D02*
X15059815Y-10902684D01*
X15240768Y-11093160D02*
X15221720Y-11102684D01*
X15221720Y-11102684D02*
X15183625Y-11102684D01*
X15183625Y-11102684D02*
X15164577Y-11093160D01*
X15164577Y-11093160D02*
X15155053Y-11074112D01*
X15155053Y-11074112D02*
X15155053Y-10997922D01*
X15155053Y-10997922D02*
X15164577Y-10978874D01*
X15164577Y-10978874D02*
X15183625Y-10969350D01*
X15183625Y-10969350D02*
X15221720Y-10969350D01*
X15221720Y-10969350D02*
X15240768Y-10978874D01*
X15240768Y-10978874D02*
X15250291Y-10997922D01*
X15250291Y-10997922D02*
X15250291Y-11016970D01*
X15250291Y-11016970D02*
X15155053Y-11036017D01*
X15326482Y-11093160D02*
X15345530Y-11102684D01*
X15345530Y-11102684D02*
X15383625Y-11102684D01*
X15383625Y-11102684D02*
X15402672Y-11093160D01*
X15402672Y-11093160D02*
X15412196Y-11074112D01*
X15412196Y-11074112D02*
X15412196Y-11064589D01*
X15412196Y-11064589D02*
X15402672Y-11045541D01*
X15402672Y-11045541D02*
X15383625Y-11036017D01*
X15383625Y-11036017D02*
X15355053Y-11036017D01*
X15355053Y-11036017D02*
X15336006Y-11026493D01*
X15336006Y-11026493D02*
X15326482Y-11007446D01*
X15326482Y-11007446D02*
X15326482Y-10997922D01*
X15326482Y-10997922D02*
X15336006Y-10978874D01*
X15336006Y-10978874D02*
X15355053Y-10969350D01*
X15355053Y-10969350D02*
X15383625Y-10969350D01*
X15383625Y-10969350D02*
X15402672Y-10978874D01*
X15650292Y-11026493D02*
X15802673Y-11026493D01*
X15726482Y-11102684D02*
X15726482Y-10950303D01*
X16136006Y-10969350D02*
X16136006Y-11102684D01*
X16088387Y-10893160D02*
X16040768Y-11036017D01*
X16040768Y-11036017D02*
X16164577Y-11036017D01*
X16383625Y-11093160D02*
X16402673Y-11102684D01*
X16402673Y-11102684D02*
X16440768Y-11102684D01*
X16440768Y-11102684D02*
X16459815Y-11093160D01*
X16459815Y-11093160D02*
X16469339Y-11074112D01*
X16469339Y-11074112D02*
X16469339Y-11064589D01*
X16469339Y-11064589D02*
X16459815Y-11045541D01*
X16459815Y-11045541D02*
X16440768Y-11036017D01*
X16440768Y-11036017D02*
X16412196Y-11036017D01*
X16412196Y-11036017D02*
X16393149Y-11026493D01*
X16393149Y-11026493D02*
X16383625Y-11007446D01*
X16383625Y-11007446D02*
X16383625Y-10997922D01*
X16383625Y-10997922D02*
X16393149Y-10978874D01*
X16393149Y-10978874D02*
X16412196Y-10969350D01*
X16412196Y-10969350D02*
X16440768Y-10969350D01*
X16440768Y-10969350D02*
X16459815Y-10978874D01*
X16583625Y-11102684D02*
X16564577Y-11093160D01*
X16564577Y-11093160D02*
X16555054Y-11074112D01*
X16555054Y-11074112D02*
X16555054Y-10902684D01*
X16688387Y-11102684D02*
X16669339Y-11093160D01*
X16669339Y-11093160D02*
X16659815Y-11083636D01*
X16659815Y-11083636D02*
X16650292Y-11064589D01*
X16650292Y-11064589D02*
X16650292Y-11007446D01*
X16650292Y-11007446D02*
X16659815Y-10988398D01*
X16659815Y-10988398D02*
X16669339Y-10978874D01*
X16669339Y-10978874D02*
X16688387Y-10969350D01*
X16688387Y-10969350D02*
X16716958Y-10969350D01*
X16716958Y-10969350D02*
X16736006Y-10978874D01*
X16736006Y-10978874D02*
X16745530Y-10988398D01*
X16745530Y-10988398D02*
X16755054Y-11007446D01*
X16755054Y-11007446D02*
X16755054Y-11064589D01*
X16755054Y-11064589D02*
X16745530Y-11083636D01*
X16745530Y-11083636D02*
X16736006Y-11093160D01*
X16736006Y-11093160D02*
X16716958Y-11102684D01*
X16716958Y-11102684D02*
X16688387Y-11102684D01*
X16812197Y-10969350D02*
X16888387Y-10969350D01*
X16840768Y-10902684D02*
X16840768Y-11074112D01*
X16840768Y-11074112D02*
X16850292Y-11093160D01*
X16850292Y-11093160D02*
X16869339Y-11102684D01*
X16869339Y-11102684D02*
X16888387Y-11102684D01*
X16945530Y-11093160D02*
X16964577Y-11102684D01*
X16964577Y-11102684D02*
X17002673Y-11102684D01*
X17002673Y-11102684D02*
X17021720Y-11093160D01*
X17021720Y-11093160D02*
X17031244Y-11074112D01*
X17031244Y-11074112D02*
X17031244Y-11064589D01*
X17031244Y-11064589D02*
X17021720Y-11045541D01*
X17021720Y-11045541D02*
X17002673Y-11036017D01*
X17002673Y-11036017D02*
X16974101Y-11036017D01*
X16974101Y-11036017D02*
X16955054Y-11026493D01*
X16955054Y-11026493D02*
X16945530Y-11007446D01*
X16945530Y-11007446D02*
X16945530Y-10997922D01*
X16945530Y-10997922D02*
X16955054Y-10978874D01*
X16955054Y-10978874D02*
X16974101Y-10969350D01*
X16974101Y-10969350D02*
X17002673Y-10969350D01*
X17002673Y-10969350D02*
X17021720Y-10978874D01*
X17097911Y-11178874D02*
X17107435Y-11169350D01*
X17107435Y-11169350D02*
X17126482Y-11140779D01*
X17126482Y-11140779D02*
X17136006Y-11121731D01*
X17136006Y-11121731D02*
X17145530Y-11093160D01*
X17145530Y-11093160D02*
X17155054Y-11045541D01*
X17155054Y-11045541D02*
X17155054Y-11007446D01*
X17155054Y-11007446D02*
X17145530Y-10959827D01*
X17145530Y-10959827D02*
X17136006Y-10931255D01*
X17136006Y-10931255D02*
X17126482Y-10912208D01*
X17126482Y-10912208D02*
X17107435Y-10883636D01*
X17107435Y-10883636D02*
X17097911Y-10874112D01*
D12*
X10693549Y-11299949D02*
X10693549Y-11250451D01*
X10644051Y-11250451D01*
X10644051Y-11299949D01*
X10693549Y-11299949D01*
D11*
X11002672Y-11166684D02*
X11021720Y-11166684D01*
X11021720Y-11166684D02*
X11040767Y-11176208D01*
X11040767Y-11176208D02*
X11050291Y-11185731D01*
X11050291Y-11185731D02*
X11059815Y-11204779D01*
X11059815Y-11204779D02*
X11069339Y-11242874D01*
X11069339Y-11242874D02*
X11069339Y-11290493D01*
X11069339Y-11290493D02*
X11059815Y-11328588D01*
X11059815Y-11328588D02*
X11050291Y-11347636D01*
X11050291Y-11347636D02*
X11040767Y-11357160D01*
X11040767Y-11357160D02*
X11021720Y-11366684D01*
X11021720Y-11366684D02*
X11002672Y-11366684D01*
X11002672Y-11366684D02*
X10983624Y-11357160D01*
X10983624Y-11357160D02*
X10974101Y-11347636D01*
X10974101Y-11347636D02*
X10964577Y-11328588D01*
X10964577Y-11328588D02*
X10955053Y-11290493D01*
X10955053Y-11290493D02*
X10955053Y-11242874D01*
X10955053Y-11242874D02*
X10964577Y-11204779D01*
X10964577Y-11204779D02*
X10974101Y-11185731D01*
X10974101Y-11185731D02*
X10983624Y-11176208D01*
X10983624Y-11176208D02*
X11002672Y-11166684D01*
X11155053Y-11347636D02*
X11164577Y-11357160D01*
X11164577Y-11357160D02*
X11155053Y-11366684D01*
X11155053Y-11366684D02*
X11145529Y-11357160D01*
X11145529Y-11357160D02*
X11155053Y-11347636D01*
X11155053Y-11347636D02*
X11155053Y-11366684D01*
X11231243Y-11166684D02*
X11364577Y-11166684D01*
X11364577Y-11166684D02*
X11278862Y-11366684D01*
X11478862Y-11166684D02*
X11497910Y-11166684D01*
X11497910Y-11166684D02*
X11516958Y-11176208D01*
X11516958Y-11176208D02*
X11526482Y-11185731D01*
X11526482Y-11185731D02*
X11536005Y-11204779D01*
X11536005Y-11204779D02*
X11545529Y-11242874D01*
X11545529Y-11242874D02*
X11545529Y-11290493D01*
X11545529Y-11290493D02*
X11536005Y-11328588D01*
X11536005Y-11328588D02*
X11526482Y-11347636D01*
X11526482Y-11347636D02*
X11516958Y-11357160D01*
X11516958Y-11357160D02*
X11497910Y-11366684D01*
X11497910Y-11366684D02*
X11478862Y-11366684D01*
X11478862Y-11366684D02*
X11459815Y-11357160D01*
X11459815Y-11357160D02*
X11450291Y-11347636D01*
X11450291Y-11347636D02*
X11440767Y-11328588D01*
X11440767Y-11328588D02*
X11431243Y-11290493D01*
X11431243Y-11290493D02*
X11431243Y-11242874D01*
X11431243Y-11242874D02*
X11440767Y-11204779D01*
X11440767Y-11204779D02*
X11450291Y-11185731D01*
X11450291Y-11185731D02*
X11459815Y-11176208D01*
X11459815Y-11176208D02*
X11478862Y-11166684D01*
X11669339Y-11166684D02*
X11688386Y-11166684D01*
X11688386Y-11166684D02*
X11707434Y-11176208D01*
X11707434Y-11176208D02*
X11716958Y-11185731D01*
X11716958Y-11185731D02*
X11726482Y-11204779D01*
X11726482Y-11204779D02*
X11736005Y-11242874D01*
X11736005Y-11242874D02*
X11736005Y-11290493D01*
X11736005Y-11290493D02*
X11726482Y-11328588D01*
X11726482Y-11328588D02*
X11716958Y-11347636D01*
X11716958Y-11347636D02*
X11707434Y-11357160D01*
X11707434Y-11357160D02*
X11688386Y-11366684D01*
X11688386Y-11366684D02*
X11669339Y-11366684D01*
X11669339Y-11366684D02*
X11650291Y-11357160D01*
X11650291Y-11357160D02*
X11640767Y-11347636D01*
X11640767Y-11347636D02*
X11631243Y-11328588D01*
X11631243Y-11328588D02*
X11621720Y-11290493D01*
X11621720Y-11290493D02*
X11621720Y-11242874D01*
X11621720Y-11242874D02*
X11631243Y-11204779D01*
X11631243Y-11204779D02*
X11640767Y-11185731D01*
X11640767Y-11185731D02*
X11650291Y-11176208D01*
X11650291Y-11176208D02*
X11669339Y-11166684D01*
X11821720Y-11366684D02*
X11821720Y-11233350D01*
X11821720Y-11252398D02*
X11831243Y-11242874D01*
X11831243Y-11242874D02*
X11850291Y-11233350D01*
X11850291Y-11233350D02*
X11878863Y-11233350D01*
X11878863Y-11233350D02*
X11897910Y-11242874D01*
X11897910Y-11242874D02*
X11907434Y-11261922D01*
X11907434Y-11261922D02*
X11907434Y-11366684D01*
X11907434Y-11261922D02*
X11916958Y-11242874D01*
X11916958Y-11242874D02*
X11936005Y-11233350D01*
X11936005Y-11233350D02*
X11964577Y-11233350D01*
X11964577Y-11233350D02*
X11983624Y-11242874D01*
X11983624Y-11242874D02*
X11993148Y-11261922D01*
X11993148Y-11261922D02*
X11993148Y-11366684D01*
X12088386Y-11366684D02*
X12088386Y-11233350D01*
X12088386Y-11252398D02*
X12097910Y-11242874D01*
X12097910Y-11242874D02*
X12116958Y-11233350D01*
X12116958Y-11233350D02*
X12145529Y-11233350D01*
X12145529Y-11233350D02*
X12164577Y-11242874D01*
X12164577Y-11242874D02*
X12174101Y-11261922D01*
X12174101Y-11261922D02*
X12174101Y-11366684D01*
X12174101Y-11261922D02*
X12183624Y-11242874D01*
X12183624Y-11242874D02*
X12202672Y-11233350D01*
X12202672Y-11233350D02*
X12231243Y-11233350D01*
X12231243Y-11233350D02*
X12250291Y-11242874D01*
X12250291Y-11242874D02*
X12259815Y-11261922D01*
X12259815Y-11261922D02*
X12259815Y-11366684D01*
X12650291Y-11157160D02*
X12478863Y-11414303D01*
X12907434Y-11166684D02*
X12926482Y-11166684D01*
X12926482Y-11166684D02*
X12945529Y-11176208D01*
X12945529Y-11176208D02*
X12955053Y-11185731D01*
X12955053Y-11185731D02*
X12964577Y-11204779D01*
X12964577Y-11204779D02*
X12974101Y-11242874D01*
X12974101Y-11242874D02*
X12974101Y-11290493D01*
X12974101Y-11290493D02*
X12964577Y-11328588D01*
X12964577Y-11328588D02*
X12955053Y-11347636D01*
X12955053Y-11347636D02*
X12945529Y-11357160D01*
X12945529Y-11357160D02*
X12926482Y-11366684D01*
X12926482Y-11366684D02*
X12907434Y-11366684D01*
X12907434Y-11366684D02*
X12888386Y-11357160D01*
X12888386Y-11357160D02*
X12878863Y-11347636D01*
X12878863Y-11347636D02*
X12869339Y-11328588D01*
X12869339Y-11328588D02*
X12859815Y-11290493D01*
X12859815Y-11290493D02*
X12859815Y-11242874D01*
X12859815Y-11242874D02*
X12869339Y-11204779D01*
X12869339Y-11204779D02*
X12878863Y-11185731D01*
X12878863Y-11185731D02*
X12888386Y-11176208D01*
X12888386Y-11176208D02*
X12907434Y-11166684D01*
X13059815Y-11347636D02*
X13069339Y-11357160D01*
X13069339Y-11357160D02*
X13059815Y-11366684D01*
X13059815Y-11366684D02*
X13050291Y-11357160D01*
X13050291Y-11357160D02*
X13059815Y-11347636D01*
X13059815Y-11347636D02*
X13059815Y-11366684D01*
X13193148Y-11166684D02*
X13212196Y-11166684D01*
X13212196Y-11166684D02*
X13231244Y-11176208D01*
X13231244Y-11176208D02*
X13240767Y-11185731D01*
X13240767Y-11185731D02*
X13250291Y-11204779D01*
X13250291Y-11204779D02*
X13259815Y-11242874D01*
X13259815Y-11242874D02*
X13259815Y-11290493D01*
X13259815Y-11290493D02*
X13250291Y-11328588D01*
X13250291Y-11328588D02*
X13240767Y-11347636D01*
X13240767Y-11347636D02*
X13231244Y-11357160D01*
X13231244Y-11357160D02*
X13212196Y-11366684D01*
X13212196Y-11366684D02*
X13193148Y-11366684D01*
X13193148Y-11366684D02*
X13174101Y-11357160D01*
X13174101Y-11357160D02*
X13164577Y-11347636D01*
X13164577Y-11347636D02*
X13155053Y-11328588D01*
X13155053Y-11328588D02*
X13145529Y-11290493D01*
X13145529Y-11290493D02*
X13145529Y-11242874D01*
X13145529Y-11242874D02*
X13155053Y-11204779D01*
X13155053Y-11204779D02*
X13164577Y-11185731D01*
X13164577Y-11185731D02*
X13174101Y-11176208D01*
X13174101Y-11176208D02*
X13193148Y-11166684D01*
X13336006Y-11185731D02*
X13345529Y-11176208D01*
X13345529Y-11176208D02*
X13364577Y-11166684D01*
X13364577Y-11166684D02*
X13412196Y-11166684D01*
X13412196Y-11166684D02*
X13431244Y-11176208D01*
X13431244Y-11176208D02*
X13440767Y-11185731D01*
X13440767Y-11185731D02*
X13450291Y-11204779D01*
X13450291Y-11204779D02*
X13450291Y-11223827D01*
X13450291Y-11223827D02*
X13440767Y-11252398D01*
X13440767Y-11252398D02*
X13326482Y-11366684D01*
X13326482Y-11366684D02*
X13450291Y-11366684D01*
X13516958Y-11166684D02*
X13650291Y-11166684D01*
X13650291Y-11166684D02*
X13564577Y-11366684D01*
X13812196Y-11166684D02*
X13774101Y-11166684D01*
X13774101Y-11166684D02*
X13755053Y-11176208D01*
X13755053Y-11176208D02*
X13745529Y-11185731D01*
X13745529Y-11185731D02*
X13726482Y-11214303D01*
X13726482Y-11214303D02*
X13716958Y-11252398D01*
X13716958Y-11252398D02*
X13716958Y-11328588D01*
X13716958Y-11328588D02*
X13726482Y-11347636D01*
X13726482Y-11347636D02*
X13736006Y-11357160D01*
X13736006Y-11357160D02*
X13755053Y-11366684D01*
X13755053Y-11366684D02*
X13793148Y-11366684D01*
X13793148Y-11366684D02*
X13812196Y-11357160D01*
X13812196Y-11357160D02*
X13821720Y-11347636D01*
X13821720Y-11347636D02*
X13831244Y-11328588D01*
X13831244Y-11328588D02*
X13831244Y-11280969D01*
X13831244Y-11280969D02*
X13821720Y-11261922D01*
X13821720Y-11261922D02*
X13812196Y-11252398D01*
X13812196Y-11252398D02*
X13793148Y-11242874D01*
X13793148Y-11242874D02*
X13755053Y-11242874D01*
X13755053Y-11242874D02*
X13736006Y-11252398D01*
X13736006Y-11252398D02*
X13726482Y-11261922D01*
X13726482Y-11261922D02*
X13716958Y-11280969D01*
X13907434Y-11166684D02*
X13907434Y-11204779D01*
X13983625Y-11166684D02*
X13983625Y-11204779D01*
X14278863Y-11442874D02*
X14269339Y-11433350D01*
X14269339Y-11433350D02*
X14250291Y-11404779D01*
X14250291Y-11404779D02*
X14240768Y-11385731D01*
X14240768Y-11385731D02*
X14231244Y-11357160D01*
X14231244Y-11357160D02*
X14221720Y-11309541D01*
X14221720Y-11309541D02*
X14221720Y-11271446D01*
X14221720Y-11271446D02*
X14231244Y-11223827D01*
X14231244Y-11223827D02*
X14240768Y-11195255D01*
X14240768Y-11195255D02*
X14250291Y-11176208D01*
X14250291Y-11176208D02*
X14269339Y-11147636D01*
X14269339Y-11147636D02*
X14278863Y-11138112D01*
X14440768Y-11233350D02*
X14440768Y-11366684D01*
X14393148Y-11157160D02*
X14345529Y-11300017D01*
X14345529Y-11300017D02*
X14469339Y-11300017D01*
X14697910Y-11366684D02*
X14697910Y-11166684D01*
X14783625Y-11366684D02*
X14783625Y-11261922D01*
X14783625Y-11261922D02*
X14774101Y-11242874D01*
X14774101Y-11242874D02*
X14755053Y-11233350D01*
X14755053Y-11233350D02*
X14726482Y-11233350D01*
X14726482Y-11233350D02*
X14707434Y-11242874D01*
X14707434Y-11242874D02*
X14697910Y-11252398D01*
X14907434Y-11366684D02*
X14888387Y-11357160D01*
X14888387Y-11357160D02*
X14878863Y-11347636D01*
X14878863Y-11347636D02*
X14869339Y-11328588D01*
X14869339Y-11328588D02*
X14869339Y-11271446D01*
X14869339Y-11271446D02*
X14878863Y-11252398D01*
X14878863Y-11252398D02*
X14888387Y-11242874D01*
X14888387Y-11242874D02*
X14907434Y-11233350D01*
X14907434Y-11233350D02*
X14936006Y-11233350D01*
X14936006Y-11233350D02*
X14955053Y-11242874D01*
X14955053Y-11242874D02*
X14964577Y-11252398D01*
X14964577Y-11252398D02*
X14974101Y-11271446D01*
X14974101Y-11271446D02*
X14974101Y-11328588D01*
X14974101Y-11328588D02*
X14964577Y-11347636D01*
X14964577Y-11347636D02*
X14955053Y-11357160D01*
X14955053Y-11357160D02*
X14936006Y-11366684D01*
X14936006Y-11366684D02*
X14907434Y-11366684D01*
X15088387Y-11366684D02*
X15069339Y-11357160D01*
X15069339Y-11357160D02*
X15059815Y-11338112D01*
X15059815Y-11338112D02*
X15059815Y-11166684D01*
X15240768Y-11357160D02*
X15221720Y-11366684D01*
X15221720Y-11366684D02*
X15183625Y-11366684D01*
X15183625Y-11366684D02*
X15164577Y-11357160D01*
X15164577Y-11357160D02*
X15155053Y-11338112D01*
X15155053Y-11338112D02*
X15155053Y-11261922D01*
X15155053Y-11261922D02*
X15164577Y-11242874D01*
X15164577Y-11242874D02*
X15183625Y-11233350D01*
X15183625Y-11233350D02*
X15221720Y-11233350D01*
X15221720Y-11233350D02*
X15240768Y-11242874D01*
X15240768Y-11242874D02*
X15250291Y-11261922D01*
X15250291Y-11261922D02*
X15250291Y-11280969D01*
X15250291Y-11280969D02*
X15155053Y-11300017D01*
X15326482Y-11357160D02*
X15345530Y-11366684D01*
X15345530Y-11366684D02*
X15383625Y-11366684D01*
X15383625Y-11366684D02*
X15402672Y-11357160D01*
X15402672Y-11357160D02*
X15412196Y-11338112D01*
X15412196Y-11338112D02*
X15412196Y-11328588D01*
X15412196Y-11328588D02*
X15402672Y-11309541D01*
X15402672Y-11309541D02*
X15383625Y-11300017D01*
X15383625Y-11300017D02*
X15355053Y-11300017D01*
X15355053Y-11300017D02*
X15336006Y-11290493D01*
X15336006Y-11290493D02*
X15326482Y-11271446D01*
X15326482Y-11271446D02*
X15326482Y-11261922D01*
X15326482Y-11261922D02*
X15336006Y-11242874D01*
X15336006Y-11242874D02*
X15355053Y-11233350D01*
X15355053Y-11233350D02*
X15383625Y-11233350D01*
X15383625Y-11233350D02*
X15402672Y-11242874D01*
X15478863Y-11442874D02*
X15488387Y-11433350D01*
X15488387Y-11433350D02*
X15507434Y-11404779D01*
X15507434Y-11404779D02*
X15516958Y-11385731D01*
X15516958Y-11385731D02*
X15526482Y-11357160D01*
X15526482Y-11357160D02*
X15536006Y-11309541D01*
X15536006Y-11309541D02*
X15536006Y-11271446D01*
X15536006Y-11271446D02*
X15526482Y-11223827D01*
X15526482Y-11223827D02*
X15516958Y-11195255D01*
X15516958Y-11195255D02*
X15507434Y-11176208D01*
X15507434Y-11176208D02*
X15488387Y-11147636D01*
X15488387Y-11147636D02*
X15478863Y-11138112D01*
D12*
X10653800Y-11589200D02*
X10703800Y-11539200D01*
X10653800Y-11489200D01*
X10603800Y-11539200D01*
X10653800Y-11589200D01*
D11*
X11069339Y-11630684D02*
X10955053Y-11630684D01*
X11012196Y-11630684D02*
X11012196Y-11430684D01*
X11012196Y-11430684D02*
X10993148Y-11459255D01*
X10993148Y-11459255D02*
X10974101Y-11478303D01*
X10974101Y-11478303D02*
X10955053Y-11487827D01*
X11155053Y-11611636D02*
X11164577Y-11621160D01*
X11164577Y-11621160D02*
X11155053Y-11630684D01*
X11155053Y-11630684D02*
X11145529Y-11621160D01*
X11145529Y-11621160D02*
X11155053Y-11611636D01*
X11155053Y-11611636D02*
X11155053Y-11630684D01*
X11288386Y-11430684D02*
X11307434Y-11430684D01*
X11307434Y-11430684D02*
X11326482Y-11440208D01*
X11326482Y-11440208D02*
X11336005Y-11449731D01*
X11336005Y-11449731D02*
X11345529Y-11468779D01*
X11345529Y-11468779D02*
X11355053Y-11506874D01*
X11355053Y-11506874D02*
X11355053Y-11554493D01*
X11355053Y-11554493D02*
X11345529Y-11592588D01*
X11345529Y-11592588D02*
X11336005Y-11611636D01*
X11336005Y-11611636D02*
X11326482Y-11621160D01*
X11326482Y-11621160D02*
X11307434Y-11630684D01*
X11307434Y-11630684D02*
X11288386Y-11630684D01*
X11288386Y-11630684D02*
X11269339Y-11621160D01*
X11269339Y-11621160D02*
X11259815Y-11611636D01*
X11259815Y-11611636D02*
X11250291Y-11592588D01*
X11250291Y-11592588D02*
X11240767Y-11554493D01*
X11240767Y-11554493D02*
X11240767Y-11506874D01*
X11240767Y-11506874D02*
X11250291Y-11468779D01*
X11250291Y-11468779D02*
X11259815Y-11449731D01*
X11259815Y-11449731D02*
X11269339Y-11440208D01*
X11269339Y-11440208D02*
X11288386Y-11430684D01*
X11478862Y-11430684D02*
X11497910Y-11430684D01*
X11497910Y-11430684D02*
X11516958Y-11440208D01*
X11516958Y-11440208D02*
X11526482Y-11449731D01*
X11526482Y-11449731D02*
X11536005Y-11468779D01*
X11536005Y-11468779D02*
X11545529Y-11506874D01*
X11545529Y-11506874D02*
X11545529Y-11554493D01*
X11545529Y-11554493D02*
X11536005Y-11592588D01*
X11536005Y-11592588D02*
X11526482Y-11611636D01*
X11526482Y-11611636D02*
X11516958Y-11621160D01*
X11516958Y-11621160D02*
X11497910Y-11630684D01*
X11497910Y-11630684D02*
X11478862Y-11630684D01*
X11478862Y-11630684D02*
X11459815Y-11621160D01*
X11459815Y-11621160D02*
X11450291Y-11611636D01*
X11450291Y-11611636D02*
X11440767Y-11592588D01*
X11440767Y-11592588D02*
X11431243Y-11554493D01*
X11431243Y-11554493D02*
X11431243Y-11506874D01*
X11431243Y-11506874D02*
X11440767Y-11468779D01*
X11440767Y-11468779D02*
X11450291Y-11449731D01*
X11450291Y-11449731D02*
X11459815Y-11440208D01*
X11459815Y-11440208D02*
X11478862Y-11430684D01*
X11669339Y-11430684D02*
X11688386Y-11430684D01*
X11688386Y-11430684D02*
X11707434Y-11440208D01*
X11707434Y-11440208D02*
X11716958Y-11449731D01*
X11716958Y-11449731D02*
X11726482Y-11468779D01*
X11726482Y-11468779D02*
X11736005Y-11506874D01*
X11736005Y-11506874D02*
X11736005Y-11554493D01*
X11736005Y-11554493D02*
X11726482Y-11592588D01*
X11726482Y-11592588D02*
X11716958Y-11611636D01*
X11716958Y-11611636D02*
X11707434Y-11621160D01*
X11707434Y-11621160D02*
X11688386Y-11630684D01*
X11688386Y-11630684D02*
X11669339Y-11630684D01*
X11669339Y-11630684D02*
X11650291Y-11621160D01*
X11650291Y-11621160D02*
X11640767Y-11611636D01*
X11640767Y-11611636D02*
X11631243Y-11592588D01*
X11631243Y-11592588D02*
X11621720Y-11554493D01*
X11621720Y-11554493D02*
X11621720Y-11506874D01*
X11621720Y-11506874D02*
X11631243Y-11468779D01*
X11631243Y-11468779D02*
X11640767Y-11449731D01*
X11640767Y-11449731D02*
X11650291Y-11440208D01*
X11650291Y-11440208D02*
X11669339Y-11430684D01*
X11821720Y-11630684D02*
X11821720Y-11497350D01*
X11821720Y-11516398D02*
X11831243Y-11506874D01*
X11831243Y-11506874D02*
X11850291Y-11497350D01*
X11850291Y-11497350D02*
X11878863Y-11497350D01*
X11878863Y-11497350D02*
X11897910Y-11506874D01*
X11897910Y-11506874D02*
X11907434Y-11525922D01*
X11907434Y-11525922D02*
X11907434Y-11630684D01*
X11907434Y-11525922D02*
X11916958Y-11506874D01*
X11916958Y-11506874D02*
X11936005Y-11497350D01*
X11936005Y-11497350D02*
X11964577Y-11497350D01*
X11964577Y-11497350D02*
X11983624Y-11506874D01*
X11983624Y-11506874D02*
X11993148Y-11525922D01*
X11993148Y-11525922D02*
X11993148Y-11630684D01*
X12088386Y-11630684D02*
X12088386Y-11497350D01*
X12088386Y-11516398D02*
X12097910Y-11506874D01*
X12097910Y-11506874D02*
X12116958Y-11497350D01*
X12116958Y-11497350D02*
X12145529Y-11497350D01*
X12145529Y-11497350D02*
X12164577Y-11506874D01*
X12164577Y-11506874D02*
X12174101Y-11525922D01*
X12174101Y-11525922D02*
X12174101Y-11630684D01*
X12174101Y-11525922D02*
X12183624Y-11506874D01*
X12183624Y-11506874D02*
X12202672Y-11497350D01*
X12202672Y-11497350D02*
X12231243Y-11497350D01*
X12231243Y-11497350D02*
X12250291Y-11506874D01*
X12250291Y-11506874D02*
X12259815Y-11525922D01*
X12259815Y-11525922D02*
X12259815Y-11630684D01*
X12650291Y-11421160D02*
X12478863Y-11678303D01*
X12907434Y-11430684D02*
X12926482Y-11430684D01*
X12926482Y-11430684D02*
X12945529Y-11440208D01*
X12945529Y-11440208D02*
X12955053Y-11449731D01*
X12955053Y-11449731D02*
X12964577Y-11468779D01*
X12964577Y-11468779D02*
X12974101Y-11506874D01*
X12974101Y-11506874D02*
X12974101Y-11554493D01*
X12974101Y-11554493D02*
X12964577Y-11592588D01*
X12964577Y-11592588D02*
X12955053Y-11611636D01*
X12955053Y-11611636D02*
X12945529Y-11621160D01*
X12945529Y-11621160D02*
X12926482Y-11630684D01*
X12926482Y-11630684D02*
X12907434Y-11630684D01*
X12907434Y-11630684D02*
X12888386Y-11621160D01*
X12888386Y-11621160D02*
X12878863Y-11611636D01*
X12878863Y-11611636D02*
X12869339Y-11592588D01*
X12869339Y-11592588D02*
X12859815Y-11554493D01*
X12859815Y-11554493D02*
X12859815Y-11506874D01*
X12859815Y-11506874D02*
X12869339Y-11468779D01*
X12869339Y-11468779D02*
X12878863Y-11449731D01*
X12878863Y-11449731D02*
X12888386Y-11440208D01*
X12888386Y-11440208D02*
X12907434Y-11430684D01*
X13059815Y-11611636D02*
X13069339Y-11621160D01*
X13069339Y-11621160D02*
X13059815Y-11630684D01*
X13059815Y-11630684D02*
X13050291Y-11621160D01*
X13050291Y-11621160D02*
X13059815Y-11611636D01*
X13059815Y-11611636D02*
X13059815Y-11630684D01*
X13193148Y-11430684D02*
X13212196Y-11430684D01*
X13212196Y-11430684D02*
X13231244Y-11440208D01*
X13231244Y-11440208D02*
X13240767Y-11449731D01*
X13240767Y-11449731D02*
X13250291Y-11468779D01*
X13250291Y-11468779D02*
X13259815Y-11506874D01*
X13259815Y-11506874D02*
X13259815Y-11554493D01*
X13259815Y-11554493D02*
X13250291Y-11592588D01*
X13250291Y-11592588D02*
X13240767Y-11611636D01*
X13240767Y-11611636D02*
X13231244Y-11621160D01*
X13231244Y-11621160D02*
X13212196Y-11630684D01*
X13212196Y-11630684D02*
X13193148Y-11630684D01*
X13193148Y-11630684D02*
X13174101Y-11621160D01*
X13174101Y-11621160D02*
X13164577Y-11611636D01*
X13164577Y-11611636D02*
X13155053Y-11592588D01*
X13155053Y-11592588D02*
X13145529Y-11554493D01*
X13145529Y-11554493D02*
X13145529Y-11506874D01*
X13145529Y-11506874D02*
X13155053Y-11468779D01*
X13155053Y-11468779D02*
X13164577Y-11449731D01*
X13164577Y-11449731D02*
X13174101Y-11440208D01*
X13174101Y-11440208D02*
X13193148Y-11430684D01*
X13326482Y-11430684D02*
X13450291Y-11430684D01*
X13450291Y-11430684D02*
X13383625Y-11506874D01*
X13383625Y-11506874D02*
X13412196Y-11506874D01*
X13412196Y-11506874D02*
X13431244Y-11516398D01*
X13431244Y-11516398D02*
X13440767Y-11525922D01*
X13440767Y-11525922D02*
X13450291Y-11544969D01*
X13450291Y-11544969D02*
X13450291Y-11592588D01*
X13450291Y-11592588D02*
X13440767Y-11611636D01*
X13440767Y-11611636D02*
X13431244Y-11621160D01*
X13431244Y-11621160D02*
X13412196Y-11630684D01*
X13412196Y-11630684D02*
X13355053Y-11630684D01*
X13355053Y-11630684D02*
X13336006Y-11621160D01*
X13336006Y-11621160D02*
X13326482Y-11611636D01*
X13545529Y-11630684D02*
X13583625Y-11630684D01*
X13583625Y-11630684D02*
X13602672Y-11621160D01*
X13602672Y-11621160D02*
X13612196Y-11611636D01*
X13612196Y-11611636D02*
X13631244Y-11583065D01*
X13631244Y-11583065D02*
X13640767Y-11544969D01*
X13640767Y-11544969D02*
X13640767Y-11468779D01*
X13640767Y-11468779D02*
X13631244Y-11449731D01*
X13631244Y-11449731D02*
X13621720Y-11440208D01*
X13621720Y-11440208D02*
X13602672Y-11430684D01*
X13602672Y-11430684D02*
X13564577Y-11430684D01*
X13564577Y-11430684D02*
X13545529Y-11440208D01*
X13545529Y-11440208D02*
X13536006Y-11449731D01*
X13536006Y-11449731D02*
X13526482Y-11468779D01*
X13526482Y-11468779D02*
X13526482Y-11516398D01*
X13526482Y-11516398D02*
X13536006Y-11535446D01*
X13536006Y-11535446D02*
X13545529Y-11544969D01*
X13545529Y-11544969D02*
X13564577Y-11554493D01*
X13564577Y-11554493D02*
X13602672Y-11554493D01*
X13602672Y-11554493D02*
X13621720Y-11544969D01*
X13621720Y-11544969D02*
X13631244Y-11535446D01*
X13631244Y-11535446D02*
X13640767Y-11516398D01*
X13812196Y-11497350D02*
X13812196Y-11630684D01*
X13764577Y-11421160D02*
X13716958Y-11564017D01*
X13716958Y-11564017D02*
X13840767Y-11564017D01*
X13907434Y-11430684D02*
X13907434Y-11468779D01*
X13983625Y-11430684D02*
X13983625Y-11468779D01*
X14278863Y-11706874D02*
X14269339Y-11697350D01*
X14269339Y-11697350D02*
X14250291Y-11668779D01*
X14250291Y-11668779D02*
X14240768Y-11649731D01*
X14240768Y-11649731D02*
X14231244Y-11621160D01*
X14231244Y-11621160D02*
X14221720Y-11573541D01*
X14221720Y-11573541D02*
X14221720Y-11535446D01*
X14221720Y-11535446D02*
X14231244Y-11487827D01*
X14231244Y-11487827D02*
X14240768Y-11459255D01*
X14240768Y-11459255D02*
X14250291Y-11440208D01*
X14250291Y-11440208D02*
X14269339Y-11411636D01*
X14269339Y-11411636D02*
X14278863Y-11402112D01*
X14345529Y-11449731D02*
X14355053Y-11440208D01*
X14355053Y-11440208D02*
X14374101Y-11430684D01*
X14374101Y-11430684D02*
X14421720Y-11430684D01*
X14421720Y-11430684D02*
X14440768Y-11440208D01*
X14440768Y-11440208D02*
X14450291Y-11449731D01*
X14450291Y-11449731D02*
X14459815Y-11468779D01*
X14459815Y-11468779D02*
X14459815Y-11487827D01*
X14459815Y-11487827D02*
X14450291Y-11516398D01*
X14450291Y-11516398D02*
X14336006Y-11630684D01*
X14336006Y-11630684D02*
X14459815Y-11630684D01*
X14555053Y-11630684D02*
X14593148Y-11630684D01*
X14593148Y-11630684D02*
X14612196Y-11621160D01*
X14612196Y-11621160D02*
X14621720Y-11611636D01*
X14621720Y-11611636D02*
X14640768Y-11583065D01*
X14640768Y-11583065D02*
X14650291Y-11544969D01*
X14650291Y-11544969D02*
X14650291Y-11468779D01*
X14650291Y-11468779D02*
X14640768Y-11449731D01*
X14640768Y-11449731D02*
X14631244Y-11440208D01*
X14631244Y-11440208D02*
X14612196Y-11430684D01*
X14612196Y-11430684D02*
X14574101Y-11430684D01*
X14574101Y-11430684D02*
X14555053Y-11440208D01*
X14555053Y-11440208D02*
X14545529Y-11449731D01*
X14545529Y-11449731D02*
X14536006Y-11468779D01*
X14536006Y-11468779D02*
X14536006Y-11516398D01*
X14536006Y-11516398D02*
X14545529Y-11535446D01*
X14545529Y-11535446D02*
X14555053Y-11544969D01*
X14555053Y-11544969D02*
X14574101Y-11554493D01*
X14574101Y-11554493D02*
X14612196Y-11554493D01*
X14612196Y-11554493D02*
X14631244Y-11544969D01*
X14631244Y-11544969D02*
X14640768Y-11535446D01*
X14640768Y-11535446D02*
X14650291Y-11516398D01*
X14888387Y-11630684D02*
X14888387Y-11430684D01*
X14974101Y-11630684D02*
X14974101Y-11525922D01*
X14974101Y-11525922D02*
X14964577Y-11506874D01*
X14964577Y-11506874D02*
X14945530Y-11497350D01*
X14945530Y-11497350D02*
X14916958Y-11497350D01*
X14916958Y-11497350D02*
X14897910Y-11506874D01*
X14897910Y-11506874D02*
X14888387Y-11516398D01*
X15097910Y-11630684D02*
X15078863Y-11621160D01*
X15078863Y-11621160D02*
X15069339Y-11611636D01*
X15069339Y-11611636D02*
X15059815Y-11592588D01*
X15059815Y-11592588D02*
X15059815Y-11535446D01*
X15059815Y-11535446D02*
X15069339Y-11516398D01*
X15069339Y-11516398D02*
X15078863Y-11506874D01*
X15078863Y-11506874D02*
X15097910Y-11497350D01*
X15097910Y-11497350D02*
X15126482Y-11497350D01*
X15126482Y-11497350D02*
X15145530Y-11506874D01*
X15145530Y-11506874D02*
X15155053Y-11516398D01*
X15155053Y-11516398D02*
X15164577Y-11535446D01*
X15164577Y-11535446D02*
X15164577Y-11592588D01*
X15164577Y-11592588D02*
X15155053Y-11611636D01*
X15155053Y-11611636D02*
X15145530Y-11621160D01*
X15145530Y-11621160D02*
X15126482Y-11630684D01*
X15126482Y-11630684D02*
X15097910Y-11630684D01*
X15278863Y-11630684D02*
X15259815Y-11621160D01*
X15259815Y-11621160D02*
X15250291Y-11602112D01*
X15250291Y-11602112D02*
X15250291Y-11430684D01*
X15431244Y-11621160D02*
X15412196Y-11630684D01*
X15412196Y-11630684D02*
X15374101Y-11630684D01*
X15374101Y-11630684D02*
X15355053Y-11621160D01*
X15355053Y-11621160D02*
X15345530Y-11602112D01*
X15345530Y-11602112D02*
X15345530Y-11525922D01*
X15345530Y-11525922D02*
X15355053Y-11506874D01*
X15355053Y-11506874D02*
X15374101Y-11497350D01*
X15374101Y-11497350D02*
X15412196Y-11497350D01*
X15412196Y-11497350D02*
X15431244Y-11506874D01*
X15431244Y-11506874D02*
X15440768Y-11525922D01*
X15440768Y-11525922D02*
X15440768Y-11544969D01*
X15440768Y-11544969D02*
X15345530Y-11564017D01*
X15516958Y-11621160D02*
X15536006Y-11630684D01*
X15536006Y-11630684D02*
X15574101Y-11630684D01*
X15574101Y-11630684D02*
X15593149Y-11621160D01*
X15593149Y-11621160D02*
X15602672Y-11602112D01*
X15602672Y-11602112D02*
X15602672Y-11592588D01*
X15602672Y-11592588D02*
X15593149Y-11573541D01*
X15593149Y-11573541D02*
X15574101Y-11564017D01*
X15574101Y-11564017D02*
X15545530Y-11564017D01*
X15545530Y-11564017D02*
X15526482Y-11554493D01*
X15526482Y-11554493D02*
X15516958Y-11535446D01*
X15516958Y-11535446D02*
X15516958Y-11525922D01*
X15516958Y-11525922D02*
X15526482Y-11506874D01*
X15526482Y-11506874D02*
X15545530Y-11497350D01*
X15545530Y-11497350D02*
X15574101Y-11497350D01*
X15574101Y-11497350D02*
X15593149Y-11506874D01*
X15669339Y-11706874D02*
X15678863Y-11697350D01*
X15678863Y-11697350D02*
X15697911Y-11668779D01*
X15697911Y-11668779D02*
X15707434Y-11649731D01*
X15707434Y-11649731D02*
X15716958Y-11621160D01*
X15716958Y-11621160D02*
X15726482Y-11573541D01*
X15726482Y-11573541D02*
X15726482Y-11535446D01*
X15726482Y-11535446D02*
X15716958Y-11487827D01*
X15716958Y-11487827D02*
X15707434Y-11459255D01*
X15707434Y-11459255D02*
X15697911Y-11440208D01*
X15697911Y-11440208D02*
X15678863Y-11411636D01*
X15678863Y-11411636D02*
X15669339Y-11402112D01*
X10503800Y-11703200D02*
X10703800Y-11903200D01*
X10703800Y-11703200D02*
X10503800Y-11903200D01*
X10703800Y-11803200D02*
G75*
G02*
X10503800Y-11803200I-100000J0D01*
G01*
X10503800Y-11803200D02*
G75*
G02*
X10703800Y-11803200I100000J0D01*
G01*
X10945529Y-11694684D02*
X11069339Y-11694684D01*
X11069339Y-11694684D02*
X11002672Y-11770874D01*
X11002672Y-11770874D02*
X11031244Y-11770874D01*
X11031244Y-11770874D02*
X11050291Y-11780398D01*
X11050291Y-11780398D02*
X11059815Y-11789922D01*
X11059815Y-11789922D02*
X11069339Y-11808969D01*
X11069339Y-11808969D02*
X11069339Y-11856588D01*
X11069339Y-11856588D02*
X11059815Y-11875636D01*
X11059815Y-11875636D02*
X11050291Y-11885160D01*
X11050291Y-11885160D02*
X11031244Y-11894684D01*
X11031244Y-11894684D02*
X10974101Y-11894684D01*
X10974101Y-11894684D02*
X10955053Y-11885160D01*
X10955053Y-11885160D02*
X10945529Y-11875636D01*
X11155053Y-11875636D02*
X11164577Y-11885160D01*
X11164577Y-11885160D02*
X11155053Y-11894684D01*
X11155053Y-11894684D02*
X11145529Y-11885160D01*
X11145529Y-11885160D02*
X11155053Y-11875636D01*
X11155053Y-11875636D02*
X11155053Y-11894684D01*
X11240767Y-11713731D02*
X11250291Y-11704208D01*
X11250291Y-11704208D02*
X11269339Y-11694684D01*
X11269339Y-11694684D02*
X11316958Y-11694684D01*
X11316958Y-11694684D02*
X11336005Y-11704208D01*
X11336005Y-11704208D02*
X11345529Y-11713731D01*
X11345529Y-11713731D02*
X11355053Y-11732779D01*
X11355053Y-11732779D02*
X11355053Y-11751827D01*
X11355053Y-11751827D02*
X11345529Y-11780398D01*
X11345529Y-11780398D02*
X11231243Y-11894684D01*
X11231243Y-11894684D02*
X11355053Y-11894684D01*
X11478862Y-11694684D02*
X11497910Y-11694684D01*
X11497910Y-11694684D02*
X11516958Y-11704208D01*
X11516958Y-11704208D02*
X11526482Y-11713731D01*
X11526482Y-11713731D02*
X11536005Y-11732779D01*
X11536005Y-11732779D02*
X11545529Y-11770874D01*
X11545529Y-11770874D02*
X11545529Y-11818493D01*
X11545529Y-11818493D02*
X11536005Y-11856588D01*
X11536005Y-11856588D02*
X11526482Y-11875636D01*
X11526482Y-11875636D02*
X11516958Y-11885160D01*
X11516958Y-11885160D02*
X11497910Y-11894684D01*
X11497910Y-11894684D02*
X11478862Y-11894684D01*
X11478862Y-11894684D02*
X11459815Y-11885160D01*
X11459815Y-11885160D02*
X11450291Y-11875636D01*
X11450291Y-11875636D02*
X11440767Y-11856588D01*
X11440767Y-11856588D02*
X11431243Y-11818493D01*
X11431243Y-11818493D02*
X11431243Y-11770874D01*
X11431243Y-11770874D02*
X11440767Y-11732779D01*
X11440767Y-11732779D02*
X11450291Y-11713731D01*
X11450291Y-11713731D02*
X11459815Y-11704208D01*
X11459815Y-11704208D02*
X11478862Y-11694684D01*
X11669339Y-11694684D02*
X11688386Y-11694684D01*
X11688386Y-11694684D02*
X11707434Y-11704208D01*
X11707434Y-11704208D02*
X11716958Y-11713731D01*
X11716958Y-11713731D02*
X11726482Y-11732779D01*
X11726482Y-11732779D02*
X11736005Y-11770874D01*
X11736005Y-11770874D02*
X11736005Y-11818493D01*
X11736005Y-11818493D02*
X11726482Y-11856588D01*
X11726482Y-11856588D02*
X11716958Y-11875636D01*
X11716958Y-11875636D02*
X11707434Y-11885160D01*
X11707434Y-11885160D02*
X11688386Y-11894684D01*
X11688386Y-11894684D02*
X11669339Y-11894684D01*
X11669339Y-11894684D02*
X11650291Y-11885160D01*
X11650291Y-11885160D02*
X11640767Y-11875636D01*
X11640767Y-11875636D02*
X11631243Y-11856588D01*
X11631243Y-11856588D02*
X11621720Y-11818493D01*
X11621720Y-11818493D02*
X11621720Y-11770874D01*
X11621720Y-11770874D02*
X11631243Y-11732779D01*
X11631243Y-11732779D02*
X11640767Y-11713731D01*
X11640767Y-11713731D02*
X11650291Y-11704208D01*
X11650291Y-11704208D02*
X11669339Y-11694684D01*
X11821720Y-11894684D02*
X11821720Y-11761350D01*
X11821720Y-11780398D02*
X11831243Y-11770874D01*
X11831243Y-11770874D02*
X11850291Y-11761350D01*
X11850291Y-11761350D02*
X11878863Y-11761350D01*
X11878863Y-11761350D02*
X11897910Y-11770874D01*
X11897910Y-11770874D02*
X11907434Y-11789922D01*
X11907434Y-11789922D02*
X11907434Y-11894684D01*
X11907434Y-11789922D02*
X11916958Y-11770874D01*
X11916958Y-11770874D02*
X11936005Y-11761350D01*
X11936005Y-11761350D02*
X11964577Y-11761350D01*
X11964577Y-11761350D02*
X11983624Y-11770874D01*
X11983624Y-11770874D02*
X11993148Y-11789922D01*
X11993148Y-11789922D02*
X11993148Y-11894684D01*
X12088386Y-11894684D02*
X12088386Y-11761350D01*
X12088386Y-11780398D02*
X12097910Y-11770874D01*
X12097910Y-11770874D02*
X12116958Y-11761350D01*
X12116958Y-11761350D02*
X12145529Y-11761350D01*
X12145529Y-11761350D02*
X12164577Y-11770874D01*
X12164577Y-11770874D02*
X12174101Y-11789922D01*
X12174101Y-11789922D02*
X12174101Y-11894684D01*
X12174101Y-11789922D02*
X12183624Y-11770874D01*
X12183624Y-11770874D02*
X12202672Y-11761350D01*
X12202672Y-11761350D02*
X12231243Y-11761350D01*
X12231243Y-11761350D02*
X12250291Y-11770874D01*
X12250291Y-11770874D02*
X12259815Y-11789922D01*
X12259815Y-11789922D02*
X12259815Y-11894684D01*
X12650291Y-11685160D02*
X12478863Y-11942303D01*
X12907434Y-11694684D02*
X12926482Y-11694684D01*
X12926482Y-11694684D02*
X12945529Y-11704208D01*
X12945529Y-11704208D02*
X12955053Y-11713731D01*
X12955053Y-11713731D02*
X12964577Y-11732779D01*
X12964577Y-11732779D02*
X12974101Y-11770874D01*
X12974101Y-11770874D02*
X12974101Y-11818493D01*
X12974101Y-11818493D02*
X12964577Y-11856588D01*
X12964577Y-11856588D02*
X12955053Y-11875636D01*
X12955053Y-11875636D02*
X12945529Y-11885160D01*
X12945529Y-11885160D02*
X12926482Y-11894684D01*
X12926482Y-11894684D02*
X12907434Y-11894684D01*
X12907434Y-11894684D02*
X12888386Y-11885160D01*
X12888386Y-11885160D02*
X12878863Y-11875636D01*
X12878863Y-11875636D02*
X12869339Y-11856588D01*
X12869339Y-11856588D02*
X12859815Y-11818493D01*
X12859815Y-11818493D02*
X12859815Y-11770874D01*
X12859815Y-11770874D02*
X12869339Y-11732779D01*
X12869339Y-11732779D02*
X12878863Y-11713731D01*
X12878863Y-11713731D02*
X12888386Y-11704208D01*
X12888386Y-11704208D02*
X12907434Y-11694684D01*
X13059815Y-11875636D02*
X13069339Y-11885160D01*
X13069339Y-11885160D02*
X13059815Y-11894684D01*
X13059815Y-11894684D02*
X13050291Y-11885160D01*
X13050291Y-11885160D02*
X13059815Y-11875636D01*
X13059815Y-11875636D02*
X13059815Y-11894684D01*
X13259815Y-11894684D02*
X13145529Y-11894684D01*
X13202672Y-11894684D02*
X13202672Y-11694684D01*
X13202672Y-11694684D02*
X13183625Y-11723255D01*
X13183625Y-11723255D02*
X13164577Y-11742303D01*
X13164577Y-11742303D02*
X13145529Y-11751827D01*
X13336006Y-11713731D02*
X13345529Y-11704208D01*
X13345529Y-11704208D02*
X13364577Y-11694684D01*
X13364577Y-11694684D02*
X13412196Y-11694684D01*
X13412196Y-11694684D02*
X13431244Y-11704208D01*
X13431244Y-11704208D02*
X13440767Y-11713731D01*
X13440767Y-11713731D02*
X13450291Y-11732779D01*
X13450291Y-11732779D02*
X13450291Y-11751827D01*
X13450291Y-11751827D02*
X13440767Y-11780398D01*
X13440767Y-11780398D02*
X13326482Y-11894684D01*
X13326482Y-11894684D02*
X13450291Y-11894684D01*
X13621720Y-11694684D02*
X13583625Y-11694684D01*
X13583625Y-11694684D02*
X13564577Y-11704208D01*
X13564577Y-11704208D02*
X13555053Y-11713731D01*
X13555053Y-11713731D02*
X13536006Y-11742303D01*
X13536006Y-11742303D02*
X13526482Y-11780398D01*
X13526482Y-11780398D02*
X13526482Y-11856588D01*
X13526482Y-11856588D02*
X13536006Y-11875636D01*
X13536006Y-11875636D02*
X13545529Y-11885160D01*
X13545529Y-11885160D02*
X13564577Y-11894684D01*
X13564577Y-11894684D02*
X13602672Y-11894684D01*
X13602672Y-11894684D02*
X13621720Y-11885160D01*
X13621720Y-11885160D02*
X13631244Y-11875636D01*
X13631244Y-11875636D02*
X13640767Y-11856588D01*
X13640767Y-11856588D02*
X13640767Y-11808969D01*
X13640767Y-11808969D02*
X13631244Y-11789922D01*
X13631244Y-11789922D02*
X13621720Y-11780398D01*
X13621720Y-11780398D02*
X13602672Y-11770874D01*
X13602672Y-11770874D02*
X13564577Y-11770874D01*
X13564577Y-11770874D02*
X13545529Y-11780398D01*
X13545529Y-11780398D02*
X13536006Y-11789922D01*
X13536006Y-11789922D02*
X13526482Y-11808969D01*
X13764577Y-11694684D02*
X13783625Y-11694684D01*
X13783625Y-11694684D02*
X13802672Y-11704208D01*
X13802672Y-11704208D02*
X13812196Y-11713731D01*
X13812196Y-11713731D02*
X13821720Y-11732779D01*
X13821720Y-11732779D02*
X13831244Y-11770874D01*
X13831244Y-11770874D02*
X13831244Y-11818493D01*
X13831244Y-11818493D02*
X13821720Y-11856588D01*
X13821720Y-11856588D02*
X13812196Y-11875636D01*
X13812196Y-11875636D02*
X13802672Y-11885160D01*
X13802672Y-11885160D02*
X13783625Y-11894684D01*
X13783625Y-11894684D02*
X13764577Y-11894684D01*
X13764577Y-11894684D02*
X13745529Y-11885160D01*
X13745529Y-11885160D02*
X13736006Y-11875636D01*
X13736006Y-11875636D02*
X13726482Y-11856588D01*
X13726482Y-11856588D02*
X13716958Y-11818493D01*
X13716958Y-11818493D02*
X13716958Y-11770874D01*
X13716958Y-11770874D02*
X13726482Y-11732779D01*
X13726482Y-11732779D02*
X13736006Y-11713731D01*
X13736006Y-11713731D02*
X13745529Y-11704208D01*
X13745529Y-11704208D02*
X13764577Y-11694684D01*
X13907434Y-11694684D02*
X13907434Y-11732779D01*
X13983625Y-11694684D02*
X13983625Y-11732779D01*
X14278863Y-11970874D02*
X14269339Y-11961350D01*
X14269339Y-11961350D02*
X14250291Y-11932779D01*
X14250291Y-11932779D02*
X14240768Y-11913731D01*
X14240768Y-11913731D02*
X14231244Y-11885160D01*
X14231244Y-11885160D02*
X14221720Y-11837541D01*
X14221720Y-11837541D02*
X14221720Y-11799446D01*
X14221720Y-11799446D02*
X14231244Y-11751827D01*
X14231244Y-11751827D02*
X14240768Y-11723255D01*
X14240768Y-11723255D02*
X14250291Y-11704208D01*
X14250291Y-11704208D02*
X14269339Y-11675636D01*
X14269339Y-11675636D02*
X14278863Y-11666112D01*
X14440768Y-11761350D02*
X14440768Y-11894684D01*
X14393148Y-11685160D02*
X14345529Y-11828017D01*
X14345529Y-11828017D02*
X14469339Y-11828017D01*
X14697910Y-11894684D02*
X14697910Y-11694684D01*
X14783625Y-11894684D02*
X14783625Y-11789922D01*
X14783625Y-11789922D02*
X14774101Y-11770874D01*
X14774101Y-11770874D02*
X14755053Y-11761350D01*
X14755053Y-11761350D02*
X14726482Y-11761350D01*
X14726482Y-11761350D02*
X14707434Y-11770874D01*
X14707434Y-11770874D02*
X14697910Y-11780398D01*
X14907434Y-11894684D02*
X14888387Y-11885160D01*
X14888387Y-11885160D02*
X14878863Y-11875636D01*
X14878863Y-11875636D02*
X14869339Y-11856588D01*
X14869339Y-11856588D02*
X14869339Y-11799446D01*
X14869339Y-11799446D02*
X14878863Y-11780398D01*
X14878863Y-11780398D02*
X14888387Y-11770874D01*
X14888387Y-11770874D02*
X14907434Y-11761350D01*
X14907434Y-11761350D02*
X14936006Y-11761350D01*
X14936006Y-11761350D02*
X14955053Y-11770874D01*
X14955053Y-11770874D02*
X14964577Y-11780398D01*
X14964577Y-11780398D02*
X14974101Y-11799446D01*
X14974101Y-11799446D02*
X14974101Y-11856588D01*
X14974101Y-11856588D02*
X14964577Y-11875636D01*
X14964577Y-11875636D02*
X14955053Y-11885160D01*
X14955053Y-11885160D02*
X14936006Y-11894684D01*
X14936006Y-11894684D02*
X14907434Y-11894684D01*
X15088387Y-11894684D02*
X15069339Y-11885160D01*
X15069339Y-11885160D02*
X15059815Y-11866112D01*
X15059815Y-11866112D02*
X15059815Y-11694684D01*
X15240768Y-11885160D02*
X15221720Y-11894684D01*
X15221720Y-11894684D02*
X15183625Y-11894684D01*
X15183625Y-11894684D02*
X15164577Y-11885160D01*
X15164577Y-11885160D02*
X15155053Y-11866112D01*
X15155053Y-11866112D02*
X15155053Y-11789922D01*
X15155053Y-11789922D02*
X15164577Y-11770874D01*
X15164577Y-11770874D02*
X15183625Y-11761350D01*
X15183625Y-11761350D02*
X15221720Y-11761350D01*
X15221720Y-11761350D02*
X15240768Y-11770874D01*
X15240768Y-11770874D02*
X15250291Y-11789922D01*
X15250291Y-11789922D02*
X15250291Y-11808969D01*
X15250291Y-11808969D02*
X15155053Y-11828017D01*
X15326482Y-11885160D02*
X15345530Y-11894684D01*
X15345530Y-11894684D02*
X15383625Y-11894684D01*
X15383625Y-11894684D02*
X15402672Y-11885160D01*
X15402672Y-11885160D02*
X15412196Y-11866112D01*
X15412196Y-11866112D02*
X15412196Y-11856588D01*
X15412196Y-11856588D02*
X15402672Y-11837541D01*
X15402672Y-11837541D02*
X15383625Y-11828017D01*
X15383625Y-11828017D02*
X15355053Y-11828017D01*
X15355053Y-11828017D02*
X15336006Y-11818493D01*
X15336006Y-11818493D02*
X15326482Y-11799446D01*
X15326482Y-11799446D02*
X15326482Y-11789922D01*
X15326482Y-11789922D02*
X15336006Y-11770874D01*
X15336006Y-11770874D02*
X15355053Y-11761350D01*
X15355053Y-11761350D02*
X15383625Y-11761350D01*
X15383625Y-11761350D02*
X15402672Y-11770874D01*
X15478863Y-11970874D02*
X15488387Y-11961350D01*
X15488387Y-11961350D02*
X15507434Y-11932779D01*
X15507434Y-11932779D02*
X15516958Y-11913731D01*
X15516958Y-11913731D02*
X15526482Y-11885160D01*
X15526482Y-11885160D02*
X15536006Y-11837541D01*
X15536006Y-11837541D02*
X15536006Y-11799446D01*
X15536006Y-11799446D02*
X15526482Y-11751827D01*
X15526482Y-11751827D02*
X15516958Y-11723255D01*
X15516958Y-11723255D02*
X15507434Y-11704208D01*
X15507434Y-11704208D02*
X15488387Y-11675636D01*
X15488387Y-11675636D02*
X15478863Y-11666112D01*
M02*
