%TF.GenerationSoftware,KiCad,Pcbnew,9.0.7*%
%TF.CreationDate,2026-02-15T15:39:24-05:00*%
%TF.ProjectId,BezelBud,42657a65-6c42-4756-942e-6b696361645f,rev?*%
%TF.SameCoordinates,Original*%
%TF.FileFunction,Soldermask,Top*%
%TF.FilePolarity,Negative*%
%FSLAX46Y46*%
G04 Gerber Fmt 4.6, Leading zero omitted, Abs format (unit mm)*
G04 Created by KiCad (PCBNEW 9.0.7) date 2026-02-15 15:39:24*
%MOMM*%
%LPD*%
G01*
G04 APERTURE LIST*
G04 Aperture macros list*
%AMRoundRect*
0 Rectangle with rounded corners*
0 $1 Rounding radius*
0 $2 $3 $4 $5 $6 $7 $8 $9 X,Y pos of 4 corners*
0 Add a 4 corners polygon primitive as box body*
4,1,4,$2,$3,$4,$5,$6,$7,$8,$9,$2,$3,0*
0 Add four circle primitives for the rounded corners*
1,1,$1+$1,$2,$3*
1,1,$1+$1,$4,$5*
1,1,$1+$1,$6,$7*
1,1,$1+$1,$8,$9*
0 Add four rect primitives between the rounded corners*
20,1,$1+$1,$2,$3,$4,$5,0*
20,1,$1+$1,$4,$5,$6,$7,0*
20,1,$1+$1,$6,$7,$8,$9,0*
20,1,$1+$1,$8,$9,$2,$3,0*%
G04 Aperture macros list end*
%ADD10RoundRect,0.200000X-0.275000X0.200000X-0.275000X-0.200000X0.275000X-0.200000X0.275000X0.200000X0*%
%ADD11C,0.800000*%
%ADD12C,6.400000*%
%ADD13C,1.400000*%
%ADD14RoundRect,0.225000X0.250000X-0.225000X0.250000X0.225000X-0.250000X0.225000X-0.250000X-0.225000X0*%
%ADD15RoundRect,0.250000X0.450000X-0.262500X0.450000X0.262500X-0.450000X0.262500X-0.450000X-0.262500X0*%
%ADD16RoundRect,0.250000X-0.325000X-0.650000X0.325000X-0.650000X0.325000X0.650000X-0.325000X0.650000X0*%
%ADD17RoundRect,0.218750X-0.218750X-0.256250X0.218750X-0.256250X0.218750X0.256250X-0.218750X0.256250X0*%
%ADD18RoundRect,0.200000X-0.200000X-0.275000X0.200000X-0.275000X0.200000X0.275000X-0.200000X0.275000X0*%
%ADD19RoundRect,0.150000X-0.512500X-0.150000X0.512500X-0.150000X0.512500X0.150000X-0.512500X0.150000X0*%
%ADD20RoundRect,0.225000X-0.225000X-0.250000X0.225000X-0.250000X0.225000X0.250000X-0.225000X0.250000X0*%
%ADD21RoundRect,0.250000X-0.250000X-0.475000X0.250000X-0.475000X0.250000X0.475000X-0.250000X0.475000X0*%
%ADD22RoundRect,0.250000X-0.350000X0.450000X-0.350000X-0.450000X0.350000X-0.450000X0.350000X0.450000X0*%
%ADD23RoundRect,0.075000X-0.662500X-0.075000X0.662500X-0.075000X0.662500X0.075000X-0.662500X0.075000X0*%
%ADD24RoundRect,0.250000X-0.475000X0.250000X-0.475000X-0.250000X0.475000X-0.250000X0.475000X0.250000X0*%
%ADD25RoundRect,0.200000X0.200000X0.275000X-0.200000X0.275000X-0.200000X-0.275000X0.200000X-0.275000X0*%
%ADD26C,1.700000*%
%ADD27R,1.700000X1.700000*%
%ADD28C,0.650000*%
%ADD29R,0.600000X1.240000*%
%ADD30R,0.300000X1.240000*%
%ADD31O,1.000000X2.100000*%
%ADD32O,1.000000X1.800000*%
%ADD33RoundRect,0.225000X-0.250000X0.225000X-0.250000X-0.225000X0.250000X-0.225000X0.250000X0.225000X0*%
%ADD34C,0.850000*%
%ADD35RoundRect,0.150000X-0.150000X-0.500000X0.150000X-0.500000X0.150000X0.500000X-0.150000X0.500000X0*%
%ADD36RoundRect,0.175000X-0.350000X-0.175000X0.350000X-0.175000X0.350000X0.175000X-0.350000X0.175000X0*%
%ADD37RoundRect,0.225000X0.225000X0.250000X-0.225000X0.250000X-0.225000X-0.250000X0.225000X-0.250000X0*%
%ADD38RoundRect,0.250000X0.475000X-0.250000X0.475000X0.250000X-0.475000X0.250000X-0.475000X-0.250000X0*%
%ADD39RoundRect,0.150000X0.150000X-0.512500X0.150000X0.512500X-0.150000X0.512500X-0.150000X-0.512500X0*%
%ADD40RoundRect,0.250000X0.250000X0.475000X-0.250000X0.475000X-0.250000X-0.475000X0.250000X-0.475000X0*%
%ADD41RoundRect,0.218750X-0.218750X-0.381250X0.218750X-0.381250X0.218750X0.381250X-0.218750X0.381250X0*%
%ADD42RoundRect,0.075000X0.662500X0.075000X-0.662500X0.075000X-0.662500X-0.075000X0.662500X-0.075000X0*%
%ADD43RoundRect,0.075000X0.075000X0.662500X-0.075000X0.662500X-0.075000X-0.662500X0.075000X-0.662500X0*%
G04 APERTURE END LIST*
D10*
%TO.C,R10*%
X150300000Y-95059000D03*
X150300000Y-93409000D03*
%TD*%
%TO.C,R9*%
X148800000Y-95059000D03*
X148800000Y-93409000D03*
%TD*%
D11*
%TO.C,H4*%
X169600000Y-93200000D03*
X170302944Y-91502944D03*
X170302944Y-94897056D03*
X172000000Y-90800000D03*
D12*
X172000000Y-93200000D03*
D11*
X172000000Y-95600000D03*
X173697056Y-91502944D03*
X173697056Y-94897056D03*
X174400000Y-93200000D03*
%TD*%
%TO.C,H3*%
X110102944Y-93197056D03*
X110805888Y-91500000D03*
X110805888Y-94894112D03*
X112502944Y-90797056D03*
D12*
X112502944Y-93197056D03*
D11*
X112502944Y-95597056D03*
X114200000Y-91500000D03*
X114200000Y-94894112D03*
X114902944Y-93197056D03*
%TD*%
%TO.C,H2*%
X169600000Y-64000000D03*
X170302944Y-62302944D03*
X170302944Y-65697056D03*
X172000000Y-61600000D03*
D12*
X172000000Y-64000000D03*
D11*
X172000000Y-66400000D03*
X173697056Y-62302944D03*
X173697056Y-65697056D03*
X174400000Y-64000000D03*
%TD*%
%TO.C,H1*%
X110100000Y-64100000D03*
X110802944Y-62402944D03*
X110802944Y-65797056D03*
X112500000Y-61700000D03*
D12*
X112500000Y-64100000D03*
D11*
X112500000Y-66500000D03*
X114197056Y-62402944D03*
X114197056Y-65797056D03*
X114900000Y-64100000D03*
%TD*%
D13*
%TO.C,MICR1*%
X133986663Y-63589979D03*
X132086663Y-63589979D03*
%TD*%
D14*
%TO.C,C6*%
X158492000Y-74025500D03*
X158492000Y-72475500D03*
%TD*%
D15*
%TO.C,R14*%
X171704000Y-88349399D03*
X171704000Y-86524399D03*
%TD*%
D16*
%TO.C,C21*%
X171704000Y-84615592D03*
X174654000Y-84615592D03*
%TD*%
%TO.C,C19*%
X171704000Y-82296000D03*
X174654000Y-82296000D03*
%TD*%
D17*
%TO.C,D2*%
X160575000Y-92750000D03*
X159000000Y-92750000D03*
%TD*%
D18*
%TO.C,R4*%
X160575000Y-91000000D03*
X158925000Y-91000000D03*
%TD*%
D19*
%TO.C,U3*%
X160072500Y-86680000D03*
X160072500Y-88580000D03*
X157797500Y-88580000D03*
X157797500Y-87630000D03*
X157797500Y-86680000D03*
%TD*%
D18*
%TO.C,R3*%
X165537500Y-91000000D03*
X163887500Y-91000000D03*
%TD*%
D17*
%TO.C,D1*%
X165537500Y-92750000D03*
X163962500Y-92750000D03*
%TD*%
D20*
%TO.C,C4*%
X148025000Y-79750000D03*
X146475000Y-79750000D03*
%TD*%
D21*
%TO.C,C3*%
X159919999Y-82500000D03*
X158020001Y-82500000D03*
%TD*%
D20*
%TO.C,C7*%
X159525000Y-80750000D03*
X157975000Y-80750000D03*
%TD*%
D22*
%TO.C,Y1*%
X165100000Y-74944500D03*
X165100000Y-77144500D03*
X163400000Y-77144500D03*
X163400000Y-74944500D03*
%TD*%
D23*
%TO.C,U5*%
X129862500Y-68890000D03*
X129862500Y-69390000D03*
X129862500Y-69890000D03*
X129862500Y-70390000D03*
X129862500Y-70890000D03*
X129862500Y-71390000D03*
X129862500Y-71890000D03*
X129862500Y-72390000D03*
X129862500Y-72890000D03*
X129862500Y-73390000D03*
X129862500Y-73890000D03*
X129862500Y-74390000D03*
X129862500Y-74890000D03*
X129862500Y-75390000D03*
X129862500Y-75890000D03*
X124137500Y-75890000D03*
X124137500Y-75390000D03*
X124137500Y-74890000D03*
X124137500Y-74390000D03*
X124137500Y-73890000D03*
X124137500Y-73390000D03*
X124137500Y-72890000D03*
X124137500Y-72390000D03*
X124137500Y-71890000D03*
X124137500Y-71390000D03*
X124137500Y-70890000D03*
X124137500Y-70390000D03*
X124137500Y-69890000D03*
X124137500Y-69390000D03*
X124137500Y-68890000D03*
%TD*%
D20*
%TO.C,C22*%
X127525000Y-67056000D03*
X125975000Y-67056000D03*
%TD*%
D13*
%TO.C,MICL1*%
X136144000Y-63589979D03*
X138044000Y-63589979D03*
%TD*%
D10*
%TO.C,R13*%
X125200000Y-65225000D03*
X125200000Y-63575000D03*
%TD*%
D24*
%TO.C,C17*%
X136144000Y-68514000D03*
X136144000Y-66614000D03*
%TD*%
D25*
%TO.C,R2*%
X155325000Y-82250000D03*
X153675000Y-82250000D03*
%TD*%
D26*
%TO.C,SW9*%
X135382000Y-87884000D03*
X135382000Y-85344000D03*
D27*
X135382000Y-82804000D03*
%TD*%
D26*
%TO.C,SW8*%
X127762000Y-87884000D03*
X127762000Y-85344000D03*
D27*
X127762000Y-82804000D03*
%TD*%
D26*
%TO.C,SW5*%
X131572000Y-87884000D03*
X131572000Y-85344000D03*
D27*
X131572000Y-82804000D03*
%TD*%
D26*
%TO.C,SW4*%
X120142000Y-87884000D03*
X120142000Y-85344000D03*
D27*
X120142000Y-82804000D03*
%TD*%
D26*
%TO.C,SW6*%
X112522000Y-87884000D03*
X112522000Y-85344000D03*
D27*
X112522000Y-82804000D03*
%TD*%
D26*
%TO.C,SW3*%
X116332000Y-87884000D03*
X116332000Y-85344000D03*
D27*
X116332000Y-82804000D03*
%TD*%
D26*
%TO.C,SW7*%
X123952000Y-87884000D03*
X123952000Y-85344000D03*
D27*
X123952000Y-82804000D03*
%TD*%
D25*
%TO.C,R5*%
X136461000Y-74422000D03*
X134811000Y-74422000D03*
%TD*%
D28*
%TO.C,J1*%
X139856000Y-91570000D03*
X145636000Y-91570000D03*
D29*
X139546000Y-90450000D03*
X140346000Y-90450000D03*
D30*
X141496000Y-90450000D03*
X142496000Y-90450000D03*
X142996000Y-90450000D03*
X143996000Y-90450000D03*
D29*
X145146000Y-90450000D03*
X145946000Y-90450000D03*
X145946000Y-90450000D03*
X145146000Y-90450000D03*
D30*
X144496000Y-90450000D03*
X143496000Y-90450000D03*
X141996000Y-90450000D03*
X140996000Y-90450000D03*
D29*
X140346000Y-90450000D03*
X139546000Y-90450000D03*
D31*
X138426000Y-91050000D03*
D32*
X138426000Y-95250000D03*
D31*
X147066000Y-91050000D03*
D32*
X147066000Y-95250000D03*
%TD*%
D10*
%TO.C,R12*%
X126800000Y-63575000D03*
X126800000Y-65225000D03*
%TD*%
D33*
%TO.C,C2*%
X161500000Y-76725000D03*
X161500000Y-78275000D03*
%TD*%
D24*
%TO.C,C18*%
X133946663Y-66614000D03*
X133946663Y-68514000D03*
%TD*%
D33*
%TO.C,C15*%
X153500000Y-92425000D03*
X153500000Y-93975000D03*
%TD*%
D34*
%TO.C,SW1*%
X123976000Y-96000000D03*
X126976000Y-96000000D03*
D35*
X123226000Y-94050000D03*
X126226000Y-94050000D03*
X127726000Y-94050000D03*
D36*
X121801000Y-94900000D03*
X121801000Y-97100000D03*
X129151000Y-94900000D03*
X129151000Y-97100000D03*
%TD*%
D21*
%TO.C,C24*%
X171704000Y-79237000D03*
X173604000Y-79237000D03*
%TD*%
D37*
%TO.C,C30*%
X121775000Y-73914000D03*
X120225000Y-73914000D03*
%TD*%
D38*
%TO.C,C20*%
X155250000Y-88589257D03*
X155250000Y-86689257D03*
%TD*%
D39*
%TO.C,U2*%
X141798000Y-86989500D03*
X142748000Y-86989500D03*
X143698000Y-86989500D03*
X143698000Y-84714500D03*
X142748000Y-84714500D03*
X141798000Y-84714500D03*
%TD*%
D25*
%TO.C,R6*%
X136461000Y-75946000D03*
X134811000Y-75946000D03*
%TD*%
D14*
%TO.C,C31*%
X121750000Y-69355000D03*
X121750000Y-67805000D03*
%TD*%
D37*
%TO.C,C12*%
X150384000Y-68678500D03*
X148834000Y-68678500D03*
%TD*%
D25*
%TO.C,R7*%
X136461000Y-77470000D03*
X134811000Y-77470000D03*
%TD*%
D40*
%TO.C,C13*%
X150384000Y-66900500D03*
X148484000Y-66900500D03*
%TD*%
D39*
%TO.C,U4*%
X171704000Y-77205000D03*
X172654000Y-77205000D03*
X173604000Y-77205000D03*
X173604000Y-74930000D03*
X171704000Y-74930000D03*
%TD*%
D21*
%TO.C,C27*%
X171704000Y-72765500D03*
X173604000Y-72765500D03*
%TD*%
D14*
%TO.C,C1*%
X161500000Y-75275000D03*
X161500000Y-73725000D03*
%TD*%
D38*
%TO.C,C23*%
X120000000Y-72390000D03*
X120000000Y-70490000D03*
%TD*%
D20*
%TO.C,C9*%
X157971000Y-79250000D03*
X159521000Y-79250000D03*
%TD*%
D18*
%TO.C,R11*%
X134811000Y-78994000D03*
X136461000Y-78994000D03*
%TD*%
D41*
%TO.C,FB1*%
X151707500Y-90769321D03*
X153832500Y-90769321D03*
%TD*%
D42*
%TO.C,U1*%
X156304500Y-77778500D03*
X156304500Y-77278500D03*
X156304500Y-76778500D03*
X156304500Y-76278500D03*
X156304500Y-75778500D03*
X156304500Y-75278500D03*
X156304500Y-74778500D03*
X156304500Y-74278500D03*
X156304500Y-73778500D03*
X156304500Y-73278500D03*
X156304500Y-72778500D03*
X156304500Y-72278500D03*
D43*
X154892000Y-70866000D03*
X154392000Y-70866000D03*
X153892000Y-70866000D03*
X153392000Y-70866000D03*
X152892000Y-70866000D03*
X152392000Y-70866000D03*
X151892000Y-70866000D03*
X151392000Y-70866000D03*
X150892000Y-70866000D03*
X150392000Y-70866000D03*
X149892000Y-70866000D03*
X149392000Y-70866000D03*
D42*
X147979500Y-72278500D03*
X147979500Y-72778500D03*
X147979500Y-73278500D03*
X147979500Y-73778500D03*
X147979500Y-74278500D03*
X147979500Y-74778500D03*
X147979500Y-75278500D03*
X147979500Y-75778500D03*
X147979500Y-76278500D03*
X147979500Y-76778500D03*
X147979500Y-77278500D03*
X147979500Y-77778500D03*
D43*
X149392000Y-79191000D03*
X149892000Y-79191000D03*
X150392000Y-79191000D03*
X150892000Y-79191000D03*
X151392000Y-79191000D03*
X151892000Y-79191000D03*
X152392000Y-79191000D03*
X152892000Y-79191000D03*
X153392000Y-79191000D03*
X153892000Y-79191000D03*
X154392000Y-79191000D03*
X154892000Y-79191000D03*
%TD*%
D10*
%TO.C,R1*%
X138750000Y-83925000D03*
X138750000Y-85575000D03*
%TD*%
D27*
%TO.C,J2*%
X168402000Y-74168000D03*
D26*
X168402000Y-76708000D03*
X168402000Y-79248000D03*
X168402000Y-81788000D03*
X168402000Y-84328000D03*
%TD*%
D21*
%TO.C,C5*%
X151875000Y-66900500D03*
X153775000Y-66900500D03*
%TD*%
D20*
%TO.C,C8*%
X151875000Y-68678500D03*
X153425000Y-68678500D03*
%TD*%
D33*
%TO.C,C28*%
X121750000Y-76477377D03*
X121750000Y-78027377D03*
%TD*%
D24*
%TO.C,C29*%
X120030182Y-76477377D03*
X120030182Y-78377377D03*
%TD*%
%TO.C,C16*%
X155564000Y-90769321D03*
X155564000Y-92669321D03*
%TD*%
D33*
%TO.C,C14*%
X152000000Y-92425000D03*
X152000000Y-93975000D03*
%TD*%
D24*
%TO.C,C25*%
X162306000Y-86680000D03*
X162306000Y-88580000D03*
%TD*%
D37*
%TO.C,C10*%
X147837000Y-70456500D03*
X146287000Y-70456500D03*
%TD*%
D14*
%TO.C,C26*%
X121750000Y-72390000D03*
X121750000Y-70840000D03*
%TD*%
D27*
%TO.C,SW2*%
X147008810Y-84895043D03*
D26*
X149548810Y-84895043D03*
X152088810Y-84895043D03*
%TD*%
M02*
