M48
INCH
T1C0.0118
T2C0.0197
T3C0.0236
T4C0.0276
T5C0.0394
T6C0.1260
%
G90
G05
T1
X4.2953Y-2.9567
X4.4475Y-2.9586
X4.605Y-2.9586
X4.6752Y-3.0879
X4.6949Y-2.91
X4.7248Y-2.7318
X4.7625Y-2.9586
X4.7626Y-2.8146
X4.7933Y-2.627
X4.7933Y-3.1102
X4.8514Y-3.6535
X4.8524Y-3.0413
X4.9287Y-2.8303
X4.9287Y-2.9287
X4.9592Y-2.8112
X4.9906Y-2.8146
X4.9925Y-2.8461
X5.0Y-3.0807
X5.0227Y-2.8548
X5.0243Y-2.8866
X5.0542Y-2.8967
X5.0555Y-2.9311
X5.063Y-2.64
X5.1378Y-2.5354
X5.1417Y-2.4451
X5.1575Y-3.0807
X5.1772Y-2.8051
X5.189Y-2.9567
X5.2008Y-2.5906
X5.2008Y-2.6969
X5.2657Y-3.1594
X5.2871Y-2.7447
X5.2992Y-2.874
X5.315Y-2.4451
X5.315Y-2.5669
X5.3346Y-2.8051
X5.4134Y-3.1594
X5.4331Y-2.5906
X5.4331Y-2.6969
X5.437Y-2.874
X5.4488Y-3.2087
X5.4921Y-2.8051
X5.4961Y-2.4451
X5.4961Y-2.5354
X5.5103Y-3.2564
X5.5118Y-3.3386
X5.5217Y-3.061
X5.6201Y-3.4744
X5.6339Y-2.9882
X5.6496Y-2.8051
X5.6969Y-3.1024
X5.6969Y-3.3189
X5.7593Y-2.8135
X5.7667Y-3.1791
X5.811Y-2.6339
X5.8169Y-2.7039
X5.8204Y-2.8115
X5.8278Y-3.1004
X5.878Y-3.0425
X5.9055Y-3.5236
X5.9142Y-2.8439
X5.9222Y-3.2844
X5.9449Y-3.5039
X5.9803Y-2.8425
X5.9843Y-3.7441
X6.0236Y-2.9882
X6.0433Y-3.7441
X6.0728Y-3.0118
X6.0787Y-3.0619
X6.0827Y-2.7039
X6.0906Y-2.6339
X6.1122Y-3.3661
X6.1246Y-3.6909
X6.1713Y-2.8051
X6.2126Y-3.3071
X6.2126Y-3.3543
X6.2264Y-3.6516
X6.2598Y-3.45
X6.2677Y-2.9567
X6.2677Y-3.0472
X6.2795Y-2.8534
X6.2913Y-3.3071
X6.2913Y-3.3543
X6.3228Y-3.117
X6.3228Y-3.1791
X6.3287Y-2.8051
X6.3386Y-3.248
X6.3583Y-2.8642
X6.3583Y-3.1201
X6.39Y-3.5335
X6.4173Y-3.6516
X6.4331Y-2.8937
X6.4331Y-3.0906
X6.4862Y-2.8051
X6.5Y-2.8937
X6.5Y-3.0906
X6.5315Y-3.4528
X6.5453Y-3.2185
X6.5472Y-2.9528
X6.5472Y-3.0394
X6.5591Y-3.1575
X6.6437Y-2.8051
X6.7008Y-3.1732
X6.7974Y-3.0866
X6.8012Y-2.8051
X6.878Y-2.8648
X6.8799Y-3.1196
X6.9252Y-3.2402
X6.9252Y-3.3307
X6.9409Y-2.8071
T2
X4.3346Y-2.5236
X4.3348Y-3.6692
X4.3623Y-2.4568
X4.3623Y-2.5904
X4.3624Y-3.6024
X4.3624Y-3.736
X4.4291Y-2.4291
X4.4291Y-2.6181
X4.4292Y-3.5747
X4.4292Y-3.7637
X4.4959Y-2.4568
X4.4959Y-2.5904
X4.4961Y-3.6024
X4.4961Y-3.736
X4.5236Y-2.5236
X4.5237Y-3.6692
X6.6772Y-2.5197
X6.6772Y-3.6693
X6.7048Y-2.4529
X6.7048Y-2.5865
X6.7048Y-3.6025
X6.7048Y-3.7361
X6.7717Y-2.4252
X6.7717Y-2.6142
X6.7717Y-3.5748
X6.7717Y-3.7638
X6.8385Y-2.4529
X6.8385Y-2.5865
X6.8385Y-3.6025
X6.8385Y-3.7361
X6.8661Y-2.5197
X6.8661Y-3.6693
T4
X5.2003Y-2.5035
X5.2751Y-2.5035
X5.36Y-2.5035
X5.4348Y-2.5035
T5
X4.43Y-3.26
X4.43Y-3.36
X4.43Y-3.46
X4.58Y-3.26
X4.58Y-3.36
X4.58Y-3.46
X4.73Y-3.26
X4.73Y-3.36
X4.73Y-3.46
X4.88Y-3.26
X4.88Y-3.36
X4.88Y-3.46
X5.03Y-3.26
X5.03Y-3.36
X5.03Y-3.46
X5.18Y-3.26
X5.18Y-3.36
X5.18Y-3.46
X5.33Y-3.26
X5.33Y-3.36
X5.33Y-3.46
X5.7877Y-3.3423
X5.8877Y-3.3423
X5.9877Y-3.3423
X6.63Y-2.92
X6.63Y-3.02
X6.63Y-3.12
X6.63Y-3.22
X6.63Y-3.32
T6
X4.4291Y-2.5236
X4.4292Y-3.6692
X6.7717Y-2.5197
X6.7717Y-3.6693
T3
G00X5.4498Y-3.563
M15
G01X5.4498Y-3.6063
M16
G05
G00X5.4498Y-3.7343
M15
G01X5.4498Y-3.7657
M16
G05
G00X5.79Y-3.563
M15
G01X5.79Y-3.6063
M16
G05
G00X5.79Y-3.7343
M15
G01X5.79Y-3.7657
M16
G05
M30
