%TF.GenerationSoftware,KiCad,Pcbnew,9.0.7*%
%TF.CreationDate,2026-02-15T15:39:24-05:00*%
%TF.ProjectId,BezelBud,42657a65-6c42-4756-942e-6b696361645f,rev?*%
%TF.SameCoordinates,Original*%
%TF.FileFunction,Copper,L3,Inr*%
%TF.FilePolarity,Positive*%
%FSLAX46Y46*%
G04 Gerber Fmt 4.6, Leading zero omitted, Abs format (unit mm)*
G04 Created by KiCad (PCBNEW 9.0.7) date 2026-02-15 15:39:24*
%MOMM*%
%LPD*%
G01*
G04 APERTURE LIST*
%TA.AperFunction,ComponentPad*%
%ADD10C,0.800000*%
%TD*%
%TA.AperFunction,ComponentPad*%
%ADD11C,6.400000*%
%TD*%
%TA.AperFunction,ComponentPad*%
%ADD12C,1.400000*%
%TD*%
%TA.AperFunction,ComponentPad*%
%ADD13C,1.700000*%
%TD*%
%TA.AperFunction,ComponentPad*%
%ADD14R,1.700000X1.700000*%
%TD*%
%TA.AperFunction,HeatsinkPad*%
%ADD15O,1.000000X2.100000*%
%TD*%
%TA.AperFunction,HeatsinkPad*%
%ADD16O,1.000000X1.800000*%
%TD*%
%TA.AperFunction,ViaPad*%
%ADD17C,0.600000*%
%TD*%
G04 APERTURE END LIST*
D10*
%TO.N,GND*%
%TO.C,H4*%
X169600000Y-93200000D03*
X170302944Y-91502944D03*
X170302944Y-94897056D03*
X172000000Y-90800000D03*
D11*
X172000000Y-93200000D03*
D10*
X172000000Y-95600000D03*
X173697056Y-91502944D03*
X173697056Y-94897056D03*
X174400000Y-93200000D03*
%TD*%
%TO.N,GND*%
%TO.C,H3*%
X110102944Y-93197056D03*
X110805888Y-91500000D03*
X110805888Y-94894112D03*
X112502944Y-90797056D03*
D11*
X112502944Y-93197056D03*
D10*
X112502944Y-95597056D03*
X114200000Y-91500000D03*
X114200000Y-94894112D03*
X114902944Y-93197056D03*
%TD*%
%TO.N,GND*%
%TO.C,H2*%
X169600000Y-64000000D03*
X170302944Y-62302944D03*
X170302944Y-65697056D03*
X172000000Y-61600000D03*
D11*
X172000000Y-64000000D03*
D10*
X172000000Y-66400000D03*
X173697056Y-62302944D03*
X173697056Y-65697056D03*
X174400000Y-64000000D03*
%TD*%
%TO.N,GND*%
%TO.C,H1*%
X110100000Y-64100000D03*
X110802944Y-62402944D03*
X110802944Y-65797056D03*
X112500000Y-61700000D03*
D11*
X112500000Y-64100000D03*
D10*
X112500000Y-66500000D03*
X114197056Y-62402944D03*
X114197056Y-65797056D03*
X114900000Y-64100000D03*
%TD*%
D12*
%TO.N,GND*%
%TO.C,MICR1*%
X133986663Y-63589979D03*
%TO.N,/MICR*%
X132086663Y-63589979D03*
%TD*%
%TO.N,GND*%
%TO.C,MICL1*%
X136144000Y-63589979D03*
%TO.N,/MICL*%
X138044000Y-63589979D03*
%TD*%
D13*
%TO.N,GND*%
%TO.C,SW9*%
X135382000Y-87884000D03*
%TO.N,/MD6*%
X135382000Y-85344000D03*
D14*
%TO.N,+3.3V*%
X135382000Y-82804000D03*
%TD*%
D13*
%TO.N,GND*%
%TO.C,SW8*%
X127762000Y-87884000D03*
%TO.N,/MD4*%
X127762000Y-85344000D03*
D14*
%TO.N,+3.3V*%
X127762000Y-82804000D03*
%TD*%
D13*
%TO.N,GND*%
%TO.C,SW5*%
X131572000Y-87884000D03*
%TO.N,/MD5*%
X131572000Y-85344000D03*
D14*
%TO.N,+3.3V*%
X131572000Y-82804000D03*
%TD*%
D13*
%TO.N,GND*%
%TO.C,SW4*%
X120142000Y-87884000D03*
%TO.N,/MD2*%
X120142000Y-85344000D03*
D14*
%TO.N,+3.3V*%
X120142000Y-82804000D03*
%TD*%
D13*
%TO.N,GND*%
%TO.C,SW6*%
X112522000Y-87884000D03*
%TO.N,/MD0*%
X112522000Y-85344000D03*
D14*
%TO.N,+3.3V*%
X112522000Y-82804000D03*
%TD*%
D13*
%TO.N,GND*%
%TO.C,SW3*%
X116332000Y-87884000D03*
%TO.N,/MD1*%
X116332000Y-85344000D03*
D14*
%TO.N,+3.3V*%
X116332000Y-82804000D03*
%TD*%
D13*
%TO.N,GND*%
%TO.C,SW7*%
X123952000Y-87884000D03*
%TO.N,/MD3*%
X123952000Y-85344000D03*
D14*
%TO.N,+3.3V*%
X123952000Y-82804000D03*
%TD*%
D15*
%TO.N,GND*%
%TO.C,J1*%
X138426000Y-91050000D03*
D16*
X138426000Y-95250000D03*
D15*
X147066000Y-91050000D03*
D16*
X147066000Y-95250000D03*
%TD*%
D14*
%TO.N,GND*%
%TO.C,J2*%
X168402000Y-74168000D03*
D13*
%TO.N,/NRST*%
X168402000Y-76708000D03*
%TO.N,/SWLCK*%
X168402000Y-79248000D03*
%TO.N,/SWDIO*%
X168402000Y-81788000D03*
%TO.N,+3.3V*%
X168402000Y-84328000D03*
%TD*%
D14*
%TO.N,GND*%
%TO.C,SW2*%
X147008810Y-84895043D03*
D13*
%TO.N,/BOOT0*%
X149548810Y-84895043D03*
%TO.N,/BOOT_H*%
X152088810Y-84895043D03*
%TD*%
D17*
%TO.N,GND*%
X172654000Y-78400000D03*
X144700000Y-84300000D03*
X144700000Y-78800000D03*
X170200000Y-80600000D03*
%TO.N,+3.3V*%
X138400000Y-81500000D03*
%TO.N,GND*%
X109100000Y-75100000D03*
X134292021Y-69714551D03*
X138000000Y-68500000D03*
X132100000Y-68500000D03*
X159200000Y-77400000D03*
X159200000Y-75100000D03*
X165100000Y-78500000D03*
X166300000Y-77200000D03*
X166300000Y-75000000D03*
%TO.N,/MUTE_SW*%
X150424265Y-83424265D03*
X140000000Y-84800000D03*
%TO.N,+3.3V*%
X159800000Y-85200000D03*
X157800000Y-85200000D03*
X159800000Y-84000000D03*
X157800000Y-84000000D03*
%TO.N,GND*%
X138100000Y-73000000D03*
X134600000Y-73000000D03*
X131800000Y-75100000D03*
X143100000Y-75900000D03*
X140250000Y-77750000D03*
X137500000Y-80250000D03*
X133750000Y-80250000D03*
%TO.N,+3.3V*%
X139962500Y-82712500D03*
%TO.N,GND*%
X127000000Y-78250000D03*
X131000000Y-78250000D03*
X123250000Y-77250000D03*
X139600000Y-62105979D03*
X135000000Y-62105979D03*
X130600000Y-62105979D03*
X139600000Y-64400000D03*
X130500000Y-64400000D03*
X132100000Y-65800000D03*
X138000000Y-65800000D03*
X135000000Y-65200000D03*
X161000000Y-82500000D03*
X160600000Y-80750000D03*
%TO.N,/SWDIO*%
X166250000Y-81750000D03*
X153000000Y-75900000D03*
%TO.N,/SWLCK*%
X154250000Y-76500000D03*
X166600000Y-80200000D03*
%TO.N,/LED_BLINK*%
X158150000Y-92750000D03*
X150000000Y-89500000D03*
%TO.N,/LED_LIVE*%
X163000000Y-92750000D03*
X151000000Y-89000000D03*
%TO.N,GND*%
X146287000Y-71463000D03*
X143500000Y-71250000D03*
X139500000Y-71250000D03*
X135500000Y-71250000D03*
X131500000Y-71250000D03*
X112966848Y-75148598D03*
X120966848Y-75148598D03*
X116966848Y-75148598D03*
X176300000Y-71300000D03*
X172750000Y-71250000D03*
X168750000Y-71250000D03*
X164750000Y-71250000D03*
X160750000Y-71250000D03*
%TO.N,+3.3V*%
X146475000Y-80750000D03*
X147837000Y-71413000D03*
%TO.N,GND*%
X148025000Y-78750000D03*
X153500000Y-95100000D03*
X152000000Y-95100000D03*
X142750000Y-88250000D03*
X159000000Y-87630000D03*
%TO.N,/MD6*%
X128409407Y-74450623D03*
%TO.N,/MD1*%
X126760000Y-71490000D03*
%TO.N,/MD2*%
X127577218Y-72512378D03*
%TO.N,/MD4*%
X127617655Y-73320470D03*
%TO.N,/MD5*%
X128375882Y-73575607D03*
%TO.N,/MD3*%
X126808832Y-72289697D03*
%TO.N,/MD0*%
X125964485Y-71405378D03*
%TO.N,GND*%
X125189352Y-71890000D03*
X123226000Y-92800000D03*
X149301146Y-77279226D03*
X151900000Y-72200000D03*
X150221126Y-72236085D03*
X154400000Y-77773520D03*
X154500000Y-68678500D03*
X154700000Y-66900500D03*
X147600000Y-66900500D03*
X147750000Y-68678500D03*
X120011010Y-69388924D03*
X125189352Y-74390000D03*
X128600000Y-67056000D03*
X121749999Y-66725946D03*
X120970024Y-71490000D03*
X160600000Y-79171501D03*
X175900000Y-82300000D03*
X159500000Y-72475499D03*
X174700000Y-72765500D03*
X174750000Y-79237000D03*
X121750000Y-79000000D03*
X118750000Y-78431635D03*
X175900000Y-84600000D03*
X156750000Y-71250000D03*
X161500000Y-72750000D03*
X119250000Y-73914000D03*
X165100000Y-73500000D03*
X155250000Y-85500000D03*
X161500000Y-79250000D03*
X155564000Y-93750000D03*
X163400000Y-78500000D03*
X162306000Y-89750000D03*
X163400000Y-73500000D03*
X165900000Y-87700000D03*
%TD*%
%TA.AperFunction,Conductor*%
%TO.N,GND*%
G36*
X174295736Y-59194726D02*
G01*
X174585796Y-59212271D01*
X174600659Y-59214076D01*
X174882798Y-59265780D01*
X174897335Y-59269363D01*
X175171172Y-59354695D01*
X175185163Y-59360000D01*
X175446743Y-59477727D01*
X175459989Y-59484680D01*
X175705465Y-59633075D01*
X175717776Y-59641573D01*
X175943573Y-59818473D01*
X175954781Y-59828403D01*
X176157596Y-60031218D01*
X176167526Y-60042426D01*
X176287481Y-60195538D01*
X176344422Y-60268217D01*
X176352928Y-60280540D01*
X176501316Y-60526004D01*
X176508275Y-60539263D01*
X176625997Y-60800831D01*
X176631306Y-60814832D01*
X176716635Y-61088663D01*
X176720219Y-61103201D01*
X176771923Y-61385340D01*
X176773728Y-61400205D01*
X176791274Y-61690263D01*
X176791500Y-61697750D01*
X176791500Y-95278249D01*
X176791274Y-95285736D01*
X176773728Y-95575794D01*
X176771923Y-95590659D01*
X176720219Y-95872798D01*
X176716635Y-95887336D01*
X176631306Y-96161167D01*
X176625997Y-96175168D01*
X176508275Y-96436736D01*
X176501316Y-96449995D01*
X176352928Y-96695459D01*
X176344422Y-96707782D01*
X176167526Y-96933573D01*
X176157596Y-96944781D01*
X175954781Y-97147596D01*
X175943573Y-97157526D01*
X175717782Y-97334422D01*
X175705459Y-97342928D01*
X175459995Y-97491316D01*
X175446736Y-97498275D01*
X175185168Y-97615997D01*
X175171167Y-97621306D01*
X174897336Y-97706635D01*
X174882798Y-97710219D01*
X174600659Y-97761923D01*
X174585794Y-97763728D01*
X174295736Y-97781274D01*
X174288249Y-97781500D01*
X110191751Y-97781500D01*
X110184264Y-97781274D01*
X109894205Y-97763728D01*
X109879340Y-97761923D01*
X109597201Y-97710219D01*
X109582663Y-97706635D01*
X109308832Y-97621306D01*
X109294831Y-97615997D01*
X109033263Y-97498275D01*
X109020004Y-97491316D01*
X108774540Y-97342928D01*
X108762217Y-97334422D01*
X108536426Y-97157526D01*
X108525218Y-97147596D01*
X108322403Y-96944781D01*
X108312473Y-96933573D01*
X108135573Y-96707776D01*
X108127075Y-96695465D01*
X107978680Y-96449989D01*
X107971727Y-96436743D01*
X107854000Y-96175163D01*
X107848693Y-96161167D01*
X107819204Y-96066533D01*
X123300499Y-96066533D01*
X123326458Y-96197030D01*
X123326461Y-96197040D01*
X123377376Y-96319961D01*
X123377386Y-96319979D01*
X123451301Y-96430601D01*
X123451307Y-96430609D01*
X123545390Y-96524692D01*
X123545398Y-96524698D01*
X123656020Y-96598613D01*
X123656023Y-96598614D01*
X123656031Y-96598620D01*
X123778964Y-96649540D01*
X123778968Y-96649540D01*
X123778969Y-96649541D01*
X123909466Y-96675500D01*
X123909469Y-96675500D01*
X124042533Y-96675500D01*
X124130325Y-96658035D01*
X124173036Y-96649540D01*
X124295969Y-96598620D01*
X124406606Y-96524695D01*
X124500695Y-96430606D01*
X124574620Y-96319969D01*
X124625540Y-96197036D01*
X124651500Y-96066533D01*
X126300499Y-96066533D01*
X126326458Y-96197030D01*
X126326461Y-96197040D01*
X126377376Y-96319961D01*
X126377386Y-96319979D01*
X126451301Y-96430601D01*
X126451307Y-96430609D01*
X126545390Y-96524692D01*
X126545398Y-96524698D01*
X126656020Y-96598613D01*
X126656023Y-96598614D01*
X126656031Y-96598620D01*
X126778964Y-96649540D01*
X126778968Y-96649540D01*
X126778969Y-96649541D01*
X126909466Y-96675500D01*
X126909469Y-96675500D01*
X127042533Y-96675500D01*
X127130325Y-96658035D01*
X127173036Y-96649540D01*
X127295969Y-96598620D01*
X127406606Y-96524695D01*
X127500695Y-96430606D01*
X127574620Y-96319969D01*
X127625540Y-96197036D01*
X127651500Y-96066531D01*
X127651500Y-95933469D01*
X127651500Y-95933466D01*
X127625541Y-95802969D01*
X127625540Y-95802968D01*
X127625540Y-95802964D01*
X127594818Y-95728794D01*
X127574623Y-95680038D01*
X127574622Y-95680037D01*
X127574620Y-95680031D01*
X127504971Y-95575794D01*
X127500698Y-95569398D01*
X127500692Y-95569390D01*
X127406609Y-95475307D01*
X127406601Y-95475301D01*
X127295979Y-95401386D01*
X127295972Y-95401382D01*
X127295969Y-95401380D01*
X127295965Y-95401378D01*
X127295961Y-95401376D01*
X127173040Y-95350461D01*
X127173030Y-95350458D01*
X127042533Y-95324500D01*
X127042531Y-95324500D01*
X126909469Y-95324500D01*
X126909467Y-95324500D01*
X126778969Y-95350458D01*
X126778959Y-95350461D01*
X126656038Y-95401376D01*
X126656020Y-95401386D01*
X126545398Y-95475301D01*
X126545390Y-95475307D01*
X126451307Y-95569390D01*
X126451301Y-95569398D01*
X126377386Y-95680020D01*
X126377376Y-95680038D01*
X126326461Y-95802959D01*
X126326458Y-95802969D01*
X126300500Y-95933466D01*
X126300500Y-95933469D01*
X126300500Y-96066531D01*
X126300500Y-96066533D01*
X126300499Y-96066533D01*
X124651500Y-96066533D01*
X124651500Y-96066531D01*
X124651500Y-95933469D01*
X124651500Y-95933466D01*
X124625541Y-95802969D01*
X124625540Y-95802968D01*
X124625540Y-95802964D01*
X124594818Y-95728794D01*
X124574623Y-95680038D01*
X124574622Y-95680037D01*
X124574620Y-95680031D01*
X124504971Y-95575794D01*
X124500698Y-95569398D01*
X124500692Y-95569390D01*
X124406609Y-95475307D01*
X124406601Y-95475301D01*
X124295979Y-95401386D01*
X124295972Y-95401382D01*
X124295969Y-95401380D01*
X124295965Y-95401378D01*
X124295961Y-95401376D01*
X124173040Y-95350461D01*
X124173030Y-95350458D01*
X124042533Y-95324500D01*
X124042531Y-95324500D01*
X123909469Y-95324500D01*
X123909467Y-95324500D01*
X123778969Y-95350458D01*
X123778959Y-95350461D01*
X123656038Y-95401376D01*
X123656020Y-95401386D01*
X123545398Y-95475301D01*
X123545390Y-95475307D01*
X123451307Y-95569390D01*
X123451301Y-95569398D01*
X123377386Y-95680020D01*
X123377376Y-95680038D01*
X123326461Y-95802959D01*
X123326458Y-95802969D01*
X123300500Y-95933466D01*
X123300500Y-95933469D01*
X123300500Y-96066531D01*
X123300500Y-96066533D01*
X123300499Y-96066533D01*
X107819204Y-96066533D01*
X107819203Y-96066531D01*
X107763362Y-95887331D01*
X107759780Y-95872798D01*
X107708076Y-95590659D01*
X107706271Y-95575794D01*
X107688726Y-95285736D01*
X107688500Y-95278249D01*
X107688500Y-94771202D01*
X137626000Y-94771202D01*
X137626000Y-95000000D01*
X138126000Y-95000000D01*
X138126000Y-95500000D01*
X137626000Y-95500000D01*
X137626000Y-95728797D01*
X137656741Y-95883343D01*
X137656743Y-95883351D01*
X137717047Y-96028939D01*
X137717052Y-96028948D01*
X137804598Y-96159969D01*
X137804601Y-96159973D01*
X137916026Y-96271398D01*
X137916034Y-96271404D01*
X138047047Y-96358944D01*
X138047065Y-96358954D01*
X138175999Y-96412360D01*
X138176000Y-96412360D01*
X138176000Y-95816988D01*
X138185940Y-95834205D01*
X138241795Y-95890060D01*
X138310204Y-95929556D01*
X138386504Y-95950000D01*
X138465496Y-95950000D01*
X138541796Y-95929556D01*
X138610205Y-95890060D01*
X138666060Y-95834205D01*
X138676000Y-95816988D01*
X138676000Y-96412360D01*
X138804934Y-96358954D01*
X138804952Y-96358944D01*
X138935965Y-96271404D01*
X138935973Y-96271398D01*
X139047398Y-96159973D01*
X139047401Y-96159969D01*
X139134947Y-96028948D01*
X139134952Y-96028939D01*
X139195256Y-95883351D01*
X139195258Y-95883343D01*
X139225999Y-95728797D01*
X139226000Y-95728794D01*
X139226000Y-95500000D01*
X138726000Y-95500000D01*
X138726000Y-95000000D01*
X139226000Y-95000000D01*
X139226000Y-94771206D01*
X139225999Y-94771202D01*
X146266000Y-94771202D01*
X146266000Y-95000000D01*
X146766000Y-95000000D01*
X146766000Y-95500000D01*
X146266000Y-95500000D01*
X146266000Y-95728797D01*
X146296741Y-95883343D01*
X146296743Y-95883351D01*
X146357047Y-96028939D01*
X146357052Y-96028948D01*
X146444598Y-96159969D01*
X146444601Y-96159973D01*
X146556026Y-96271398D01*
X146556034Y-96271404D01*
X146687047Y-96358944D01*
X146687065Y-96358954D01*
X146815999Y-96412360D01*
X146816000Y-96412360D01*
X146816000Y-95816988D01*
X146825940Y-95834205D01*
X146881795Y-95890060D01*
X146950204Y-95929556D01*
X147026504Y-95950000D01*
X147105496Y-95950000D01*
X147181796Y-95929556D01*
X147250205Y-95890060D01*
X147306060Y-95834205D01*
X147316000Y-95816988D01*
X147316000Y-96412360D01*
X147444934Y-96358954D01*
X147444952Y-96358944D01*
X147575965Y-96271404D01*
X147575973Y-96271398D01*
X147687398Y-96159973D01*
X147687401Y-96159969D01*
X147774947Y-96028948D01*
X147774952Y-96028939D01*
X147835256Y-95883351D01*
X147835258Y-95883343D01*
X147865999Y-95728797D01*
X147866000Y-95728794D01*
X147866000Y-95500000D01*
X147366000Y-95500000D01*
X147366000Y-95000000D01*
X147866000Y-95000000D01*
X147866000Y-94771206D01*
X147865999Y-94771202D01*
X147835258Y-94616656D01*
X147835256Y-94616648D01*
X147774952Y-94471060D01*
X147774947Y-94471051D01*
X147687401Y-94340030D01*
X147687398Y-94340026D01*
X147575973Y-94228601D01*
X147575969Y-94228598D01*
X147444948Y-94141052D01*
X147444938Y-94141047D01*
X147316000Y-94087639D01*
X147316000Y-94683011D01*
X147306060Y-94665795D01*
X147250205Y-94609940D01*
X147181796Y-94570444D01*
X147105496Y-94550000D01*
X147026504Y-94550000D01*
X146950204Y-94570444D01*
X146881795Y-94609940D01*
X146825940Y-94665795D01*
X146816000Y-94683011D01*
X146816000Y-94087639D01*
X146815999Y-94087639D01*
X146687061Y-94141047D01*
X146687051Y-94141052D01*
X146556030Y-94228598D01*
X146556026Y-94228601D01*
X146444601Y-94340026D01*
X146444598Y-94340030D01*
X146357052Y-94471051D01*
X146357047Y-94471060D01*
X146296743Y-94616648D01*
X146296741Y-94616656D01*
X146266000Y-94771202D01*
X139225999Y-94771202D01*
X139195258Y-94616656D01*
X139195256Y-94616648D01*
X139134952Y-94471060D01*
X139134947Y-94471051D01*
X139047401Y-94340030D01*
X139047398Y-94340026D01*
X138935973Y-94228601D01*
X138935969Y-94228598D01*
X138804948Y-94141052D01*
X138804938Y-94141047D01*
X138676000Y-94087639D01*
X138676000Y-94683011D01*
X138666060Y-94665795D01*
X138610205Y-94609940D01*
X138541796Y-94570444D01*
X138465496Y-94550000D01*
X138386504Y-94550000D01*
X138310204Y-94570444D01*
X138241795Y-94609940D01*
X138185940Y-94665795D01*
X138176000Y-94683011D01*
X138176000Y-94087639D01*
X138175999Y-94087639D01*
X138047061Y-94141047D01*
X138047051Y-94141052D01*
X137916030Y-94228598D01*
X137916026Y-94228601D01*
X137804601Y-94340026D01*
X137804598Y-94340030D01*
X137717052Y-94471051D01*
X137717047Y-94471060D01*
X137656743Y-94616648D01*
X137656741Y-94616656D01*
X137626000Y-94771202D01*
X107688500Y-94771202D01*
X107688500Y-92677525D01*
X157599500Y-92677525D01*
X157599500Y-92822475D01*
X157637016Y-92962485D01*
X157637017Y-92962488D01*
X157709488Y-93088011D01*
X157709490Y-93088013D01*
X157709491Y-93088015D01*
X157811985Y-93190509D01*
X157811986Y-93190510D01*
X157811988Y-93190511D01*
X157937511Y-93262982D01*
X157937512Y-93262982D01*
X157937515Y-93262984D01*
X158077525Y-93300500D01*
X158077528Y-93300500D01*
X158222472Y-93300500D01*
X158222475Y-93300500D01*
X158362485Y-93262984D01*
X158488015Y-93190509D01*
X158590509Y-93088015D01*
X158662984Y-92962485D01*
X158700500Y-92822475D01*
X158700500Y-92677525D01*
X162449500Y-92677525D01*
X162449500Y-92822475D01*
X162487016Y-92962485D01*
X162487017Y-92962488D01*
X162559488Y-93088011D01*
X162559490Y-93088013D01*
X162559491Y-93088015D01*
X162661985Y-93190509D01*
X162661986Y-93190510D01*
X162661988Y-93190511D01*
X162787511Y-93262982D01*
X162787512Y-93262982D01*
X162787515Y-93262984D01*
X162927525Y-93300500D01*
X162927528Y-93300500D01*
X163072472Y-93300500D01*
X163072475Y-93300500D01*
X163212485Y-93262984D01*
X163338015Y-93190509D01*
X163440509Y-93088015D01*
X163512984Y-92962485D01*
X163550500Y-92822475D01*
X163550500Y-92677525D01*
X163512984Y-92537515D01*
X163440509Y-92411985D01*
X163338015Y-92309491D01*
X163338013Y-92309490D01*
X163338011Y-92309488D01*
X163212488Y-92237017D01*
X163212489Y-92237017D01*
X163201006Y-92233940D01*
X163072475Y-92199500D01*
X162927525Y-92199500D01*
X162798993Y-92233940D01*
X162787511Y-92237017D01*
X162661988Y-92309488D01*
X162661982Y-92309493D01*
X162559493Y-92411982D01*
X162559488Y-92411988D01*
X162487017Y-92537511D01*
X162487016Y-92537515D01*
X162449500Y-92677525D01*
X158700500Y-92677525D01*
X158662984Y-92537515D01*
X158590509Y-92411985D01*
X158488015Y-92309491D01*
X158488013Y-92309490D01*
X158488011Y-92309488D01*
X158362488Y-92237017D01*
X158362489Y-92237017D01*
X158351006Y-92233940D01*
X158222475Y-92199500D01*
X158077525Y-92199500D01*
X157948993Y-92233940D01*
X157937511Y-92237017D01*
X157811988Y-92309488D01*
X157811982Y-92309493D01*
X157709493Y-92411982D01*
X157709488Y-92411988D01*
X157637017Y-92537511D01*
X157637016Y-92537515D01*
X157599500Y-92677525D01*
X107688500Y-92677525D01*
X107688500Y-90421202D01*
X137626000Y-90421202D01*
X137626000Y-90800000D01*
X138126000Y-90800000D01*
X138126000Y-91300000D01*
X137626000Y-91300000D01*
X137626000Y-91678797D01*
X137656741Y-91833343D01*
X137656743Y-91833351D01*
X137717047Y-91978939D01*
X137717052Y-91978948D01*
X137804598Y-92109969D01*
X137804601Y-92109973D01*
X137916026Y-92221398D01*
X137916034Y-92221404D01*
X138047047Y-92308944D01*
X138047065Y-92308954D01*
X138175999Y-92362360D01*
X138176000Y-92362360D01*
X138176000Y-91766988D01*
X138185940Y-91784205D01*
X138241795Y-91840060D01*
X138310204Y-91879556D01*
X138386504Y-91900000D01*
X138465496Y-91900000D01*
X138541796Y-91879556D01*
X138610205Y-91840060D01*
X138666060Y-91784205D01*
X138676000Y-91766988D01*
X138676000Y-92362360D01*
X138804934Y-92308954D01*
X138804952Y-92308944D01*
X138935965Y-92221404D01*
X138935973Y-92221398D01*
X139047398Y-92109973D01*
X139047401Y-92109969D01*
X139134947Y-91978948D01*
X139134951Y-91978941D01*
X139160964Y-91916139D01*
X139204805Y-91861735D01*
X139271099Y-91839669D01*
X139338798Y-91856948D01*
X139382911Y-91901587D01*
X139395485Y-91923365D01*
X139502635Y-92030515D01*
X139633865Y-92106281D01*
X139780234Y-92145500D01*
X139780236Y-92145500D01*
X139931764Y-92145500D01*
X139931766Y-92145500D01*
X140078135Y-92106281D01*
X140209365Y-92030515D01*
X140316515Y-91923365D01*
X140392281Y-91792135D01*
X140431500Y-91645766D01*
X140431500Y-91494234D01*
X145060500Y-91494234D01*
X145060500Y-91645765D01*
X145099719Y-91792136D01*
X145127441Y-91840151D01*
X145175485Y-91923365D01*
X145282635Y-92030515D01*
X145413865Y-92106281D01*
X145560234Y-92145500D01*
X145560236Y-92145500D01*
X145711764Y-92145500D01*
X145711766Y-92145500D01*
X145858135Y-92106281D01*
X145989365Y-92030515D01*
X146096515Y-91923365D01*
X146109086Y-91901590D01*
X146159651Y-91853376D01*
X146228257Y-91840151D01*
X146293123Y-91866118D01*
X146331034Y-91916137D01*
X146357047Y-91978938D01*
X146357052Y-91978948D01*
X146444598Y-92109969D01*
X146444601Y-92109973D01*
X146556026Y-92221398D01*
X146556034Y-92221404D01*
X146687047Y-92308944D01*
X146687065Y-92308954D01*
X146815999Y-92362360D01*
X146816000Y-92362360D01*
X146816000Y-91766988D01*
X146825940Y-91784205D01*
X146881795Y-91840060D01*
X146950204Y-91879556D01*
X147026504Y-91900000D01*
X147105496Y-91900000D01*
X147181796Y-91879556D01*
X147250205Y-91840060D01*
X147306060Y-91784205D01*
X147316000Y-91766988D01*
X147316000Y-92362360D01*
X147444934Y-92308954D01*
X147444952Y-92308944D01*
X147575965Y-92221404D01*
X147575973Y-92221398D01*
X147687398Y-92109973D01*
X147687401Y-92109969D01*
X147774947Y-91978948D01*
X147774952Y-91978939D01*
X147835256Y-91833351D01*
X147835258Y-91833343D01*
X147865999Y-91678797D01*
X147866000Y-91678794D01*
X147866000Y-91300000D01*
X147366000Y-91300000D01*
X147366000Y-90800000D01*
X147866000Y-90800000D01*
X147866000Y-90421206D01*
X147865999Y-90421202D01*
X147835258Y-90266656D01*
X147835256Y-90266648D01*
X147774952Y-90121060D01*
X147774947Y-90121051D01*
X147687401Y-89990030D01*
X147687398Y-89990026D01*
X147575973Y-89878601D01*
X147575969Y-89878598D01*
X147444948Y-89791052D01*
X147444938Y-89791047D01*
X147316000Y-89737639D01*
X147316000Y-90333011D01*
X147306060Y-90315795D01*
X147250205Y-90259940D01*
X147181796Y-90220444D01*
X147105496Y-90200000D01*
X147026504Y-90200000D01*
X146950204Y-90220444D01*
X146881795Y-90259940D01*
X146825940Y-90315795D01*
X146816000Y-90333011D01*
X146816000Y-89737639D01*
X146815999Y-89737639D01*
X146687061Y-89791047D01*
X146687051Y-89791052D01*
X146556030Y-89878598D01*
X146556026Y-89878601D01*
X146444601Y-89990026D01*
X146444598Y-89990030D01*
X146357052Y-90121051D01*
X146357047Y-90121060D01*
X146296743Y-90266648D01*
X146296741Y-90266656D01*
X146266000Y-90421202D01*
X146266000Y-90800000D01*
X146766000Y-90800000D01*
X146766000Y-91300000D01*
X146216237Y-91300000D01*
X146149198Y-91280315D01*
X146108850Y-91238000D01*
X146096515Y-91216635D01*
X145989365Y-91109485D01*
X145923750Y-91071602D01*
X145858136Y-91033719D01*
X145784950Y-91014109D01*
X145711766Y-90994500D01*
X145560234Y-90994500D01*
X145413863Y-91033719D01*
X145282635Y-91109485D01*
X145282632Y-91109487D01*
X145175487Y-91216632D01*
X145175485Y-91216635D01*
X145099719Y-91347863D01*
X145060500Y-91494234D01*
X140431500Y-91494234D01*
X140392281Y-91347865D01*
X140316515Y-91216635D01*
X140209365Y-91109485D01*
X140143750Y-91071602D01*
X140078136Y-91033719D01*
X140004950Y-91014109D01*
X139931766Y-90994500D01*
X139780234Y-90994500D01*
X139633863Y-91033719D01*
X139502635Y-91109485D01*
X139502632Y-91109487D01*
X139395487Y-91216632D01*
X139395483Y-91216638D01*
X139383150Y-91238000D01*
X139332583Y-91286216D01*
X139275763Y-91300000D01*
X138726000Y-91300000D01*
X138726000Y-90800000D01*
X139226000Y-90800000D01*
X139226000Y-90421206D01*
X139225999Y-90421202D01*
X139195258Y-90266656D01*
X139195256Y-90266648D01*
X139134952Y-90121060D01*
X139134947Y-90121051D01*
X139047401Y-89990030D01*
X139047398Y-89990026D01*
X138935973Y-89878601D01*
X138935969Y-89878598D01*
X138804948Y-89791052D01*
X138804938Y-89791047D01*
X138676000Y-89737639D01*
X138676000Y-90333011D01*
X138666060Y-90315795D01*
X138610205Y-90259940D01*
X138541796Y-90220444D01*
X138465496Y-90200000D01*
X138386504Y-90200000D01*
X138310204Y-90220444D01*
X138241795Y-90259940D01*
X138185940Y-90315795D01*
X138176000Y-90333011D01*
X138176000Y-89737639D01*
X138175999Y-89737639D01*
X138047061Y-89791047D01*
X138047051Y-89791052D01*
X137916030Y-89878598D01*
X137916026Y-89878601D01*
X137804601Y-89990026D01*
X137804598Y-89990030D01*
X137717052Y-90121051D01*
X137717047Y-90121060D01*
X137656743Y-90266648D01*
X137656741Y-90266656D01*
X137626000Y-90421202D01*
X107688500Y-90421202D01*
X107688500Y-89427525D01*
X149449500Y-89427525D01*
X149449500Y-89572475D01*
X149487016Y-89712485D01*
X149487017Y-89712488D01*
X149559488Y-89838011D01*
X149559490Y-89838013D01*
X149559491Y-89838015D01*
X149661985Y-89940509D01*
X149661986Y-89940510D01*
X149661988Y-89940511D01*
X149787511Y-90012982D01*
X149787512Y-90012982D01*
X149787515Y-90012984D01*
X149927525Y-90050500D01*
X149927528Y-90050500D01*
X150072472Y-90050500D01*
X150072475Y-90050500D01*
X150212485Y-90012984D01*
X150338015Y-89940509D01*
X150440509Y-89838015D01*
X150512984Y-89712485D01*
X150550500Y-89572475D01*
X150550500Y-89572472D01*
X150552603Y-89564624D01*
X150554253Y-89565066D01*
X150578556Y-89510116D01*
X150636877Y-89471639D01*
X150706741Y-89470800D01*
X150735238Y-89482802D01*
X150787509Y-89512981D01*
X150787510Y-89512982D01*
X150787512Y-89512982D01*
X150787515Y-89512984D01*
X150927525Y-89550500D01*
X150927528Y-89550500D01*
X151072472Y-89550500D01*
X151072475Y-89550500D01*
X151212485Y-89512984D01*
X151338015Y-89440509D01*
X151440509Y-89338015D01*
X151512984Y-89212485D01*
X151550500Y-89072475D01*
X151550500Y-88927525D01*
X151512984Y-88787515D01*
X151440509Y-88661985D01*
X151338015Y-88559491D01*
X151338013Y-88559490D01*
X151338011Y-88559488D01*
X151212488Y-88487017D01*
X151212489Y-88487017D01*
X151201006Y-88483940D01*
X151072475Y-88449500D01*
X150927525Y-88449500D01*
X150798993Y-88483940D01*
X150787511Y-88487017D01*
X150661988Y-88559488D01*
X150661982Y-88559493D01*
X150559493Y-88661982D01*
X150559488Y-88661988D01*
X150487017Y-88787511D01*
X150487016Y-88787515D01*
X150449500Y-88927525D01*
X150449500Y-88927527D01*
X150447397Y-88935376D01*
X150445748Y-88934934D01*
X150421429Y-88989899D01*
X150363102Y-89028366D01*
X150293238Y-89029193D01*
X150264763Y-89017198D01*
X150212485Y-88987016D01*
X150072475Y-88949500D01*
X149927525Y-88949500D01*
X149798993Y-88983940D01*
X149787511Y-88987017D01*
X149661988Y-89059488D01*
X149661982Y-89059493D01*
X149559493Y-89161982D01*
X149559488Y-89161988D01*
X149487017Y-89287511D01*
X149487016Y-89287515D01*
X149449500Y-89427525D01*
X107688500Y-89427525D01*
X107688500Y-87793493D01*
X111372000Y-87793493D01*
X111372000Y-87974506D01*
X111400317Y-88153293D01*
X111456251Y-88325444D01*
X111456252Y-88325447D01*
X111538431Y-88486730D01*
X111549913Y-88502532D01*
X111549913Y-88502533D01*
X112039037Y-88013409D01*
X112056075Y-88076993D01*
X112121901Y-88191007D01*
X112214993Y-88284099D01*
X112329007Y-88349925D01*
X112392590Y-88366962D01*
X111903466Y-88856085D01*
X111903466Y-88856086D01*
X111919267Y-88867566D01*
X111919275Y-88867571D01*
X112080552Y-88949747D01*
X112080555Y-88949748D01*
X112252706Y-89005682D01*
X112431494Y-89034000D01*
X112612506Y-89034000D01*
X112791293Y-89005682D01*
X112963444Y-88949748D01*
X112963452Y-88949745D01*
X113124730Y-88867568D01*
X113140532Y-88856085D01*
X113140533Y-88856085D01*
X112651410Y-88366962D01*
X112714993Y-88349925D01*
X112829007Y-88284099D01*
X112922099Y-88191007D01*
X112987925Y-88076993D01*
X113004962Y-88013410D01*
X113494085Y-88502533D01*
X113494085Y-88502532D01*
X113505568Y-88486730D01*
X113587745Y-88325452D01*
X113587748Y-88325444D01*
X113643682Y-88153293D01*
X113672000Y-87974506D01*
X113672000Y-87793493D01*
X115182000Y-87793493D01*
X115182000Y-87974506D01*
X115210317Y-88153293D01*
X115266251Y-88325444D01*
X115266252Y-88325447D01*
X115348431Y-88486730D01*
X115359913Y-88502532D01*
X115359913Y-88502533D01*
X115849037Y-88013409D01*
X115866075Y-88076993D01*
X115931901Y-88191007D01*
X116024993Y-88284099D01*
X116139007Y-88349925D01*
X116202590Y-88366962D01*
X115713466Y-88856085D01*
X115713466Y-88856086D01*
X115729267Y-88867566D01*
X115729275Y-88867571D01*
X115890552Y-88949747D01*
X115890555Y-88949748D01*
X116062706Y-89005682D01*
X116241494Y-89034000D01*
X116422506Y-89034000D01*
X116601293Y-89005682D01*
X116773444Y-88949748D01*
X116773452Y-88949745D01*
X116934730Y-88867568D01*
X116950532Y-88856085D01*
X116950533Y-88856085D01*
X116461410Y-88366962D01*
X116524993Y-88349925D01*
X116639007Y-88284099D01*
X116732099Y-88191007D01*
X116797925Y-88076993D01*
X116814962Y-88013410D01*
X117304085Y-88502533D01*
X117304085Y-88502532D01*
X117315568Y-88486730D01*
X117397745Y-88325452D01*
X117397748Y-88325444D01*
X117453682Y-88153293D01*
X117482000Y-87974506D01*
X117482000Y-87793493D01*
X118992000Y-87793493D01*
X118992000Y-87974506D01*
X119020317Y-88153293D01*
X119076251Y-88325444D01*
X119076252Y-88325447D01*
X119158431Y-88486730D01*
X119169913Y-88502532D01*
X119169913Y-88502533D01*
X119659037Y-88013409D01*
X119676075Y-88076993D01*
X119741901Y-88191007D01*
X119834993Y-88284099D01*
X119949007Y-88349925D01*
X120012590Y-88366962D01*
X119523466Y-88856085D01*
X119523466Y-88856086D01*
X119539267Y-88867566D01*
X119539275Y-88867571D01*
X119700552Y-88949747D01*
X119700555Y-88949748D01*
X119872706Y-89005682D01*
X120051494Y-89034000D01*
X120232506Y-89034000D01*
X120411293Y-89005682D01*
X120583444Y-88949748D01*
X120583452Y-88949745D01*
X120744730Y-88867568D01*
X120760532Y-88856085D01*
X120760533Y-88856085D01*
X120271410Y-88366962D01*
X120334993Y-88349925D01*
X120449007Y-88284099D01*
X120542099Y-88191007D01*
X120607925Y-88076993D01*
X120624962Y-88013409D01*
X121114085Y-88502532D01*
X121125568Y-88486730D01*
X121207745Y-88325452D01*
X121207748Y-88325444D01*
X121263682Y-88153293D01*
X121292000Y-87974506D01*
X121292000Y-87793493D01*
X122802000Y-87793493D01*
X122802000Y-87974506D01*
X122830317Y-88153293D01*
X122886251Y-88325444D01*
X122886252Y-88325447D01*
X122968431Y-88486730D01*
X122979913Y-88502532D01*
X122979913Y-88502533D01*
X123469037Y-88013409D01*
X123486075Y-88076993D01*
X123551901Y-88191007D01*
X123644993Y-88284099D01*
X123759007Y-88349925D01*
X123822590Y-88366962D01*
X123333466Y-88856085D01*
X123333466Y-88856086D01*
X123349267Y-88867566D01*
X123349275Y-88867571D01*
X123510552Y-88949747D01*
X123510555Y-88949748D01*
X123682706Y-89005682D01*
X123861494Y-89034000D01*
X124042506Y-89034000D01*
X124221293Y-89005682D01*
X124393444Y-88949748D01*
X124393452Y-88949745D01*
X124554730Y-88867568D01*
X124570532Y-88856085D01*
X124570533Y-88856085D01*
X124081410Y-88366962D01*
X124144993Y-88349925D01*
X124259007Y-88284099D01*
X124352099Y-88191007D01*
X124417925Y-88076993D01*
X124434962Y-88013409D01*
X124924085Y-88502532D01*
X124935568Y-88486730D01*
X125017745Y-88325452D01*
X125017748Y-88325444D01*
X125073682Y-88153293D01*
X125102000Y-87974506D01*
X125102000Y-87793493D01*
X126612000Y-87793493D01*
X126612000Y-87974506D01*
X126640317Y-88153293D01*
X126696251Y-88325444D01*
X126696252Y-88325447D01*
X126778431Y-88486730D01*
X126789913Y-88502532D01*
X126789913Y-88502533D01*
X127279037Y-88013409D01*
X127296075Y-88076993D01*
X127361901Y-88191007D01*
X127454993Y-88284099D01*
X127569007Y-88349925D01*
X127632590Y-88366962D01*
X127143466Y-88856085D01*
X127143466Y-88856086D01*
X127159267Y-88867566D01*
X127159275Y-88867571D01*
X127320552Y-88949747D01*
X127320555Y-88949748D01*
X127492706Y-89005682D01*
X127671494Y-89034000D01*
X127852506Y-89034000D01*
X128031293Y-89005682D01*
X128203444Y-88949748D01*
X128203452Y-88949745D01*
X128364730Y-88867568D01*
X128380532Y-88856085D01*
X128380533Y-88856085D01*
X127891410Y-88366962D01*
X127954993Y-88349925D01*
X128069007Y-88284099D01*
X128162099Y-88191007D01*
X128227925Y-88076993D01*
X128244962Y-88013410D01*
X128734085Y-88502533D01*
X128734085Y-88502532D01*
X128745568Y-88486730D01*
X128827745Y-88325452D01*
X128827748Y-88325444D01*
X128883682Y-88153293D01*
X128912000Y-87974506D01*
X128912000Y-87793493D01*
X130422000Y-87793493D01*
X130422000Y-87974506D01*
X130450317Y-88153293D01*
X130506251Y-88325444D01*
X130506252Y-88325447D01*
X130588431Y-88486730D01*
X130599913Y-88502532D01*
X130599913Y-88502533D01*
X131089037Y-88013409D01*
X131106075Y-88076993D01*
X131171901Y-88191007D01*
X131264993Y-88284099D01*
X131379007Y-88349925D01*
X131442590Y-88366962D01*
X130953466Y-88856085D01*
X130953466Y-88856086D01*
X130969267Y-88867566D01*
X130969275Y-88867571D01*
X131130552Y-88949747D01*
X131130555Y-88949748D01*
X131302706Y-89005682D01*
X131481494Y-89034000D01*
X131662506Y-89034000D01*
X131841293Y-89005682D01*
X132013444Y-88949748D01*
X132013452Y-88949745D01*
X132174730Y-88867568D01*
X132190532Y-88856085D01*
X132190533Y-88856085D01*
X131701410Y-88366962D01*
X131764993Y-88349925D01*
X131879007Y-88284099D01*
X131972099Y-88191007D01*
X132037925Y-88076993D01*
X132054962Y-88013409D01*
X132544085Y-88502532D01*
X132555568Y-88486730D01*
X132637745Y-88325452D01*
X132637748Y-88325444D01*
X132693682Y-88153293D01*
X132722000Y-87974506D01*
X132722000Y-87793493D01*
X134232000Y-87793493D01*
X134232000Y-87974506D01*
X134260317Y-88153293D01*
X134316251Y-88325444D01*
X134316252Y-88325447D01*
X134398431Y-88486730D01*
X134409913Y-88502532D01*
X134409913Y-88502533D01*
X134899037Y-88013409D01*
X134916075Y-88076993D01*
X134981901Y-88191007D01*
X135074993Y-88284099D01*
X135189007Y-88349925D01*
X135252590Y-88366962D01*
X134763466Y-88856085D01*
X134763466Y-88856086D01*
X134779267Y-88867566D01*
X134779275Y-88867571D01*
X134940552Y-88949747D01*
X134940555Y-88949748D01*
X135112706Y-89005682D01*
X135291494Y-89034000D01*
X135472506Y-89034000D01*
X135651293Y-89005682D01*
X135823444Y-88949748D01*
X135823452Y-88949745D01*
X135984730Y-88867568D01*
X136000532Y-88856085D01*
X136000533Y-88856085D01*
X135511410Y-88366962D01*
X135574993Y-88349925D01*
X135689007Y-88284099D01*
X135782099Y-88191007D01*
X135847925Y-88076993D01*
X135864962Y-88013410D01*
X136354085Y-88502533D01*
X136354085Y-88502532D01*
X136365568Y-88486730D01*
X136447745Y-88325452D01*
X136447748Y-88325444D01*
X136503682Y-88153293D01*
X136532000Y-87974506D01*
X136532000Y-87793493D01*
X136503682Y-87614706D01*
X136447748Y-87442555D01*
X136447747Y-87442552D01*
X136365571Y-87281275D01*
X136365566Y-87281267D01*
X136354085Y-87265466D01*
X135864962Y-87754589D01*
X135847925Y-87691007D01*
X135782099Y-87576993D01*
X135689007Y-87483901D01*
X135574993Y-87418075D01*
X135511409Y-87401037D01*
X136000533Y-86911913D01*
X135984730Y-86900431D01*
X135823447Y-86818252D01*
X135823444Y-86818251D01*
X135651293Y-86762317D01*
X135472506Y-86734000D01*
X135291494Y-86734000D01*
X135112706Y-86762317D01*
X134940555Y-86818251D01*
X134940547Y-86818254D01*
X134779269Y-86900432D01*
X134763466Y-86911912D01*
X134763466Y-86911913D01*
X135252591Y-87401037D01*
X135189007Y-87418075D01*
X135074993Y-87483901D01*
X134981901Y-87576993D01*
X134916075Y-87691007D01*
X134899037Y-87754590D01*
X134409913Y-87265466D01*
X134409912Y-87265466D01*
X134398432Y-87281269D01*
X134316254Y-87442547D01*
X134316251Y-87442555D01*
X134260317Y-87614706D01*
X134232000Y-87793493D01*
X132722000Y-87793493D01*
X132693682Y-87614706D01*
X132637748Y-87442555D01*
X132637747Y-87442552D01*
X132555571Y-87281275D01*
X132555566Y-87281267D01*
X132544085Y-87265466D01*
X132054962Y-87754589D01*
X132037925Y-87691007D01*
X131972099Y-87576993D01*
X131879007Y-87483901D01*
X131764993Y-87418075D01*
X131701409Y-87401037D01*
X132190533Y-86911913D01*
X132174730Y-86900431D01*
X132013447Y-86818252D01*
X132013444Y-86818251D01*
X131841293Y-86762317D01*
X131662506Y-86734000D01*
X131481494Y-86734000D01*
X131302706Y-86762317D01*
X131130555Y-86818251D01*
X131130547Y-86818254D01*
X130969269Y-86900432D01*
X130953466Y-86911912D01*
X130953466Y-86911913D01*
X131442591Y-87401037D01*
X131379007Y-87418075D01*
X131264993Y-87483901D01*
X131171901Y-87576993D01*
X131106075Y-87691007D01*
X131089037Y-87754590D01*
X130599912Y-87265466D01*
X130588432Y-87281269D01*
X130506254Y-87442547D01*
X130506251Y-87442555D01*
X130450317Y-87614706D01*
X130422000Y-87793493D01*
X128912000Y-87793493D01*
X128883682Y-87614706D01*
X128827748Y-87442555D01*
X128827747Y-87442552D01*
X128745571Y-87281275D01*
X128745566Y-87281267D01*
X128734085Y-87265466D01*
X128244962Y-87754589D01*
X128227925Y-87691007D01*
X128162099Y-87576993D01*
X128069007Y-87483901D01*
X127954993Y-87418075D01*
X127891409Y-87401037D01*
X128380533Y-86911913D01*
X128364730Y-86900431D01*
X128203447Y-86818252D01*
X128203444Y-86818251D01*
X128031293Y-86762317D01*
X127852506Y-86734000D01*
X127671494Y-86734000D01*
X127492706Y-86762317D01*
X127320555Y-86818251D01*
X127320547Y-86818254D01*
X127159269Y-86900432D01*
X127143466Y-86911912D01*
X127143466Y-86911913D01*
X127632591Y-87401037D01*
X127569007Y-87418075D01*
X127454993Y-87483901D01*
X127361901Y-87576993D01*
X127296075Y-87691007D01*
X127279037Y-87754590D01*
X126789913Y-87265466D01*
X126789912Y-87265466D01*
X126778432Y-87281269D01*
X126696254Y-87442547D01*
X126696251Y-87442555D01*
X126640317Y-87614706D01*
X126612000Y-87793493D01*
X125102000Y-87793493D01*
X125073682Y-87614706D01*
X125017748Y-87442555D01*
X125017747Y-87442552D01*
X124935571Y-87281275D01*
X124935566Y-87281267D01*
X124924085Y-87265466D01*
X124434962Y-87754589D01*
X124417925Y-87691007D01*
X124352099Y-87576993D01*
X124259007Y-87483901D01*
X124144993Y-87418075D01*
X124081409Y-87401037D01*
X124570533Y-86911913D01*
X124554730Y-86900431D01*
X124393447Y-86818252D01*
X124393444Y-86818251D01*
X124221293Y-86762317D01*
X124042506Y-86734000D01*
X123861494Y-86734000D01*
X123682706Y-86762317D01*
X123510555Y-86818251D01*
X123510547Y-86818254D01*
X123349269Y-86900432D01*
X123333466Y-86911912D01*
X123333466Y-86911913D01*
X123822591Y-87401037D01*
X123759007Y-87418075D01*
X123644993Y-87483901D01*
X123551901Y-87576993D01*
X123486075Y-87691007D01*
X123469037Y-87754590D01*
X122979912Y-87265466D01*
X122968432Y-87281269D01*
X122886254Y-87442547D01*
X122886251Y-87442555D01*
X122830317Y-87614706D01*
X122802000Y-87793493D01*
X121292000Y-87793493D01*
X121263682Y-87614706D01*
X121207748Y-87442555D01*
X121207747Y-87442552D01*
X121125571Y-87281275D01*
X121125566Y-87281267D01*
X121114085Y-87265466D01*
X120624962Y-87754589D01*
X120607925Y-87691007D01*
X120542099Y-87576993D01*
X120449007Y-87483901D01*
X120334993Y-87418075D01*
X120271409Y-87401037D01*
X120760533Y-86911913D01*
X120744730Y-86900431D01*
X120583447Y-86818252D01*
X120583444Y-86818251D01*
X120411293Y-86762317D01*
X120232506Y-86734000D01*
X120051494Y-86734000D01*
X119872706Y-86762317D01*
X119700555Y-86818251D01*
X119700547Y-86818254D01*
X119539269Y-86900432D01*
X119523466Y-86911912D01*
X119523466Y-86911913D01*
X120012591Y-87401037D01*
X119949007Y-87418075D01*
X119834993Y-87483901D01*
X119741901Y-87576993D01*
X119676075Y-87691007D01*
X119659037Y-87754590D01*
X119169913Y-87265466D01*
X119169912Y-87265466D01*
X119158432Y-87281269D01*
X119076254Y-87442547D01*
X119076251Y-87442555D01*
X119020317Y-87614706D01*
X118992000Y-87793493D01*
X117482000Y-87793493D01*
X117453682Y-87614706D01*
X117397748Y-87442555D01*
X117397747Y-87442552D01*
X117315571Y-87281275D01*
X117315566Y-87281267D01*
X117304085Y-87265466D01*
X116814962Y-87754589D01*
X116797925Y-87691007D01*
X116732099Y-87576993D01*
X116639007Y-87483901D01*
X116524993Y-87418075D01*
X116461409Y-87401037D01*
X116950533Y-86911913D01*
X116934730Y-86900431D01*
X116773447Y-86818252D01*
X116773444Y-86818251D01*
X116601293Y-86762317D01*
X116422506Y-86734000D01*
X116241494Y-86734000D01*
X116062706Y-86762317D01*
X115890555Y-86818251D01*
X115890547Y-86818254D01*
X115729269Y-86900432D01*
X115713466Y-86911912D01*
X115713466Y-86911913D01*
X116202591Y-87401037D01*
X116139007Y-87418075D01*
X116024993Y-87483901D01*
X115931901Y-87576993D01*
X115866075Y-87691007D01*
X115849037Y-87754590D01*
X115359913Y-87265466D01*
X115359912Y-87265466D01*
X115348432Y-87281269D01*
X115266254Y-87442547D01*
X115266251Y-87442555D01*
X115210317Y-87614706D01*
X115182000Y-87793493D01*
X113672000Y-87793493D01*
X113643682Y-87614706D01*
X113587748Y-87442555D01*
X113587747Y-87442552D01*
X113505571Y-87281275D01*
X113505566Y-87281267D01*
X113494085Y-87265466D01*
X113004962Y-87754589D01*
X112987925Y-87691007D01*
X112922099Y-87576993D01*
X112829007Y-87483901D01*
X112714993Y-87418075D01*
X112651409Y-87401037D01*
X113140533Y-86911913D01*
X113124730Y-86900431D01*
X112963447Y-86818252D01*
X112963444Y-86818251D01*
X112791293Y-86762317D01*
X112612506Y-86734000D01*
X112431494Y-86734000D01*
X112252706Y-86762317D01*
X112080555Y-86818251D01*
X112080547Y-86818254D01*
X111919269Y-86900432D01*
X111903466Y-86911912D01*
X111903466Y-86911913D01*
X112392591Y-87401037D01*
X112329007Y-87418075D01*
X112214993Y-87483901D01*
X112121901Y-87576993D01*
X112056075Y-87691007D01*
X112039037Y-87754590D01*
X111549913Y-87265466D01*
X111549912Y-87265466D01*
X111538432Y-87281269D01*
X111456254Y-87442547D01*
X111456251Y-87442555D01*
X111400317Y-87614706D01*
X111372000Y-87793493D01*
X107688500Y-87793493D01*
X107688500Y-85257389D01*
X111421500Y-85257389D01*
X111421500Y-85430611D01*
X111448598Y-85601701D01*
X111502127Y-85766445D01*
X111580768Y-85920788D01*
X111682586Y-86060928D01*
X111805072Y-86183414D01*
X111945212Y-86285232D01*
X112099555Y-86363873D01*
X112264299Y-86417402D01*
X112435389Y-86444500D01*
X112435390Y-86444500D01*
X112608610Y-86444500D01*
X112608611Y-86444500D01*
X112779701Y-86417402D01*
X112944445Y-86363873D01*
X113098788Y-86285232D01*
X113238928Y-86183414D01*
X113361414Y-86060928D01*
X113463232Y-85920788D01*
X113541873Y-85766445D01*
X113595402Y-85601701D01*
X113622500Y-85430611D01*
X113622500Y-85257389D01*
X115231500Y-85257389D01*
X115231500Y-85430611D01*
X115258598Y-85601701D01*
X115312127Y-85766445D01*
X115390768Y-85920788D01*
X115492586Y-86060928D01*
X115615072Y-86183414D01*
X115755212Y-86285232D01*
X115909555Y-86363873D01*
X116074299Y-86417402D01*
X116245389Y-86444500D01*
X116245390Y-86444500D01*
X116418610Y-86444500D01*
X116418611Y-86444500D01*
X116589701Y-86417402D01*
X116754445Y-86363873D01*
X116908788Y-86285232D01*
X117048928Y-86183414D01*
X117171414Y-86060928D01*
X117273232Y-85920788D01*
X117351873Y-85766445D01*
X117405402Y-85601701D01*
X117432500Y-85430611D01*
X117432500Y-85257389D01*
X119041500Y-85257389D01*
X119041500Y-85430611D01*
X119068598Y-85601701D01*
X119122127Y-85766445D01*
X119200768Y-85920788D01*
X119302586Y-86060928D01*
X119425072Y-86183414D01*
X119565212Y-86285232D01*
X119719555Y-86363873D01*
X119884299Y-86417402D01*
X120055389Y-86444500D01*
X120055390Y-86444500D01*
X120228610Y-86444500D01*
X120228611Y-86444500D01*
X120399701Y-86417402D01*
X120564445Y-86363873D01*
X120718788Y-86285232D01*
X120858928Y-86183414D01*
X120981414Y-86060928D01*
X121083232Y-85920788D01*
X121161873Y-85766445D01*
X121215402Y-85601701D01*
X121242500Y-85430611D01*
X121242500Y-85257389D01*
X122851500Y-85257389D01*
X122851500Y-85430611D01*
X122878598Y-85601701D01*
X122932127Y-85766445D01*
X123010768Y-85920788D01*
X123112586Y-86060928D01*
X123235072Y-86183414D01*
X123375212Y-86285232D01*
X123529555Y-86363873D01*
X123694299Y-86417402D01*
X123865389Y-86444500D01*
X123865390Y-86444500D01*
X124038610Y-86444500D01*
X124038611Y-86444500D01*
X124209701Y-86417402D01*
X124374445Y-86363873D01*
X124528788Y-86285232D01*
X124668928Y-86183414D01*
X124791414Y-86060928D01*
X124893232Y-85920788D01*
X124971873Y-85766445D01*
X125025402Y-85601701D01*
X125052500Y-85430611D01*
X125052500Y-85257389D01*
X126661500Y-85257389D01*
X126661500Y-85430611D01*
X126688598Y-85601701D01*
X126742127Y-85766445D01*
X126820768Y-85920788D01*
X126922586Y-86060928D01*
X127045072Y-86183414D01*
X127185212Y-86285232D01*
X127339555Y-86363873D01*
X127504299Y-86417402D01*
X127675389Y-86444500D01*
X127675390Y-86444500D01*
X127848610Y-86444500D01*
X127848611Y-86444500D01*
X128019701Y-86417402D01*
X128184445Y-86363873D01*
X128338788Y-86285232D01*
X128478928Y-86183414D01*
X128601414Y-86060928D01*
X128703232Y-85920788D01*
X128781873Y-85766445D01*
X128835402Y-85601701D01*
X128862500Y-85430611D01*
X128862500Y-85257389D01*
X130471500Y-85257389D01*
X130471500Y-85430611D01*
X130498598Y-85601701D01*
X130552127Y-85766445D01*
X130630768Y-85920788D01*
X130732586Y-86060928D01*
X130855072Y-86183414D01*
X130995212Y-86285232D01*
X131149555Y-86363873D01*
X131314299Y-86417402D01*
X131485389Y-86444500D01*
X131485390Y-86444500D01*
X131658610Y-86444500D01*
X131658611Y-86444500D01*
X131829701Y-86417402D01*
X131994445Y-86363873D01*
X132148788Y-86285232D01*
X132288928Y-86183414D01*
X132411414Y-86060928D01*
X132513232Y-85920788D01*
X132591873Y-85766445D01*
X132645402Y-85601701D01*
X132672500Y-85430611D01*
X132672500Y-85257389D01*
X134281500Y-85257389D01*
X134281500Y-85430611D01*
X134308598Y-85601701D01*
X134362127Y-85766445D01*
X134440768Y-85920788D01*
X134542586Y-86060928D01*
X134665072Y-86183414D01*
X134805212Y-86285232D01*
X134959555Y-86363873D01*
X135124299Y-86417402D01*
X135295389Y-86444500D01*
X135295390Y-86444500D01*
X135468610Y-86444500D01*
X135468611Y-86444500D01*
X135639701Y-86417402D01*
X135804445Y-86363873D01*
X135958788Y-86285232D01*
X136098928Y-86183414D01*
X136221414Y-86060928D01*
X136323232Y-85920788D01*
X136401873Y-85766445D01*
X136455402Y-85601701D01*
X136482500Y-85430611D01*
X136482500Y-85257389D01*
X136455402Y-85086299D01*
X136401873Y-84921555D01*
X136323232Y-84767212D01*
X136323231Y-84767211D01*
X136294399Y-84727527D01*
X136294398Y-84727525D01*
X139449500Y-84727525D01*
X139449500Y-84872475D01*
X139487016Y-85012485D01*
X139487017Y-85012488D01*
X139559488Y-85138011D01*
X139559490Y-85138013D01*
X139559491Y-85138015D01*
X139661985Y-85240509D01*
X139661986Y-85240510D01*
X139661988Y-85240511D01*
X139787511Y-85312982D01*
X139787512Y-85312982D01*
X139787515Y-85312984D01*
X139927525Y-85350500D01*
X139927528Y-85350500D01*
X140072472Y-85350500D01*
X140072475Y-85350500D01*
X140212485Y-85312984D01*
X140338015Y-85240509D01*
X140440509Y-85138015D01*
X140512984Y-85012485D01*
X140550500Y-84872475D01*
X140550500Y-84727525D01*
X140512984Y-84587515D01*
X140511934Y-84585697D01*
X140440511Y-84461988D01*
X140440506Y-84461982D01*
X140338017Y-84359493D01*
X140338011Y-84359488D01*
X140212488Y-84287017D01*
X140212489Y-84287017D01*
X140201006Y-84283940D01*
X140072475Y-84249500D01*
X139927525Y-84249500D01*
X139798993Y-84283940D01*
X139787511Y-84287017D01*
X139661988Y-84359488D01*
X139661982Y-84359493D01*
X139559493Y-84461982D01*
X139559488Y-84461988D01*
X139487017Y-84587511D01*
X139487016Y-84587515D01*
X139449500Y-84727525D01*
X136294398Y-84727525D01*
X136221414Y-84627072D01*
X136098928Y-84504586D01*
X135958788Y-84402768D01*
X135804445Y-84324127D01*
X135639701Y-84270598D01*
X135639699Y-84270597D01*
X135639698Y-84270597D01*
X135508271Y-84249781D01*
X135468611Y-84243500D01*
X135295389Y-84243500D01*
X135255728Y-84249781D01*
X135124302Y-84270597D01*
X134959552Y-84324128D01*
X134805211Y-84402768D01*
X134725256Y-84460859D01*
X134665072Y-84504586D01*
X134665070Y-84504588D01*
X134665069Y-84504588D01*
X134542588Y-84627069D01*
X134542588Y-84627070D01*
X134542586Y-84627072D01*
X134526291Y-84649500D01*
X134440768Y-84767211D01*
X134362128Y-84921552D01*
X134362127Y-84921554D01*
X134362127Y-84921555D01*
X134340696Y-84987511D01*
X134308597Y-85086302D01*
X134284173Y-85240511D01*
X134281500Y-85257389D01*
X132672500Y-85257389D01*
X132645402Y-85086299D01*
X132591873Y-84921555D01*
X132513232Y-84767212D01*
X132411414Y-84627072D01*
X132288928Y-84504586D01*
X132148788Y-84402768D01*
X131994445Y-84324127D01*
X131829701Y-84270598D01*
X131829699Y-84270597D01*
X131829698Y-84270597D01*
X131698271Y-84249781D01*
X131658611Y-84243500D01*
X131485389Y-84243500D01*
X131445728Y-84249781D01*
X131314302Y-84270597D01*
X131149552Y-84324128D01*
X130995211Y-84402768D01*
X130915256Y-84460859D01*
X130855072Y-84504586D01*
X130855070Y-84504588D01*
X130855069Y-84504588D01*
X130732588Y-84627069D01*
X130732588Y-84627070D01*
X130732586Y-84627072D01*
X130716291Y-84649500D01*
X130630768Y-84767211D01*
X130552128Y-84921552D01*
X130552127Y-84921554D01*
X130552127Y-84921555D01*
X130530696Y-84987511D01*
X130498597Y-85086302D01*
X130474173Y-85240511D01*
X130471500Y-85257389D01*
X128862500Y-85257389D01*
X128835402Y-85086299D01*
X128781873Y-84921555D01*
X128703232Y-84767212D01*
X128601414Y-84627072D01*
X128478928Y-84504586D01*
X128338788Y-84402768D01*
X128184445Y-84324127D01*
X128019701Y-84270598D01*
X128019699Y-84270597D01*
X128019698Y-84270597D01*
X127888271Y-84249781D01*
X127848611Y-84243500D01*
X127675389Y-84243500D01*
X127635728Y-84249781D01*
X127504302Y-84270597D01*
X127339552Y-84324128D01*
X127185211Y-84402768D01*
X127105256Y-84460859D01*
X127045072Y-84504586D01*
X127045070Y-84504588D01*
X127045069Y-84504588D01*
X126922588Y-84627069D01*
X126922588Y-84627070D01*
X126922586Y-84627072D01*
X126906291Y-84649500D01*
X126820768Y-84767211D01*
X126742128Y-84921552D01*
X126742127Y-84921554D01*
X126742127Y-84921555D01*
X126720696Y-84987511D01*
X126688597Y-85086302D01*
X126664173Y-85240511D01*
X126661500Y-85257389D01*
X125052500Y-85257389D01*
X125025402Y-85086299D01*
X124971873Y-84921555D01*
X124893232Y-84767212D01*
X124791414Y-84627072D01*
X124668928Y-84504586D01*
X124528788Y-84402768D01*
X124374445Y-84324127D01*
X124209701Y-84270598D01*
X124209699Y-84270597D01*
X124209698Y-84270597D01*
X124078271Y-84249781D01*
X124038611Y-84243500D01*
X123865389Y-84243500D01*
X123825728Y-84249781D01*
X123694302Y-84270597D01*
X123529552Y-84324128D01*
X123375211Y-84402768D01*
X123295256Y-84460859D01*
X123235072Y-84504586D01*
X123235070Y-84504588D01*
X123235069Y-84504588D01*
X123112588Y-84627069D01*
X123112588Y-84627070D01*
X123112586Y-84627072D01*
X123096291Y-84649500D01*
X123010768Y-84767211D01*
X122932128Y-84921552D01*
X122932127Y-84921554D01*
X122932127Y-84921555D01*
X122910696Y-84987511D01*
X122878597Y-85086302D01*
X122854173Y-85240511D01*
X122851500Y-85257389D01*
X121242500Y-85257389D01*
X121215402Y-85086299D01*
X121161873Y-84921555D01*
X121083232Y-84767212D01*
X120981414Y-84627072D01*
X120858928Y-84504586D01*
X120718788Y-84402768D01*
X120564445Y-84324127D01*
X120399701Y-84270598D01*
X120399699Y-84270597D01*
X120399698Y-84270597D01*
X120268271Y-84249781D01*
X120228611Y-84243500D01*
X120055389Y-84243500D01*
X120015728Y-84249781D01*
X119884302Y-84270597D01*
X119719552Y-84324128D01*
X119565211Y-84402768D01*
X119485256Y-84460859D01*
X119425072Y-84504586D01*
X119425070Y-84504588D01*
X119425069Y-84504588D01*
X119302588Y-84627069D01*
X119302588Y-84627070D01*
X119302586Y-84627072D01*
X119286291Y-84649500D01*
X119200768Y-84767211D01*
X119122128Y-84921552D01*
X119122127Y-84921554D01*
X119122127Y-84921555D01*
X119100696Y-84987511D01*
X119068597Y-85086302D01*
X119044173Y-85240511D01*
X119041500Y-85257389D01*
X117432500Y-85257389D01*
X117405402Y-85086299D01*
X117351873Y-84921555D01*
X117273232Y-84767212D01*
X117171414Y-84627072D01*
X117048928Y-84504586D01*
X116908788Y-84402768D01*
X116754445Y-84324127D01*
X116589701Y-84270598D01*
X116589699Y-84270597D01*
X116589698Y-84270597D01*
X116458271Y-84249781D01*
X116418611Y-84243500D01*
X116245389Y-84243500D01*
X116205728Y-84249781D01*
X116074302Y-84270597D01*
X115909552Y-84324128D01*
X115755211Y-84402768D01*
X115675256Y-84460859D01*
X115615072Y-84504586D01*
X115615070Y-84504588D01*
X115615069Y-84504588D01*
X115492588Y-84627069D01*
X115492588Y-84627070D01*
X115492586Y-84627072D01*
X115476291Y-84649500D01*
X115390768Y-84767211D01*
X115312128Y-84921552D01*
X115312127Y-84921554D01*
X115312127Y-84921555D01*
X115290696Y-84987511D01*
X115258597Y-85086302D01*
X115234173Y-85240511D01*
X115231500Y-85257389D01*
X113622500Y-85257389D01*
X113595402Y-85086299D01*
X113541873Y-84921555D01*
X113463232Y-84767212D01*
X113361414Y-84627072D01*
X113238928Y-84504586D01*
X113098788Y-84402768D01*
X112944445Y-84324127D01*
X112779701Y-84270598D01*
X112779699Y-84270597D01*
X112779698Y-84270597D01*
X112648271Y-84249781D01*
X112608611Y-84243500D01*
X112435389Y-84243500D01*
X112395728Y-84249781D01*
X112264302Y-84270597D01*
X112099552Y-84324128D01*
X111945211Y-84402768D01*
X111865256Y-84460859D01*
X111805072Y-84504586D01*
X111805070Y-84504588D01*
X111805069Y-84504588D01*
X111682588Y-84627069D01*
X111682588Y-84627070D01*
X111682586Y-84627072D01*
X111666291Y-84649500D01*
X111580768Y-84767211D01*
X111502128Y-84921552D01*
X111502127Y-84921554D01*
X111502127Y-84921555D01*
X111480696Y-84987511D01*
X111448597Y-85086302D01*
X111424173Y-85240511D01*
X111421500Y-85257389D01*
X107688500Y-85257389D01*
X107688500Y-84000248D01*
X145858810Y-84000248D01*
X145858810Y-84645043D01*
X146575798Y-84645043D01*
X146542885Y-84702050D01*
X146508810Y-84829217D01*
X146508810Y-84960869D01*
X146542885Y-85088036D01*
X146575798Y-85145043D01*
X145858811Y-85145043D01*
X145858811Y-85789828D01*
X145858812Y-85789851D01*
X145861718Y-85814912D01*
X145861719Y-85814916D01*
X145907021Y-85917517D01*
X145907024Y-85917522D01*
X145986330Y-85996828D01*
X145986335Y-85996831D01*
X146088933Y-86042132D01*
X146114016Y-86045042D01*
X146758809Y-86045042D01*
X146758810Y-86045041D01*
X146758810Y-85328055D01*
X146815817Y-85360968D01*
X146942984Y-85395043D01*
X147074636Y-85395043D01*
X147201803Y-85360968D01*
X147258810Y-85328055D01*
X147258810Y-86045042D01*
X147903596Y-86045042D01*
X147903618Y-86045040D01*
X147928679Y-86042134D01*
X147928683Y-86042133D01*
X148031284Y-85996831D01*
X148031289Y-85996828D01*
X148110595Y-85917522D01*
X148110598Y-85917517D01*
X148155899Y-85814920D01*
X148155899Y-85814918D01*
X148158809Y-85789837D01*
X148158810Y-85789834D01*
X148158810Y-85145043D01*
X147441822Y-85145043D01*
X147474735Y-85088036D01*
X147508810Y-84960869D01*
X147508810Y-84829217D01*
X147503241Y-84808432D01*
X148448310Y-84808432D01*
X148448310Y-84981654D01*
X148453194Y-85012488D01*
X148473074Y-85138011D01*
X148475408Y-85152744D01*
X148528937Y-85317488D01*
X148607578Y-85471831D01*
X148709396Y-85611971D01*
X148831882Y-85734457D01*
X148972022Y-85836275D01*
X149126365Y-85914916D01*
X149291109Y-85968445D01*
X149462199Y-85995543D01*
X149462200Y-85995543D01*
X149635420Y-85995543D01*
X149635421Y-85995543D01*
X149806511Y-85968445D01*
X149971255Y-85914916D01*
X150125598Y-85836275D01*
X150265738Y-85734457D01*
X150388224Y-85611971D01*
X150490042Y-85471831D01*
X150568683Y-85317488D01*
X150622212Y-85152744D01*
X150649310Y-84981654D01*
X150649310Y-84808432D01*
X150988310Y-84808432D01*
X150988310Y-84981654D01*
X150993194Y-85012488D01*
X151013074Y-85138011D01*
X151015408Y-85152744D01*
X151068937Y-85317488D01*
X151147578Y-85471831D01*
X151249396Y-85611971D01*
X151371882Y-85734457D01*
X151512022Y-85836275D01*
X151666365Y-85914916D01*
X151831109Y-85968445D01*
X152002199Y-85995543D01*
X152002200Y-85995543D01*
X152175420Y-85995543D01*
X152175421Y-85995543D01*
X152346511Y-85968445D01*
X152511255Y-85914916D01*
X152665598Y-85836275D01*
X152805738Y-85734457D01*
X152928224Y-85611971D01*
X153030042Y-85471831D01*
X153108683Y-85317488D01*
X153162212Y-85152744D01*
X153189310Y-84981654D01*
X153189310Y-84808432D01*
X153162212Y-84637342D01*
X153108683Y-84472598D01*
X153030042Y-84318255D01*
X152928224Y-84178115D01*
X152805738Y-84055629D01*
X152803211Y-84053793D01*
X152756331Y-84019731D01*
X152756308Y-84019716D01*
X152729493Y-84000234D01*
X152665598Y-83953811D01*
X152614008Y-83927525D01*
X157249500Y-83927525D01*
X157249500Y-84072475D01*
X157284855Y-84204421D01*
X157287017Y-84212488D01*
X157359488Y-84338011D01*
X157359490Y-84338013D01*
X157359491Y-84338015D01*
X157461985Y-84440509D01*
X157517565Y-84472598D01*
X157552231Y-84492613D01*
X157600446Y-84543181D01*
X157613668Y-84611788D01*
X157587700Y-84676653D01*
X157552231Y-84707387D01*
X157461985Y-84759491D01*
X157461982Y-84759493D01*
X157359493Y-84861982D01*
X157359488Y-84861988D01*
X157287017Y-84987511D01*
X157287016Y-84987515D01*
X157249500Y-85127525D01*
X157249500Y-85272475D01*
X157287016Y-85412485D01*
X157287017Y-85412488D01*
X157359488Y-85538011D01*
X157359490Y-85538013D01*
X157359491Y-85538015D01*
X157461985Y-85640509D01*
X157461986Y-85640510D01*
X157461988Y-85640511D01*
X157587511Y-85712982D01*
X157587512Y-85712982D01*
X157587515Y-85712984D01*
X157727525Y-85750500D01*
X157727528Y-85750500D01*
X157872472Y-85750500D01*
X157872475Y-85750500D01*
X158012485Y-85712984D01*
X158138015Y-85640509D01*
X158240509Y-85538015D01*
X158312984Y-85412485D01*
X158350500Y-85272475D01*
X158350500Y-85127525D01*
X158312984Y-84987515D01*
X158265221Y-84904788D01*
X158240511Y-84861988D01*
X158240506Y-84861982D01*
X158138017Y-84759493D01*
X158138015Y-84759491D01*
X158082652Y-84727527D01*
X158047769Y-84707387D01*
X157999553Y-84656820D01*
X157986331Y-84588213D01*
X158012299Y-84523348D01*
X158047769Y-84492613D01*
X158082435Y-84472598D01*
X158138015Y-84440509D01*
X158240509Y-84338015D01*
X158312984Y-84212485D01*
X158350500Y-84072475D01*
X158350500Y-83927525D01*
X159249500Y-83927525D01*
X159249500Y-84072475D01*
X159284855Y-84204421D01*
X159287017Y-84212488D01*
X159359488Y-84338011D01*
X159359490Y-84338013D01*
X159359491Y-84338015D01*
X159461985Y-84440509D01*
X159517565Y-84472598D01*
X159552231Y-84492613D01*
X159600446Y-84543181D01*
X159613668Y-84611788D01*
X159587700Y-84676653D01*
X159552231Y-84707387D01*
X159461985Y-84759491D01*
X159461982Y-84759493D01*
X159359493Y-84861982D01*
X159359488Y-84861988D01*
X159287017Y-84987511D01*
X159287016Y-84987515D01*
X159249500Y-85127525D01*
X159249500Y-85272475D01*
X159287016Y-85412485D01*
X159287017Y-85412488D01*
X159359488Y-85538011D01*
X159359490Y-85538013D01*
X159359491Y-85538015D01*
X159461985Y-85640509D01*
X159461986Y-85640510D01*
X159461988Y-85640511D01*
X159587511Y-85712982D01*
X159587512Y-85712982D01*
X159587515Y-85712984D01*
X159727525Y-85750500D01*
X159727528Y-85750500D01*
X159872472Y-85750500D01*
X159872475Y-85750500D01*
X160012485Y-85712984D01*
X160138015Y-85640509D01*
X160240509Y-85538015D01*
X160312984Y-85412485D01*
X160350500Y-85272475D01*
X160350500Y-85127525D01*
X160312984Y-84987515D01*
X160265221Y-84904788D01*
X160240511Y-84861988D01*
X160240506Y-84861982D01*
X160138017Y-84759493D01*
X160138015Y-84759491D01*
X160082652Y-84727527D01*
X160047769Y-84707387D01*
X159999553Y-84656820D01*
X159986331Y-84588213D01*
X160012299Y-84523348D01*
X160047769Y-84492613D01*
X160082435Y-84472598D01*
X160138015Y-84440509D01*
X160240509Y-84338015D01*
X160296296Y-84241389D01*
X167301500Y-84241389D01*
X167301500Y-84414610D01*
X167323022Y-84550500D01*
X167328598Y-84585701D01*
X167374680Y-84727527D01*
X167382128Y-84750447D01*
X167444302Y-84872472D01*
X167460768Y-84904788D01*
X167562586Y-85044928D01*
X167685072Y-85167414D01*
X167825212Y-85269232D01*
X167979555Y-85347873D01*
X168144299Y-85401402D01*
X168315389Y-85428500D01*
X168315390Y-85428500D01*
X168488610Y-85428500D01*
X168488611Y-85428500D01*
X168659701Y-85401402D01*
X168824445Y-85347873D01*
X168978788Y-85269232D01*
X169118928Y-85167414D01*
X169241414Y-85044928D01*
X169343232Y-84904788D01*
X169421873Y-84750445D01*
X169475402Y-84585701D01*
X169502500Y-84414611D01*
X169502500Y-84241389D01*
X169475402Y-84070299D01*
X169421873Y-83905555D01*
X169343232Y-83751212D01*
X169241414Y-83611072D01*
X169118928Y-83488586D01*
X168978788Y-83386768D01*
X168824445Y-83308127D01*
X168659701Y-83254598D01*
X168659699Y-83254597D01*
X168659698Y-83254597D01*
X168528271Y-83233781D01*
X168488611Y-83227500D01*
X168315389Y-83227500D01*
X168275728Y-83233781D01*
X168144302Y-83254597D01*
X167979552Y-83308128D01*
X167825211Y-83386768D01*
X167745256Y-83444859D01*
X167685072Y-83488586D01*
X167685070Y-83488588D01*
X167685069Y-83488588D01*
X167562588Y-83611069D01*
X167562588Y-83611070D01*
X167562586Y-83611072D01*
X167525593Y-83661988D01*
X167460768Y-83751211D01*
X167382128Y-83905552D01*
X167328597Y-84070302D01*
X167301500Y-84241389D01*
X160296296Y-84241389D01*
X160312984Y-84212485D01*
X160350500Y-84072475D01*
X160350500Y-83927525D01*
X160312984Y-83787515D01*
X160301313Y-83767301D01*
X160240511Y-83661988D01*
X160240506Y-83661982D01*
X160138017Y-83559493D01*
X160138011Y-83559488D01*
X160012488Y-83487017D01*
X160012489Y-83487017D01*
X160001006Y-83483940D01*
X159872475Y-83449500D01*
X159727525Y-83449500D01*
X159598993Y-83483940D01*
X159587511Y-83487017D01*
X159461988Y-83559488D01*
X159461982Y-83559493D01*
X159359493Y-83661982D01*
X159359488Y-83661988D01*
X159287017Y-83787511D01*
X159287016Y-83787515D01*
X159249500Y-83927525D01*
X158350500Y-83927525D01*
X158312984Y-83787515D01*
X158301313Y-83767301D01*
X158240511Y-83661988D01*
X158240506Y-83661982D01*
X158138017Y-83559493D01*
X158138011Y-83559488D01*
X158012488Y-83487017D01*
X158012489Y-83487017D01*
X158001006Y-83483940D01*
X157872475Y-83449500D01*
X157727525Y-83449500D01*
X157598993Y-83483940D01*
X157587511Y-83487017D01*
X157461988Y-83559488D01*
X157461982Y-83559493D01*
X157359493Y-83661982D01*
X157359488Y-83661988D01*
X157287017Y-83787511D01*
X157287016Y-83787515D01*
X157249500Y-83927525D01*
X152614008Y-83927525D01*
X152511255Y-83875170D01*
X152346511Y-83821641D01*
X152346509Y-83821640D01*
X152346508Y-83821640D01*
X152215081Y-83800824D01*
X152175421Y-83794543D01*
X152002199Y-83794543D01*
X151962538Y-83800824D01*
X151831112Y-83821640D01*
X151831109Y-83821641D01*
X151674389Y-83872563D01*
X151666362Y-83875171D01*
X151512021Y-83953811D01*
X151448126Y-84000234D01*
X151371882Y-84055629D01*
X151371880Y-84055631D01*
X151371879Y-84055631D01*
X151249398Y-84178112D01*
X151249398Y-84178113D01*
X151249396Y-84178115D01*
X151205669Y-84238299D01*
X151147578Y-84318254D01*
X151068938Y-84472595D01*
X151015407Y-84637345D01*
X150994838Y-84767213D01*
X150988310Y-84808432D01*
X150649310Y-84808432D01*
X150622212Y-84637342D01*
X150568683Y-84472598D01*
X150490042Y-84318255D01*
X150388224Y-84178115D01*
X150388221Y-84178112D01*
X150385360Y-84174174D01*
X150386551Y-84173308D01*
X150360663Y-84115540D01*
X150371097Y-84046453D01*
X150417226Y-83993976D01*
X150483523Y-83974765D01*
X150496737Y-83974765D01*
X150496740Y-83974765D01*
X150636750Y-83937249D01*
X150762280Y-83864774D01*
X150864774Y-83762280D01*
X150937249Y-83636750D01*
X150974765Y-83496740D01*
X150974765Y-83351790D01*
X150937249Y-83211780D01*
X150903317Y-83153009D01*
X150864776Y-83086253D01*
X150864771Y-83086247D01*
X150762282Y-82983758D01*
X150762276Y-82983753D01*
X150636753Y-82911282D01*
X150636754Y-82911282D01*
X150625271Y-82908205D01*
X150496740Y-82873765D01*
X150351790Y-82873765D01*
X150223258Y-82908205D01*
X150211776Y-82911282D01*
X150086253Y-82983753D01*
X150086247Y-82983758D01*
X149983758Y-83086247D01*
X149983753Y-83086253D01*
X149911282Y-83211776D01*
X149911281Y-83211780D01*
X149873765Y-83351790D01*
X149873765Y-83496740D01*
X149890580Y-83559493D01*
X149911282Y-83636754D01*
X149914393Y-83644264D01*
X149912193Y-83645174D01*
X149925802Y-83701275D01*
X149902949Y-83767301D01*
X149848027Y-83810491D01*
X149782545Y-83817845D01*
X149709153Y-83806221D01*
X149635421Y-83794543D01*
X149462199Y-83794543D01*
X149422538Y-83800824D01*
X149291112Y-83821640D01*
X149291109Y-83821641D01*
X149134389Y-83872563D01*
X149126362Y-83875171D01*
X148972021Y-83953811D01*
X148908126Y-84000234D01*
X148831882Y-84055629D01*
X148831880Y-84055631D01*
X148831879Y-84055631D01*
X148709398Y-84178112D01*
X148709398Y-84178113D01*
X148709396Y-84178115D01*
X148665669Y-84238299D01*
X148607578Y-84318254D01*
X148528938Y-84472595D01*
X148475407Y-84637345D01*
X148454838Y-84767213D01*
X148448310Y-84808432D01*
X147503241Y-84808432D01*
X147474735Y-84702050D01*
X147441822Y-84645043D01*
X148158809Y-84645043D01*
X148158809Y-84000257D01*
X148158807Y-84000234D01*
X148155901Y-83975173D01*
X148155900Y-83975169D01*
X148110598Y-83872568D01*
X148110595Y-83872563D01*
X148031289Y-83793257D01*
X148031284Y-83793254D01*
X147928686Y-83747953D01*
X147903604Y-83745043D01*
X147258810Y-83745043D01*
X147258810Y-84462031D01*
X147201803Y-84429118D01*
X147074636Y-84395043D01*
X146942984Y-84395043D01*
X146815817Y-84429118D01*
X146758810Y-84462031D01*
X146758810Y-83745043D01*
X146114024Y-83745043D01*
X146114001Y-83745045D01*
X146088940Y-83747951D01*
X146088936Y-83747952D01*
X145986335Y-83793254D01*
X145986330Y-83793257D01*
X145907024Y-83872563D01*
X145907021Y-83872568D01*
X145861720Y-83975165D01*
X145861720Y-83975167D01*
X145858810Y-84000248D01*
X107688500Y-84000248D01*
X107688500Y-81929321D01*
X111421500Y-81929321D01*
X111421500Y-83678678D01*
X111436032Y-83751735D01*
X111436033Y-83751739D01*
X111436034Y-83751740D01*
X111491399Y-83834601D01*
X111574260Y-83889966D01*
X111574264Y-83889967D01*
X111647321Y-83904499D01*
X111647324Y-83904500D01*
X111647326Y-83904500D01*
X113396676Y-83904500D01*
X113396677Y-83904499D01*
X113469740Y-83889966D01*
X113552601Y-83834601D01*
X113607966Y-83751740D01*
X113622500Y-83678674D01*
X113622500Y-81929326D01*
X113622500Y-81929323D01*
X113622499Y-81929321D01*
X115231500Y-81929321D01*
X115231500Y-83678678D01*
X115246032Y-83751735D01*
X115246033Y-83751739D01*
X115246034Y-83751740D01*
X115301399Y-83834601D01*
X115384260Y-83889966D01*
X115384264Y-83889967D01*
X115457321Y-83904499D01*
X115457324Y-83904500D01*
X115457326Y-83904500D01*
X117206676Y-83904500D01*
X117206677Y-83904499D01*
X117279740Y-83889966D01*
X117362601Y-83834601D01*
X117417966Y-83751740D01*
X117432500Y-83678674D01*
X117432500Y-81929326D01*
X117432500Y-81929323D01*
X117432499Y-81929321D01*
X119041500Y-81929321D01*
X119041500Y-83678678D01*
X119056032Y-83751735D01*
X119056033Y-83751739D01*
X119056034Y-83751740D01*
X119111399Y-83834601D01*
X119194260Y-83889966D01*
X119194264Y-83889967D01*
X119267321Y-83904499D01*
X119267324Y-83904500D01*
X119267326Y-83904500D01*
X121016676Y-83904500D01*
X121016677Y-83904499D01*
X121089740Y-83889966D01*
X121172601Y-83834601D01*
X121227966Y-83751740D01*
X121242500Y-83678674D01*
X121242500Y-81929326D01*
X121242500Y-81929323D01*
X121242499Y-81929321D01*
X122851500Y-81929321D01*
X122851500Y-83678678D01*
X122866032Y-83751735D01*
X122866033Y-83751739D01*
X122866034Y-83751740D01*
X122921399Y-83834601D01*
X123004260Y-83889966D01*
X123004264Y-83889967D01*
X123077321Y-83904499D01*
X123077324Y-83904500D01*
X123077326Y-83904500D01*
X124826676Y-83904500D01*
X124826677Y-83904499D01*
X124899740Y-83889966D01*
X124982601Y-83834601D01*
X125037966Y-83751740D01*
X125052500Y-83678674D01*
X125052500Y-81929326D01*
X125052500Y-81929323D01*
X125052499Y-81929321D01*
X126661500Y-81929321D01*
X126661500Y-83678678D01*
X126676032Y-83751735D01*
X126676033Y-83751739D01*
X126676034Y-83751740D01*
X126731399Y-83834601D01*
X126814260Y-83889966D01*
X126814264Y-83889967D01*
X126887321Y-83904499D01*
X126887324Y-83904500D01*
X126887326Y-83904500D01*
X128636676Y-83904500D01*
X128636677Y-83904499D01*
X128709740Y-83889966D01*
X128792601Y-83834601D01*
X128847966Y-83751740D01*
X128862500Y-83678674D01*
X128862500Y-81929326D01*
X128862500Y-81929323D01*
X128862499Y-81929321D01*
X130471500Y-81929321D01*
X130471500Y-83678678D01*
X130486032Y-83751735D01*
X130486033Y-83751739D01*
X130486034Y-83751740D01*
X130541399Y-83834601D01*
X130624260Y-83889966D01*
X130624264Y-83889967D01*
X130697321Y-83904499D01*
X130697324Y-83904500D01*
X130697326Y-83904500D01*
X132446676Y-83904500D01*
X132446677Y-83904499D01*
X132519740Y-83889966D01*
X132602601Y-83834601D01*
X132657966Y-83751740D01*
X132672500Y-83678674D01*
X132672500Y-81929326D01*
X132672500Y-81929323D01*
X132672499Y-81929321D01*
X134281500Y-81929321D01*
X134281500Y-83678678D01*
X134296032Y-83751735D01*
X134296033Y-83751739D01*
X134296034Y-83751740D01*
X134351399Y-83834601D01*
X134434260Y-83889966D01*
X134434264Y-83889967D01*
X134507321Y-83904499D01*
X134507324Y-83904500D01*
X134507326Y-83904500D01*
X136256676Y-83904500D01*
X136256677Y-83904499D01*
X136329740Y-83889966D01*
X136412601Y-83834601D01*
X136467966Y-83751740D01*
X136482500Y-83678674D01*
X136482500Y-82640025D01*
X139412000Y-82640025D01*
X139412000Y-82784975D01*
X139449516Y-82924985D01*
X139449517Y-82924988D01*
X139521988Y-83050511D01*
X139521990Y-83050513D01*
X139521991Y-83050515D01*
X139624485Y-83153009D01*
X139624486Y-83153010D01*
X139624488Y-83153011D01*
X139750011Y-83225482D01*
X139750012Y-83225482D01*
X139750015Y-83225484D01*
X139890025Y-83263000D01*
X139890028Y-83263000D01*
X140034972Y-83263000D01*
X140034975Y-83263000D01*
X140174985Y-83225484D01*
X140300515Y-83153009D01*
X140403009Y-83050515D01*
X140475484Y-82924985D01*
X140513000Y-82784975D01*
X140513000Y-82640025D01*
X140475484Y-82500015D01*
X140403009Y-82374485D01*
X140300515Y-82271991D01*
X140300513Y-82271990D01*
X140300511Y-82271988D01*
X140174988Y-82199517D01*
X140174989Y-82199517D01*
X140141378Y-82190511D01*
X140034975Y-82162000D01*
X139890025Y-82162000D01*
X139783622Y-82190511D01*
X139750011Y-82199517D01*
X139624488Y-82271988D01*
X139624482Y-82271993D01*
X139521993Y-82374482D01*
X139521988Y-82374488D01*
X139449517Y-82500011D01*
X139448199Y-82504929D01*
X139412000Y-82640025D01*
X136482500Y-82640025D01*
X136482500Y-81929326D01*
X136482500Y-81929323D01*
X136482499Y-81929321D01*
X136467967Y-81856264D01*
X136467966Y-81856260D01*
X136412601Y-81773399D01*
X136329740Y-81718034D01*
X136329739Y-81718033D01*
X136329735Y-81718032D01*
X136256677Y-81703500D01*
X136256674Y-81703500D01*
X134507326Y-81703500D01*
X134507323Y-81703500D01*
X134434264Y-81718032D01*
X134434260Y-81718033D01*
X134351399Y-81773399D01*
X134296033Y-81856260D01*
X134296032Y-81856264D01*
X134281500Y-81929321D01*
X132672499Y-81929321D01*
X132657967Y-81856264D01*
X132657966Y-81856260D01*
X132602601Y-81773399D01*
X132519740Y-81718034D01*
X132519739Y-81718033D01*
X132519735Y-81718032D01*
X132446677Y-81703500D01*
X132446674Y-81703500D01*
X130697326Y-81703500D01*
X130697323Y-81703500D01*
X130624264Y-81718032D01*
X130624260Y-81718033D01*
X130541399Y-81773399D01*
X130486033Y-81856260D01*
X130486032Y-81856264D01*
X130471500Y-81929321D01*
X128862499Y-81929321D01*
X128847967Y-81856264D01*
X128847966Y-81856260D01*
X128792601Y-81773399D01*
X128709740Y-81718034D01*
X128709739Y-81718033D01*
X128709735Y-81718032D01*
X128636677Y-81703500D01*
X128636674Y-81703500D01*
X126887326Y-81703500D01*
X126887323Y-81703500D01*
X126814264Y-81718032D01*
X126814260Y-81718033D01*
X126731399Y-81773399D01*
X126676033Y-81856260D01*
X126676032Y-81856264D01*
X126661500Y-81929321D01*
X125052499Y-81929321D01*
X125037967Y-81856264D01*
X125037966Y-81856260D01*
X124982601Y-81773399D01*
X124899740Y-81718034D01*
X124899739Y-81718033D01*
X124899735Y-81718032D01*
X124826677Y-81703500D01*
X124826674Y-81703500D01*
X123077326Y-81703500D01*
X123077323Y-81703500D01*
X123004264Y-81718032D01*
X123004260Y-81718033D01*
X122921399Y-81773399D01*
X122866033Y-81856260D01*
X122866032Y-81856264D01*
X122851500Y-81929321D01*
X121242499Y-81929321D01*
X121227967Y-81856264D01*
X121227966Y-81856260D01*
X121172601Y-81773399D01*
X121089740Y-81718034D01*
X121089739Y-81718033D01*
X121089735Y-81718032D01*
X121016677Y-81703500D01*
X121016674Y-81703500D01*
X119267326Y-81703500D01*
X119267323Y-81703500D01*
X119194264Y-81718032D01*
X119194260Y-81718033D01*
X119111399Y-81773399D01*
X119056033Y-81856260D01*
X119056032Y-81856264D01*
X119041500Y-81929321D01*
X117432499Y-81929321D01*
X117417967Y-81856264D01*
X117417966Y-81856260D01*
X117362601Y-81773399D01*
X117279740Y-81718034D01*
X117279739Y-81718033D01*
X117279735Y-81718032D01*
X117206677Y-81703500D01*
X117206674Y-81703500D01*
X115457326Y-81703500D01*
X115457323Y-81703500D01*
X115384264Y-81718032D01*
X115384260Y-81718033D01*
X115301399Y-81773399D01*
X115246033Y-81856260D01*
X115246032Y-81856264D01*
X115231500Y-81929321D01*
X113622499Y-81929321D01*
X113607967Y-81856264D01*
X113607966Y-81856260D01*
X113552601Y-81773399D01*
X113469740Y-81718034D01*
X113469739Y-81718033D01*
X113469735Y-81718032D01*
X113396677Y-81703500D01*
X113396674Y-81703500D01*
X111647326Y-81703500D01*
X111647323Y-81703500D01*
X111574264Y-81718032D01*
X111574260Y-81718033D01*
X111491399Y-81773399D01*
X111436033Y-81856260D01*
X111436032Y-81856264D01*
X111421500Y-81929321D01*
X107688500Y-81929321D01*
X107688500Y-81427525D01*
X137849500Y-81427525D01*
X137849500Y-81572475D01*
X137887016Y-81712485D01*
X137887017Y-81712488D01*
X137959488Y-81838011D01*
X137959490Y-81838013D01*
X137959491Y-81838015D01*
X138061985Y-81940509D01*
X138061986Y-81940510D01*
X138061988Y-81940511D01*
X138187511Y-82012982D01*
X138187512Y-82012982D01*
X138187515Y-82012984D01*
X138327525Y-82050500D01*
X138327528Y-82050500D01*
X138472472Y-82050500D01*
X138472475Y-82050500D01*
X138612485Y-82012984D01*
X138738015Y-81940509D01*
X138840509Y-81838015D01*
X138912984Y-81712485D01*
X138922352Y-81677525D01*
X165699500Y-81677525D01*
X165699500Y-81822475D01*
X165731128Y-81940511D01*
X165737017Y-81962488D01*
X165809488Y-82088011D01*
X165809490Y-82088013D01*
X165809491Y-82088015D01*
X165911985Y-82190509D01*
X165911986Y-82190510D01*
X165911988Y-82190511D01*
X166037511Y-82262982D01*
X166037512Y-82262982D01*
X166037515Y-82262984D01*
X166177525Y-82300500D01*
X166177528Y-82300500D01*
X166322472Y-82300500D01*
X166322475Y-82300500D01*
X166462485Y-82262984D01*
X166588015Y-82190509D01*
X166690509Y-82088015D01*
X166762984Y-81962485D01*
X166800500Y-81822475D01*
X166800500Y-81701389D01*
X167301500Y-81701389D01*
X167301500Y-81874610D01*
X167311937Y-81940511D01*
X167328598Y-82045701D01*
X167382127Y-82210445D01*
X167460768Y-82364788D01*
X167562586Y-82504928D01*
X167685072Y-82627414D01*
X167825212Y-82729232D01*
X167979555Y-82807873D01*
X168144299Y-82861402D01*
X168315389Y-82888500D01*
X168315390Y-82888500D01*
X168488610Y-82888500D01*
X168488611Y-82888500D01*
X168659701Y-82861402D01*
X168824445Y-82807873D01*
X168978788Y-82729232D01*
X169118928Y-82627414D01*
X169241414Y-82504928D01*
X169343232Y-82364788D01*
X169421873Y-82210445D01*
X169475402Y-82045701D01*
X169502500Y-81874611D01*
X169502500Y-81701389D01*
X169475402Y-81530299D01*
X169421873Y-81365555D01*
X169343232Y-81211212D01*
X169241414Y-81071072D01*
X169118928Y-80948586D01*
X168978788Y-80846768D01*
X168824445Y-80768127D01*
X168659701Y-80714598D01*
X168659699Y-80714597D01*
X168659698Y-80714597D01*
X168528271Y-80693781D01*
X168488611Y-80687500D01*
X168315389Y-80687500D01*
X168275728Y-80693781D01*
X168144302Y-80714597D01*
X167979552Y-80768128D01*
X167825211Y-80846768D01*
X167745256Y-80904859D01*
X167685072Y-80948586D01*
X167685070Y-80948588D01*
X167685069Y-80948588D01*
X167562588Y-81071069D01*
X167562588Y-81071070D01*
X167562586Y-81071072D01*
X167550275Y-81088017D01*
X167460768Y-81211211D01*
X167382128Y-81365552D01*
X167328597Y-81530302D01*
X167301500Y-81701389D01*
X166800500Y-81701389D01*
X166800500Y-81677525D01*
X166762984Y-81537515D01*
X166690509Y-81411985D01*
X166588015Y-81309491D01*
X166588013Y-81309490D01*
X166588011Y-81309488D01*
X166462488Y-81237017D01*
X166462489Y-81237017D01*
X166451006Y-81233940D01*
X166322475Y-81199500D01*
X166177525Y-81199500D01*
X166048993Y-81233940D01*
X166037511Y-81237017D01*
X165911988Y-81309488D01*
X165911982Y-81309493D01*
X165809493Y-81411982D01*
X165809488Y-81411988D01*
X165737017Y-81537511D01*
X165737016Y-81537515D01*
X165699500Y-81677525D01*
X138922352Y-81677525D01*
X138950500Y-81572475D01*
X138950500Y-81427525D01*
X138912984Y-81287515D01*
X138883828Y-81237016D01*
X138840511Y-81161988D01*
X138840506Y-81161982D01*
X138738017Y-81059493D01*
X138738011Y-81059488D01*
X138612488Y-80987017D01*
X138612489Y-80987017D01*
X138601006Y-80983940D01*
X138472475Y-80949500D01*
X138327525Y-80949500D01*
X138198993Y-80983940D01*
X138187511Y-80987017D01*
X138061988Y-81059488D01*
X138061982Y-81059493D01*
X137959493Y-81161982D01*
X137959488Y-81161988D01*
X137887017Y-81287511D01*
X137887016Y-81287515D01*
X137849500Y-81427525D01*
X107688500Y-81427525D01*
X107688500Y-80677525D01*
X145924500Y-80677525D01*
X145924500Y-80822475D01*
X145958537Y-80949500D01*
X145962017Y-80962488D01*
X146034488Y-81088011D01*
X146034490Y-81088013D01*
X146034491Y-81088015D01*
X146136985Y-81190509D01*
X146136986Y-81190510D01*
X146136988Y-81190511D01*
X146262511Y-81262982D01*
X146262512Y-81262982D01*
X146262515Y-81262984D01*
X146402525Y-81300500D01*
X146402528Y-81300500D01*
X146547472Y-81300500D01*
X146547475Y-81300500D01*
X146687485Y-81262984D01*
X146813015Y-81190509D01*
X146915509Y-81088015D01*
X146987984Y-80962485D01*
X147025500Y-80822475D01*
X147025500Y-80677525D01*
X146987984Y-80537515D01*
X146915799Y-80412488D01*
X146915511Y-80411988D01*
X146915506Y-80411982D01*
X146813017Y-80309493D01*
X146813011Y-80309488D01*
X146687490Y-80237018D01*
X146687487Y-80237017D01*
X146687485Y-80237016D01*
X146547475Y-80199500D01*
X146402525Y-80199500D01*
X146273993Y-80233940D01*
X146262511Y-80237017D01*
X146136988Y-80309488D01*
X146136982Y-80309493D01*
X146034493Y-80411982D01*
X146034488Y-80411988D01*
X145962017Y-80537511D01*
X145962016Y-80537515D01*
X145924500Y-80677525D01*
X107688500Y-80677525D01*
X107688500Y-80127525D01*
X166049500Y-80127525D01*
X166049500Y-80272475D01*
X166086881Y-80411982D01*
X166087017Y-80412488D01*
X166159488Y-80538011D01*
X166159490Y-80538013D01*
X166159491Y-80538015D01*
X166261985Y-80640509D01*
X166261986Y-80640510D01*
X166261988Y-80640511D01*
X166387511Y-80712982D01*
X166387512Y-80712982D01*
X166387515Y-80712984D01*
X166527525Y-80750500D01*
X166527528Y-80750500D01*
X166672472Y-80750500D01*
X166672475Y-80750500D01*
X166812485Y-80712984D01*
X166938015Y-80640509D01*
X167040509Y-80538015D01*
X167112984Y-80412485D01*
X167150500Y-80272475D01*
X167150500Y-80127525D01*
X167112984Y-79987515D01*
X167099943Y-79964928D01*
X167040511Y-79861988D01*
X167040506Y-79861982D01*
X166938017Y-79759493D01*
X166938011Y-79759488D01*
X166812488Y-79687017D01*
X166812489Y-79687017D01*
X166801006Y-79683940D01*
X166672475Y-79649500D01*
X166527525Y-79649500D01*
X166398993Y-79683940D01*
X166387511Y-79687017D01*
X166261988Y-79759488D01*
X166261982Y-79759493D01*
X166159493Y-79861982D01*
X166159488Y-79861988D01*
X166087017Y-79987511D01*
X166087016Y-79987515D01*
X166049500Y-80127525D01*
X107688500Y-80127525D01*
X107688500Y-79161389D01*
X167301500Y-79161389D01*
X167301500Y-79334611D01*
X167328598Y-79505701D01*
X167382127Y-79670445D01*
X167460768Y-79824788D01*
X167562586Y-79964928D01*
X167685072Y-80087414D01*
X167825212Y-80189232D01*
X167979555Y-80267873D01*
X168144299Y-80321402D01*
X168315389Y-80348500D01*
X168315390Y-80348500D01*
X168488610Y-80348500D01*
X168488611Y-80348500D01*
X168659701Y-80321402D01*
X168824445Y-80267873D01*
X168978788Y-80189232D01*
X169118928Y-80087414D01*
X169241414Y-79964928D01*
X169343232Y-79824788D01*
X169421873Y-79670445D01*
X169475402Y-79505701D01*
X169502500Y-79334611D01*
X169502500Y-79161389D01*
X169475402Y-78990299D01*
X169421873Y-78825555D01*
X169343232Y-78671212D01*
X169241414Y-78531072D01*
X169118928Y-78408586D01*
X168978788Y-78306768D01*
X168824445Y-78228127D01*
X168659701Y-78174598D01*
X168659699Y-78174597D01*
X168659698Y-78174597D01*
X168528271Y-78153781D01*
X168488611Y-78147500D01*
X168315389Y-78147500D01*
X168275728Y-78153781D01*
X168144302Y-78174597D01*
X167979552Y-78228128D01*
X167825211Y-78306768D01*
X167745256Y-78364859D01*
X167685072Y-78408586D01*
X167685070Y-78408588D01*
X167685069Y-78408588D01*
X167562588Y-78531069D01*
X167562588Y-78531070D01*
X167562586Y-78531072D01*
X167518859Y-78591256D01*
X167460768Y-78671211D01*
X167382128Y-78825552D01*
X167328597Y-78990302D01*
X167301500Y-79161389D01*
X107688500Y-79161389D01*
X107688500Y-75827525D01*
X152449500Y-75827525D01*
X152449500Y-75972475D01*
X152472817Y-76059493D01*
X152487017Y-76112488D01*
X152559488Y-76238011D01*
X152559490Y-76238013D01*
X152559491Y-76238015D01*
X152661985Y-76340509D01*
X152661986Y-76340510D01*
X152661988Y-76340511D01*
X152787511Y-76412982D01*
X152787512Y-76412982D01*
X152787515Y-76412984D01*
X152927525Y-76450500D01*
X152927528Y-76450500D01*
X153072472Y-76450500D01*
X153072475Y-76450500D01*
X153158218Y-76427525D01*
X153699500Y-76427525D01*
X153699500Y-76572475D01*
X153712607Y-76621389D01*
X153737017Y-76712488D01*
X153809488Y-76838011D01*
X153809490Y-76838013D01*
X153809491Y-76838015D01*
X153911985Y-76940509D01*
X153911986Y-76940510D01*
X153911988Y-76940511D01*
X154037511Y-77012982D01*
X154037512Y-77012982D01*
X154037515Y-77012984D01*
X154177525Y-77050500D01*
X154177528Y-77050500D01*
X154322472Y-77050500D01*
X154322475Y-77050500D01*
X154462485Y-77012984D01*
X154588015Y-76940509D01*
X154690509Y-76838015D01*
X154762984Y-76712485D01*
X154787393Y-76621389D01*
X167301500Y-76621389D01*
X167301500Y-76794610D01*
X167324607Y-76940506D01*
X167328598Y-76965701D01*
X167382127Y-77130445D01*
X167460768Y-77284788D01*
X167562586Y-77424928D01*
X167685072Y-77547414D01*
X167825212Y-77649232D01*
X167979555Y-77727873D01*
X168144299Y-77781402D01*
X168315389Y-77808500D01*
X168315390Y-77808500D01*
X168488610Y-77808500D01*
X168488611Y-77808500D01*
X168659701Y-77781402D01*
X168824445Y-77727873D01*
X168978788Y-77649232D01*
X169118928Y-77547414D01*
X169241414Y-77424928D01*
X169343232Y-77284788D01*
X169421873Y-77130445D01*
X169475402Y-76965701D01*
X169502500Y-76794611D01*
X169502500Y-76621389D01*
X169475402Y-76450299D01*
X169421873Y-76285555D01*
X169343232Y-76131212D01*
X169241414Y-75991072D01*
X169118928Y-75868586D01*
X168978788Y-75766768D01*
X168824445Y-75688127D01*
X168659701Y-75634598D01*
X168659699Y-75634597D01*
X168659698Y-75634597D01*
X168528271Y-75613781D01*
X168488611Y-75607500D01*
X168315389Y-75607500D01*
X168275728Y-75613781D01*
X168144302Y-75634597D01*
X167979552Y-75688128D01*
X167825211Y-75766768D01*
X167745256Y-75824859D01*
X167685072Y-75868586D01*
X167685070Y-75868588D01*
X167685069Y-75868588D01*
X167562588Y-75991069D01*
X167562588Y-75991070D01*
X167562586Y-75991072D01*
X167518859Y-76051256D01*
X167460768Y-76131211D01*
X167382128Y-76285552D01*
X167328597Y-76450302D01*
X167301500Y-76621389D01*
X154787393Y-76621389D01*
X154800500Y-76572475D01*
X154800500Y-76427525D01*
X154762984Y-76287515D01*
X154761852Y-76285555D01*
X154690511Y-76161988D01*
X154690506Y-76161982D01*
X154588017Y-76059493D01*
X154588011Y-76059488D01*
X154462488Y-75987017D01*
X154462489Y-75987017D01*
X154451006Y-75983940D01*
X154322475Y-75949500D01*
X154177525Y-75949500D01*
X154048993Y-75983940D01*
X154037511Y-75987017D01*
X153911988Y-76059488D01*
X153911982Y-76059493D01*
X153809493Y-76161982D01*
X153809488Y-76161988D01*
X153737017Y-76287511D01*
X153737016Y-76287515D01*
X153699500Y-76427525D01*
X153158218Y-76427525D01*
X153212485Y-76412984D01*
X153338015Y-76340509D01*
X153440509Y-76238015D01*
X153512984Y-76112485D01*
X153550500Y-75972475D01*
X153550500Y-75827525D01*
X153512984Y-75687515D01*
X153482432Y-75634598D01*
X153440511Y-75561988D01*
X153440506Y-75561982D01*
X153338017Y-75459493D01*
X153338011Y-75459488D01*
X153212488Y-75387017D01*
X153212489Y-75387017D01*
X153201006Y-75383940D01*
X153072475Y-75349500D01*
X152927525Y-75349500D01*
X152798993Y-75383940D01*
X152787511Y-75387017D01*
X152661988Y-75459488D01*
X152661982Y-75459493D01*
X152559493Y-75561982D01*
X152559488Y-75561988D01*
X152487017Y-75687511D01*
X152487016Y-75687515D01*
X152449500Y-75827525D01*
X107688500Y-75827525D01*
X107688500Y-71332903D01*
X125413985Y-71332903D01*
X125413985Y-71477853D01*
X125436659Y-71562472D01*
X125451502Y-71617866D01*
X125523973Y-71743389D01*
X125523975Y-71743391D01*
X125523976Y-71743393D01*
X125626470Y-71845887D01*
X125626471Y-71845888D01*
X125626473Y-71845889D01*
X125751996Y-71918360D01*
X125751997Y-71918360D01*
X125752000Y-71918362D01*
X125892010Y-71955878D01*
X125892013Y-71955878D01*
X126036958Y-71955878D01*
X126036960Y-71955878D01*
X126143445Y-71927345D01*
X126213292Y-71929007D01*
X126271155Y-71968168D01*
X126298660Y-72032397D01*
X126295312Y-72079212D01*
X126258332Y-72217222D01*
X126258332Y-72362172D01*
X126279161Y-72439905D01*
X126295849Y-72502185D01*
X126368320Y-72627708D01*
X126368322Y-72627710D01*
X126368323Y-72627712D01*
X126470817Y-72730206D01*
X126470818Y-72730207D01*
X126470820Y-72730208D01*
X126596343Y-72802679D01*
X126596344Y-72802679D01*
X126596347Y-72802681D01*
X126736357Y-72840197D01*
X126736360Y-72840197D01*
X126881304Y-72840197D01*
X126881307Y-72840197D01*
X127006634Y-72806615D01*
X127021030Y-72806957D01*
X127034711Y-72802455D01*
X127055260Y-72807772D01*
X127076481Y-72808278D01*
X127089677Y-72816679D01*
X127102352Y-72819959D01*
X127121214Y-72836755D01*
X127129760Y-72842196D01*
X127135658Y-72848574D01*
X127136709Y-72850393D01*
X127145119Y-72858803D01*
X127146756Y-72860573D01*
X127161258Y-72889787D01*
X127176887Y-72918409D01*
X127176708Y-72920910D01*
X127177823Y-72923156D01*
X127174229Y-72955568D01*
X127171903Y-72988101D01*
X127170228Y-72991654D01*
X127170124Y-72992600D01*
X127169311Y-72993601D01*
X127163108Y-73006767D01*
X127104672Y-73107981D01*
X127104671Y-73107985D01*
X127067155Y-73247995D01*
X127067155Y-73392945D01*
X127104671Y-73532955D01*
X127104672Y-73532958D01*
X127177143Y-73658481D01*
X127177145Y-73658483D01*
X127177146Y-73658485D01*
X127279640Y-73760979D01*
X127279641Y-73760980D01*
X127279643Y-73760981D01*
X127405166Y-73833452D01*
X127405167Y-73833452D01*
X127405170Y-73833454D01*
X127545180Y-73870970D01*
X127545183Y-73870970D01*
X127690127Y-73870970D01*
X127690130Y-73870970D01*
X127789285Y-73844401D01*
X127859133Y-73846064D01*
X127916538Y-73884675D01*
X127923408Y-73892898D01*
X127935373Y-73913622D01*
X127967873Y-73946122D01*
X127971427Y-73950376D01*
X127983242Y-73977533D01*
X127997432Y-74003519D01*
X127997024Y-74009210D01*
X127999302Y-74014444D01*
X127994560Y-74043674D01*
X127992448Y-74073211D01*
X127988863Y-74078792D01*
X127988114Y-74083413D01*
X127980338Y-74092066D01*
X127972132Y-74104842D01*
X127973847Y-74106158D01*
X127968902Y-74112601D01*
X127898913Y-74233826D01*
X127896423Y-74238138D01*
X127858907Y-74378148D01*
X127858907Y-74523098D01*
X127896423Y-74663108D01*
X127896424Y-74663111D01*
X127968895Y-74788634D01*
X127968897Y-74788636D01*
X127968898Y-74788638D01*
X128071392Y-74891132D01*
X128071393Y-74891133D01*
X128071395Y-74891134D01*
X128196918Y-74963605D01*
X128196919Y-74963605D01*
X128196922Y-74963607D01*
X128336932Y-75001123D01*
X128336935Y-75001123D01*
X128481879Y-75001123D01*
X128481882Y-75001123D01*
X128621892Y-74963607D01*
X128747422Y-74891132D01*
X128849916Y-74788638D01*
X128922391Y-74663108D01*
X128959907Y-74523098D01*
X128959907Y-74378148D01*
X128922391Y-74238138D01*
X128919901Y-74233826D01*
X128849918Y-74112611D01*
X128849913Y-74112605D01*
X128821341Y-74084033D01*
X128787856Y-74022710D01*
X128792840Y-73953018D01*
X128813182Y-73921408D01*
X128811442Y-73920073D01*
X128816388Y-73913626D01*
X128816389Y-73913623D01*
X128816391Y-73913622D01*
X128888866Y-73788092D01*
X128926382Y-73648082D01*
X128926382Y-73503132D01*
X128888866Y-73363122D01*
X128888864Y-73363118D01*
X128870683Y-73331627D01*
X128870682Y-73331626D01*
X128836952Y-73273205D01*
X167252000Y-73273205D01*
X167252000Y-73918000D01*
X167968988Y-73918000D01*
X167936075Y-73975007D01*
X167902000Y-74102174D01*
X167902000Y-74233826D01*
X167936075Y-74360993D01*
X167968988Y-74418000D01*
X167252001Y-74418000D01*
X167252001Y-75062785D01*
X167252002Y-75062808D01*
X167254908Y-75087869D01*
X167254909Y-75087873D01*
X167300211Y-75190474D01*
X167300214Y-75190479D01*
X167379520Y-75269785D01*
X167379525Y-75269788D01*
X167482123Y-75315089D01*
X167507206Y-75317999D01*
X168151999Y-75317999D01*
X168152000Y-75317998D01*
X168152000Y-74601012D01*
X168209007Y-74633925D01*
X168336174Y-74668000D01*
X168467826Y-74668000D01*
X168594993Y-74633925D01*
X168652000Y-74601012D01*
X168652000Y-75317999D01*
X169296786Y-75317999D01*
X169296808Y-75317997D01*
X169321869Y-75315091D01*
X169321873Y-75315090D01*
X169424474Y-75269788D01*
X169424479Y-75269785D01*
X169503785Y-75190479D01*
X169503788Y-75190474D01*
X169549089Y-75087877D01*
X169549089Y-75087875D01*
X169551999Y-75062794D01*
X169552000Y-75062791D01*
X169552000Y-74418000D01*
X168835012Y-74418000D01*
X168867925Y-74360993D01*
X168902000Y-74233826D01*
X168902000Y-74102174D01*
X168867925Y-73975007D01*
X168835012Y-73918000D01*
X169551999Y-73918000D01*
X169551999Y-73273214D01*
X169551997Y-73273191D01*
X169549091Y-73248130D01*
X169549090Y-73248126D01*
X169503788Y-73145525D01*
X169503785Y-73145520D01*
X169424479Y-73066214D01*
X169424474Y-73066211D01*
X169321876Y-73020910D01*
X169296794Y-73018000D01*
X168652000Y-73018000D01*
X168652000Y-73734988D01*
X168594993Y-73702075D01*
X168467826Y-73668000D01*
X168336174Y-73668000D01*
X168209007Y-73702075D01*
X168152000Y-73734988D01*
X168152000Y-73018000D01*
X167507214Y-73018000D01*
X167507191Y-73018002D01*
X167482130Y-73020908D01*
X167482126Y-73020909D01*
X167379525Y-73066211D01*
X167379520Y-73066214D01*
X167300214Y-73145520D01*
X167300211Y-73145525D01*
X167254910Y-73248122D01*
X167254910Y-73248124D01*
X167252000Y-73273205D01*
X128836952Y-73273205D01*
X128836944Y-73273191D01*
X128816391Y-73237592D01*
X128713897Y-73135098D01*
X128713895Y-73135097D01*
X128713893Y-73135095D01*
X128588370Y-73062624D01*
X128588371Y-73062624D01*
X128562198Y-73055611D01*
X128448357Y-73025107D01*
X128303407Y-73025107D01*
X128204251Y-73051675D01*
X128183728Y-73051187D01*
X128163681Y-73055611D01*
X128149507Y-73050372D01*
X128134403Y-73050013D01*
X128117401Y-73038506D01*
X128098144Y-73031389D01*
X128084894Y-73016505D01*
X128076540Y-73010851D01*
X128073114Y-73006507D01*
X128068559Y-73000460D01*
X128058164Y-72982455D01*
X128045329Y-72969620D01*
X128040106Y-72962686D01*
X128030734Y-72937787D01*
X128017985Y-72914438D01*
X128018617Y-72905593D01*
X128015494Y-72897294D01*
X128021071Y-72871282D01*
X128022969Y-72844746D01*
X128029927Y-72829976D01*
X128030142Y-72828977D01*
X128030629Y-72828486D01*
X128031760Y-72826085D01*
X128090202Y-72724863D01*
X128127718Y-72584853D01*
X128127718Y-72439903D01*
X128090202Y-72299893D01*
X128017727Y-72174363D01*
X127915233Y-72071869D01*
X127915231Y-72071868D01*
X127915229Y-72071866D01*
X127789706Y-71999395D01*
X127789707Y-71999395D01*
X127778224Y-71996318D01*
X127649693Y-71961878D01*
X127504743Y-71961878D01*
X127379417Y-71995459D01*
X127365288Y-71995122D01*
X127351884Y-71999600D01*
X127331054Y-71994307D01*
X127309567Y-71993796D01*
X127296526Y-71985534D01*
X127284166Y-71982394D01*
X127265630Y-71965960D01*
X127256660Y-71960278D01*
X127250479Y-71953654D01*
X127249341Y-71951682D01*
X127238863Y-71941204D01*
X127237414Y-71939651D01*
X127222661Y-71910257D01*
X127206912Y-71881415D01*
X127207070Y-71879194D01*
X127206072Y-71877205D01*
X127209550Y-71844517D01*
X127211896Y-71811723D01*
X127213374Y-71808584D01*
X127213466Y-71807728D01*
X127214220Y-71806789D01*
X127220686Y-71793066D01*
X127272984Y-71702485D01*
X127310500Y-71562475D01*
X127310500Y-71417525D01*
X127289868Y-71340525D01*
X147286500Y-71340525D01*
X147286500Y-71485475D01*
X147324016Y-71625485D01*
X147324017Y-71625488D01*
X147396488Y-71751011D01*
X147396490Y-71751013D01*
X147396491Y-71751015D01*
X147498985Y-71853509D01*
X147498986Y-71853510D01*
X147498988Y-71853511D01*
X147624511Y-71925982D01*
X147624512Y-71925982D01*
X147624515Y-71925984D01*
X147764525Y-71963500D01*
X147764528Y-71963500D01*
X147909472Y-71963500D01*
X147909475Y-71963500D01*
X148049485Y-71925984D01*
X148175015Y-71853509D01*
X148277509Y-71751015D01*
X148349984Y-71625485D01*
X148387500Y-71485475D01*
X148387500Y-71340525D01*
X148349984Y-71200515D01*
X148345583Y-71192893D01*
X148277511Y-71074988D01*
X148277506Y-71074982D01*
X148175017Y-70972493D01*
X148175011Y-70972488D01*
X148049488Y-70900017D01*
X148049489Y-70900017D01*
X148021043Y-70892395D01*
X147909475Y-70862500D01*
X147764525Y-70862500D01*
X147652957Y-70892395D01*
X147624511Y-70900017D01*
X147498988Y-70972488D01*
X147498982Y-70972493D01*
X147396493Y-71074982D01*
X147396488Y-71074988D01*
X147324017Y-71200511D01*
X147324016Y-71200515D01*
X147286500Y-71340525D01*
X127289868Y-71340525D01*
X127272984Y-71277515D01*
X127224127Y-71192893D01*
X127200511Y-71151988D01*
X127200506Y-71151982D01*
X127098017Y-71049493D01*
X127098011Y-71049488D01*
X126972488Y-70977017D01*
X126972489Y-70977017D01*
X126955586Y-70972488D01*
X126832475Y-70939500D01*
X126687525Y-70939500D01*
X126564414Y-70972488D01*
X126547511Y-70977017D01*
X126482283Y-71014677D01*
X126414383Y-71031150D01*
X126348356Y-71008297D01*
X126332602Y-70994971D01*
X126302502Y-70964871D01*
X126302496Y-70964866D01*
X126176973Y-70892395D01*
X126176974Y-70892395D01*
X126165491Y-70889318D01*
X126036960Y-70854878D01*
X125892010Y-70854878D01*
X125763478Y-70889318D01*
X125751996Y-70892395D01*
X125626473Y-70964866D01*
X125626467Y-70964871D01*
X125523978Y-71067360D01*
X125523973Y-71067366D01*
X125451502Y-71192889D01*
X125451501Y-71192893D01*
X125413985Y-71332903D01*
X107688500Y-71332903D01*
X107688500Y-63496358D01*
X131136163Y-63496358D01*
X131136163Y-63683599D01*
X131172688Y-63867222D01*
X131172690Y-63867230D01*
X131244339Y-64040207D01*
X131244344Y-64040216D01*
X131348360Y-64195886D01*
X131348363Y-64195890D01*
X131480751Y-64328278D01*
X131480755Y-64328281D01*
X131636425Y-64432297D01*
X131636431Y-64432300D01*
X131636432Y-64432301D01*
X131809412Y-64503952D01*
X131993042Y-64540478D01*
X131993046Y-64540479D01*
X131993047Y-64540479D01*
X132180280Y-64540479D01*
X132180281Y-64540478D01*
X132363914Y-64503952D01*
X132488006Y-64452551D01*
X133477642Y-64452551D01*
X133512991Y-64476171D01*
X133694969Y-64551548D01*
X133694981Y-64551551D01*
X133888167Y-64589978D01*
X133888171Y-64589979D01*
X134085155Y-64589979D01*
X134085158Y-64589978D01*
X134278344Y-64551551D01*
X134278356Y-64551548D01*
X134460339Y-64476169D01*
X134460343Y-64476166D01*
X134495682Y-64452552D01*
X134495683Y-64452551D01*
X135634979Y-64452551D01*
X135670328Y-64476171D01*
X135852306Y-64551548D01*
X135852318Y-64551551D01*
X136045504Y-64589978D01*
X136045508Y-64589979D01*
X136242492Y-64589979D01*
X136242495Y-64589978D01*
X136435681Y-64551551D01*
X136435693Y-64551548D01*
X136617676Y-64476169D01*
X136617680Y-64476166D01*
X136653019Y-64452552D01*
X136653020Y-64452551D01*
X136144001Y-63943532D01*
X136144000Y-63943532D01*
X135634979Y-64452551D01*
X134495683Y-64452551D01*
X133986664Y-63943532D01*
X133986663Y-63943532D01*
X133477642Y-64452551D01*
X132488006Y-64452551D01*
X132536894Y-64432301D01*
X132692571Y-64328281D01*
X132692574Y-64328278D01*
X132702193Y-64318660D01*
X132824962Y-64195890D01*
X132824965Y-64195887D01*
X132851817Y-64155699D01*
X132903794Y-64077912D01*
X132957406Y-64033106D01*
X133026731Y-64024399D01*
X133089758Y-64054553D01*
X133109998Y-64077911D01*
X133124088Y-64098999D01*
X133633109Y-63589979D01*
X133633109Y-63589978D01*
X133587032Y-63543901D01*
X133636663Y-63543901D01*
X133636663Y-63636057D01*
X133660515Y-63725074D01*
X133706593Y-63804884D01*
X133771758Y-63870049D01*
X133851568Y-63916127D01*
X133940585Y-63939979D01*
X134032741Y-63939979D01*
X134121758Y-63916127D01*
X134201568Y-63870049D01*
X134266733Y-63804884D01*
X134312811Y-63725074D01*
X134336663Y-63636057D01*
X134336663Y-63589978D01*
X134340216Y-63589978D01*
X134340216Y-63589980D01*
X134849235Y-64098999D01*
X134849236Y-64098998D01*
X134872850Y-64063659D01*
X134872853Y-64063655D01*
X134950565Y-63876041D01*
X134953077Y-63877081D01*
X134984883Y-63828454D01*
X135048669Y-63799940D01*
X135117746Y-63810437D01*
X135170181Y-63856614D01*
X135179232Y-63876399D01*
X135180098Y-63876041D01*
X135257808Y-64063652D01*
X135257809Y-64063654D01*
X135281425Y-64098998D01*
X135790446Y-63589979D01*
X135790446Y-63589978D01*
X135744369Y-63543901D01*
X135794000Y-63543901D01*
X135794000Y-63636057D01*
X135817852Y-63725074D01*
X135863930Y-63804884D01*
X135929095Y-63870049D01*
X136008905Y-63916127D01*
X136097922Y-63939979D01*
X136190078Y-63939979D01*
X136279095Y-63916127D01*
X136358905Y-63870049D01*
X136424070Y-63804884D01*
X136470148Y-63725074D01*
X136494000Y-63636057D01*
X136494000Y-63589978D01*
X136497553Y-63589978D01*
X136497553Y-63589979D01*
X137006572Y-64098999D01*
X137020665Y-64077909D01*
X137074279Y-64033105D01*
X137143604Y-64024399D01*
X137206631Y-64054555D01*
X137226868Y-64077911D01*
X137305697Y-64195886D01*
X137305700Y-64195890D01*
X137438088Y-64328278D01*
X137438092Y-64328281D01*
X137593762Y-64432297D01*
X137593768Y-64432300D01*
X137593769Y-64432301D01*
X137766749Y-64503952D01*
X137950379Y-64540478D01*
X137950383Y-64540479D01*
X137950384Y-64540479D01*
X138137617Y-64540479D01*
X138137618Y-64540478D01*
X138321251Y-64503952D01*
X138494231Y-64432301D01*
X138649908Y-64328281D01*
X138782302Y-64195887D01*
X138886322Y-64040210D01*
X138957973Y-63867230D01*
X138994500Y-63683595D01*
X138994500Y-63496363D01*
X138957973Y-63312728D01*
X138886322Y-63139748D01*
X138886321Y-63139747D01*
X138886318Y-63139741D01*
X138782302Y-62984071D01*
X138782299Y-62984067D01*
X138649911Y-62851679D01*
X138649907Y-62851676D01*
X138494237Y-62747660D01*
X138494228Y-62747655D01*
X138321251Y-62676006D01*
X138321243Y-62676004D01*
X138137620Y-62639479D01*
X138137616Y-62639479D01*
X137950384Y-62639479D01*
X137950379Y-62639479D01*
X137766756Y-62676004D01*
X137766748Y-62676006D01*
X137593771Y-62747655D01*
X137593762Y-62747660D01*
X137438092Y-62851676D01*
X137438088Y-62851679D01*
X137305700Y-62984067D01*
X137305697Y-62984071D01*
X137226868Y-63102047D01*
X137173256Y-63146852D01*
X137103931Y-63155559D01*
X137040903Y-63125404D01*
X137020664Y-63102047D01*
X137006572Y-63080958D01*
X136497553Y-63589978D01*
X136494000Y-63589978D01*
X136494000Y-63543901D01*
X136470148Y-63454884D01*
X136424070Y-63375074D01*
X136358905Y-63309909D01*
X136279095Y-63263831D01*
X136190078Y-63239979D01*
X136097922Y-63239979D01*
X136008905Y-63263831D01*
X135929095Y-63309909D01*
X135863930Y-63375074D01*
X135817852Y-63454884D01*
X135794000Y-63543901D01*
X135744369Y-63543901D01*
X135281426Y-63080957D01*
X135281426Y-63080958D01*
X135257813Y-63116297D01*
X135257809Y-63116304D01*
X135180098Y-63303918D01*
X135177622Y-63302892D01*
X135145613Y-63351645D01*
X135081777Y-63380047D01*
X135012719Y-63369427D01*
X134960365Y-63323158D01*
X134951430Y-63303558D01*
X134950565Y-63303917D01*
X134872855Y-63116307D01*
X134849235Y-63080958D01*
X134340216Y-63589978D01*
X134336663Y-63589978D01*
X134336663Y-63543901D01*
X134312811Y-63454884D01*
X134266733Y-63375074D01*
X134201568Y-63309909D01*
X134121758Y-63263831D01*
X134032741Y-63239979D01*
X133940585Y-63239979D01*
X133851568Y-63263831D01*
X133771758Y-63309909D01*
X133706593Y-63375074D01*
X133660515Y-63454884D01*
X133636663Y-63543901D01*
X133587032Y-63543901D01*
X133124089Y-63080957D01*
X133124088Y-63080958D01*
X133109998Y-63102046D01*
X133056386Y-63146851D01*
X132987061Y-63155558D01*
X132924033Y-63125404D01*
X132903794Y-63102046D01*
X132824965Y-62984071D01*
X132824962Y-62984067D01*
X132692574Y-62851679D01*
X132692570Y-62851676D01*
X132536900Y-62747660D01*
X132536891Y-62747655D01*
X132488003Y-62727405D01*
X133477641Y-62727405D01*
X133986663Y-63236425D01*
X133986664Y-63236425D01*
X134495683Y-62727405D01*
X135634978Y-62727405D01*
X136144000Y-63236425D01*
X136144001Y-63236425D01*
X136653020Y-62727405D01*
X136617675Y-62703788D01*
X136617673Y-62703787D01*
X136435693Y-62628409D01*
X136435681Y-62628406D01*
X136242495Y-62589979D01*
X136045504Y-62589979D01*
X135852318Y-62628406D01*
X135852310Y-62628408D01*
X135670325Y-62703788D01*
X135670318Y-62703792D01*
X135634979Y-62727405D01*
X135634978Y-62727405D01*
X134495683Y-62727405D01*
X134460338Y-62703788D01*
X134460336Y-62703787D01*
X134278356Y-62628409D01*
X134278344Y-62628406D01*
X134085158Y-62589979D01*
X133888167Y-62589979D01*
X133694981Y-62628406D01*
X133694973Y-62628408D01*
X133512988Y-62703788D01*
X133512981Y-62703792D01*
X133477642Y-62727405D01*
X133477641Y-62727405D01*
X132488003Y-62727405D01*
X132363914Y-62676006D01*
X132363906Y-62676004D01*
X132180283Y-62639479D01*
X132180279Y-62639479D01*
X131993047Y-62639479D01*
X131993042Y-62639479D01*
X131809419Y-62676004D01*
X131809411Y-62676006D01*
X131636434Y-62747655D01*
X131636425Y-62747660D01*
X131480755Y-62851676D01*
X131480751Y-62851679D01*
X131348363Y-62984067D01*
X131348360Y-62984071D01*
X131244344Y-63139741D01*
X131244339Y-63139750D01*
X131172690Y-63312727D01*
X131172688Y-63312735D01*
X131136163Y-63496358D01*
X107688500Y-63496358D01*
X107688500Y-61697750D01*
X107688726Y-61690263D01*
X107706271Y-61400205D01*
X107708076Y-61385340D01*
X107759780Y-61103201D01*
X107763364Y-61088663D01*
X107840096Y-60842422D01*
X107848696Y-60814822D01*
X107853998Y-60800841D01*
X107971731Y-60539249D01*
X107978676Y-60526016D01*
X108127080Y-60280526D01*
X108135567Y-60268230D01*
X108312480Y-60042417D01*
X108322395Y-60031226D01*
X108525226Y-59828395D01*
X108536417Y-59818480D01*
X108762230Y-59641567D01*
X108774526Y-59633080D01*
X109020016Y-59484676D01*
X109033249Y-59477731D01*
X109294841Y-59359998D01*
X109308822Y-59354696D01*
X109582668Y-59269362D01*
X109597197Y-59265780D01*
X109879344Y-59214075D01*
X109894201Y-59212271D01*
X110184264Y-59194726D01*
X110191751Y-59194500D01*
X110253892Y-59194500D01*
X174226108Y-59194500D01*
X174288249Y-59194500D01*
X174295736Y-59194726D01*
G37*
%TD.AperFunction*%
%TD*%
M02*
