%TF.GenerationSoftware,KiCad,Pcbnew,9.0.7*%
%TF.CreationDate,2026-02-15T15:39:24-05:00*%
%TF.ProjectId,BezelBud,42657a65-6c42-4756-942e-6b696361645f,rev?*%
%TF.SameCoordinates,Original*%
%TF.FileFunction,Copper,L4,Bot*%
%TF.FilePolarity,Positive*%
%FSLAX46Y46*%
G04 Gerber Fmt 4.6, Leading zero omitted, Abs format (unit mm)*
G04 Created by KiCad (PCBNEW 9.0.7) date 2026-02-15 15:39:24*
%MOMM*%
%LPD*%
G01*
G04 APERTURE LIST*
%TA.AperFunction,ComponentPad*%
%ADD10C,0.800000*%
%TD*%
%TA.AperFunction,ComponentPad*%
%ADD11C,6.400000*%
%TD*%
%TA.AperFunction,ComponentPad*%
%ADD12C,1.400000*%
%TD*%
%TA.AperFunction,ComponentPad*%
%ADD13C,1.700000*%
%TD*%
%TA.AperFunction,ComponentPad*%
%ADD14R,1.700000X1.700000*%
%TD*%
%TA.AperFunction,HeatsinkPad*%
%ADD15O,1.000000X2.100000*%
%TD*%
%TA.AperFunction,HeatsinkPad*%
%ADD16O,1.000000X1.800000*%
%TD*%
%TA.AperFunction,ViaPad*%
%ADD17C,0.600000*%
%TD*%
%TA.AperFunction,Conductor*%
%ADD18C,0.200000*%
%TD*%
%TA.AperFunction,Conductor*%
%ADD19C,0.600000*%
%TD*%
G04 APERTURE END LIST*
D10*
%TO.P,H4,1,1*%
%TO.N,GND*%
X169600000Y-93200000D03*
X170302944Y-91502944D03*
X170302944Y-94897056D03*
X172000000Y-90800000D03*
D11*
X172000000Y-93200000D03*
D10*
X172000000Y-95600000D03*
X173697056Y-91502944D03*
X173697056Y-94897056D03*
X174400000Y-93200000D03*
%TD*%
%TO.P,H3,1,1*%
%TO.N,GND*%
X110102944Y-93197056D03*
X110805888Y-91500000D03*
X110805888Y-94894112D03*
X112502944Y-90797056D03*
D11*
X112502944Y-93197056D03*
D10*
X112502944Y-95597056D03*
X114200000Y-91500000D03*
X114200000Y-94894112D03*
X114902944Y-93197056D03*
%TD*%
%TO.P,H2,1,1*%
%TO.N,GND*%
X169600000Y-64000000D03*
X170302944Y-62302944D03*
X170302944Y-65697056D03*
X172000000Y-61600000D03*
D11*
X172000000Y-64000000D03*
D10*
X172000000Y-66400000D03*
X173697056Y-62302944D03*
X173697056Y-65697056D03*
X174400000Y-64000000D03*
%TD*%
%TO.P,H1,1,1*%
%TO.N,GND*%
X110100000Y-64100000D03*
X110802944Y-62402944D03*
X110802944Y-65797056D03*
X112500000Y-61700000D03*
D11*
X112500000Y-64100000D03*
D10*
X112500000Y-66500000D03*
X114197056Y-62402944D03*
X114197056Y-65797056D03*
X114900000Y-64100000D03*
%TD*%
D12*
%TO.P,MICR1,2,+*%
%TO.N,GND*%
X133986663Y-63589979D03*
%TO.P,MICR1,1,-*%
%TO.N,/MICR*%
X132086663Y-63589979D03*
%TD*%
%TO.P,MICL1,2,+*%
%TO.N,GND*%
X136144000Y-63589979D03*
%TO.P,MICL1,1,-*%
%TO.N,/MICL*%
X138044000Y-63589979D03*
%TD*%
D13*
%TO.P,SW9,3,C*%
%TO.N,GND*%
X135382000Y-87884000D03*
%TO.P,SW9,2,B*%
%TO.N,/MD6*%
X135382000Y-85344000D03*
D14*
%TO.P,SW9,1,A*%
%TO.N,+3.3V*%
X135382000Y-82804000D03*
%TD*%
D13*
%TO.P,SW8,3,C*%
%TO.N,GND*%
X127762000Y-87884000D03*
%TO.P,SW8,2,B*%
%TO.N,/MD4*%
X127762000Y-85344000D03*
D14*
%TO.P,SW8,1,A*%
%TO.N,+3.3V*%
X127762000Y-82804000D03*
%TD*%
D13*
%TO.P,SW5,3,C*%
%TO.N,GND*%
X131572000Y-87884000D03*
%TO.P,SW5,2,B*%
%TO.N,/MD5*%
X131572000Y-85344000D03*
D14*
%TO.P,SW5,1,A*%
%TO.N,+3.3V*%
X131572000Y-82804000D03*
%TD*%
D13*
%TO.P,SW4,3,C*%
%TO.N,GND*%
X120142000Y-87884000D03*
%TO.P,SW4,2,B*%
%TO.N,/MD2*%
X120142000Y-85344000D03*
D14*
%TO.P,SW4,1,A*%
%TO.N,+3.3V*%
X120142000Y-82804000D03*
%TD*%
D13*
%TO.P,SW6,3,C*%
%TO.N,GND*%
X112522000Y-87884000D03*
%TO.P,SW6,2,B*%
%TO.N,/MD0*%
X112522000Y-85344000D03*
D14*
%TO.P,SW6,1,A*%
%TO.N,+3.3V*%
X112522000Y-82804000D03*
%TD*%
D13*
%TO.P,SW3,3,C*%
%TO.N,GND*%
X116332000Y-87884000D03*
%TO.P,SW3,2,B*%
%TO.N,/MD1*%
X116332000Y-85344000D03*
D14*
%TO.P,SW3,1,A*%
%TO.N,+3.3V*%
X116332000Y-82804000D03*
%TD*%
D13*
%TO.P,SW7,3,C*%
%TO.N,GND*%
X123952000Y-87884000D03*
%TO.P,SW7,2,B*%
%TO.N,/MD3*%
X123952000Y-85344000D03*
D14*
%TO.P,SW7,1,A*%
%TO.N,+3.3V*%
X123952000Y-82804000D03*
%TD*%
D15*
%TO.P,J1,S1,SHIELD*%
%TO.N,GND*%
X138426000Y-91050000D03*
D16*
X138426000Y-95250000D03*
D15*
X147066000Y-91050000D03*
D16*
X147066000Y-95250000D03*
%TD*%
D14*
%TO.P,J2,1,Pin_1*%
%TO.N,GND*%
X168402000Y-74168000D03*
D13*
%TO.P,J2,2,Pin_2*%
%TO.N,/NRST*%
X168402000Y-76708000D03*
%TO.P,J2,3,Pin_3*%
%TO.N,/SWLCK*%
X168402000Y-79248000D03*
%TO.P,J2,4,Pin_4*%
%TO.N,/SWDIO*%
X168402000Y-81788000D03*
%TO.P,J2,5,Pin_5*%
%TO.N,+3.3V*%
X168402000Y-84328000D03*
%TD*%
D14*
%TO.P,SW2,1,A*%
%TO.N,GND*%
X147008810Y-84895043D03*
D13*
%TO.P,SW2,2,B*%
%TO.N,/BOOT0*%
X149548810Y-84895043D03*
%TO.P,SW2,3,C*%
%TO.N,/BOOT_H*%
X152088810Y-84895043D03*
%TD*%
D17*
%TO.N,GND*%
X172654000Y-78400000D03*
X144700000Y-84300000D03*
X144700000Y-78800000D03*
X170200000Y-80600000D03*
%TO.N,+3.3V*%
X138400000Y-81500000D03*
%TO.N,GND*%
X109100000Y-75100000D03*
X134292021Y-69714551D03*
X138000000Y-68500000D03*
X132100000Y-68500000D03*
X159200000Y-77400000D03*
X159200000Y-75100000D03*
X165100000Y-78500000D03*
X166300000Y-77200000D03*
X166300000Y-75000000D03*
%TO.N,/MUTE_SW*%
X150424265Y-83424265D03*
X140000000Y-84800000D03*
%TO.N,+3.3V*%
X159800000Y-85200000D03*
X157800000Y-85200000D03*
X159800000Y-84000000D03*
X157800000Y-84000000D03*
%TO.N,GND*%
X138100000Y-73000000D03*
X134600000Y-73000000D03*
X131800000Y-75100000D03*
X143100000Y-75900000D03*
X140250000Y-77750000D03*
X137500000Y-80250000D03*
X133750000Y-80250000D03*
%TO.N,+3.3V*%
X139962500Y-82712500D03*
%TO.N,GND*%
X127000000Y-78250000D03*
X131000000Y-78250000D03*
X123250000Y-77250000D03*
X139600000Y-62105979D03*
X135000000Y-62105979D03*
X130600000Y-62105979D03*
X139600000Y-64400000D03*
X130500000Y-64400000D03*
X132100000Y-65800000D03*
X138000000Y-65800000D03*
X135000000Y-65200000D03*
X161000000Y-82500000D03*
X160600000Y-80750000D03*
%TO.N,/SWDIO*%
X166250000Y-81750000D03*
X153000000Y-75900000D03*
%TO.N,/SWLCK*%
X154250000Y-76500000D03*
X166600000Y-80200000D03*
%TO.N,/LED_BLINK*%
X158150000Y-92750000D03*
X150000000Y-89500000D03*
%TO.N,/LED_LIVE*%
X163000000Y-92750000D03*
X151000000Y-89000000D03*
%TO.N,GND*%
X146287000Y-71463000D03*
X143500000Y-71250000D03*
X139500000Y-71250000D03*
X135500000Y-71250000D03*
X131500000Y-71250000D03*
X112966848Y-75148598D03*
X120966848Y-75148598D03*
X116966848Y-75148598D03*
X176300000Y-71300000D03*
X172750000Y-71250000D03*
X168750000Y-71250000D03*
X164750000Y-71250000D03*
X160750000Y-71250000D03*
%TO.N,+3.3V*%
X146475000Y-80750000D03*
X147837000Y-71413000D03*
%TO.N,GND*%
X148025000Y-78750000D03*
X153500000Y-95100000D03*
X152000000Y-95100000D03*
X142750000Y-88250000D03*
X159000000Y-87630000D03*
%TO.N,/MD6*%
X128409407Y-74450623D03*
%TO.N,/MD1*%
X126760000Y-71490000D03*
%TO.N,/MD2*%
X127577218Y-72512378D03*
%TO.N,/MD4*%
X127617655Y-73320470D03*
%TO.N,/MD5*%
X128375882Y-73575607D03*
%TO.N,/MD3*%
X126808832Y-72289697D03*
%TO.N,/MD0*%
X125964485Y-71405378D03*
%TO.N,GND*%
X125189352Y-71890000D03*
X123226000Y-92800000D03*
X149301146Y-77279226D03*
X151900000Y-72200000D03*
X150221126Y-72236085D03*
X154400000Y-77773520D03*
X154500000Y-68678500D03*
X154700000Y-66900500D03*
X147600000Y-66900500D03*
X147750000Y-68678500D03*
X120011010Y-69388924D03*
X125189352Y-74390000D03*
X128600000Y-67056000D03*
X121749999Y-66725946D03*
X120970024Y-71490000D03*
X160600000Y-79171501D03*
X175900000Y-82300000D03*
X159500000Y-72475499D03*
X174700000Y-72765500D03*
X174750000Y-79237000D03*
X121750000Y-79000000D03*
X118750000Y-78431635D03*
X175900000Y-84600000D03*
X156750000Y-71250000D03*
X161500000Y-72750000D03*
X119250000Y-73914000D03*
X165100000Y-73500000D03*
X155250000Y-85500000D03*
X161500000Y-79250000D03*
X155564000Y-93750000D03*
X163400000Y-78500000D03*
X162306000Y-89750000D03*
X163400000Y-73500000D03*
X165900000Y-87700000D03*
%TD*%
D18*
%TO.N,/LED_BLINK*%
X158150000Y-90650000D02*
X158150000Y-92750000D01*
X150000000Y-89500000D02*
X150750000Y-90250000D01*
X150750000Y-90250000D02*
X157750000Y-90250000D01*
X157750000Y-90250000D02*
X158150000Y-90650000D01*
%TO.N,/LED_LIVE*%
X162000000Y-92750000D02*
X163000000Y-92750000D01*
X161750000Y-92500000D02*
X162000000Y-92750000D01*
X161750000Y-90250000D02*
X161750000Y-92500000D01*
X161250000Y-89750000D02*
X161750000Y-90250000D01*
X151000000Y-89000000D02*
X151750000Y-89750000D01*
X151750000Y-89750000D02*
X161250000Y-89750000D01*
%TO.N,/SWLCK*%
X155500000Y-76500000D02*
X154250000Y-76500000D01*
X156000000Y-77000000D02*
X155500000Y-76500000D01*
X156000000Y-79500000D02*
X156000000Y-77000000D01*
X161600000Y-80000000D02*
X156500000Y-80000000D01*
X156500000Y-80000000D02*
X156000000Y-79500000D01*
X166600000Y-80200000D02*
X161800000Y-80200000D01*
X161800000Y-80200000D02*
X161600000Y-80000000D01*
%TO.N,/MUTE_SW*%
X140775735Y-83424265D02*
X150424265Y-83424265D01*
X140000000Y-84200000D02*
X140775735Y-83424265D01*
X140000000Y-84800000D02*
X140000000Y-84200000D01*
%TO.N,/SWDIO*%
X153422520Y-77172520D02*
X153000000Y-76750000D01*
X155250000Y-79500000D02*
X155250000Y-77750000D01*
X153000000Y-76750000D02*
X153000000Y-75900000D01*
X157250000Y-81500000D02*
X155250000Y-79500000D01*
X155250000Y-77750000D02*
X154672520Y-77172520D01*
X166000000Y-81500000D02*
X157250000Y-81500000D01*
X154672520Y-77172520D02*
X153422520Y-77172520D01*
X166250000Y-81750000D02*
X166000000Y-81500000D01*
%TO.N,/MD6*%
X128210408Y-79643308D02*
X128210408Y-74789592D01*
X129567100Y-81000000D02*
X128210408Y-79643308D01*
X132500000Y-81000000D02*
X129567100Y-81000000D01*
X128210408Y-74789592D02*
X128409407Y-74590593D01*
X133500000Y-83462000D02*
X133500000Y-82000000D01*
X133500000Y-82000000D02*
X132500000Y-81000000D01*
X135382000Y-85344000D02*
X133500000Y-83462000D01*
X128409407Y-74590593D02*
X128409407Y-74450623D01*
%TO.N,/MD5*%
X129670873Y-83442873D02*
X131572000Y-85344000D01*
X127809408Y-79809408D02*
X129670873Y-81670873D01*
X127809408Y-74142081D02*
X127809408Y-79809408D01*
X128375882Y-73575607D02*
X127809408Y-74142081D01*
X129670873Y-81670873D02*
X129670873Y-83442873D01*
%TO.N,/MD4*%
X126250000Y-77884200D02*
X126250000Y-84250000D01*
X127344000Y-85344000D02*
X127762000Y-85344000D01*
X127408408Y-76725792D02*
X126250000Y-77884200D01*
X127617655Y-73320470D02*
X127408408Y-73529717D01*
X127408408Y-73529717D02*
X127408408Y-76725792D01*
X126250000Y-84250000D02*
X127344000Y-85344000D01*
%TO.N,/MD1*%
X118000000Y-84250000D02*
X116906000Y-85344000D01*
X118000000Y-82000000D02*
X118000000Y-84250000D01*
X126205408Y-72044592D02*
X126205408Y-75986692D01*
X126205408Y-75986692D02*
X120942100Y-81250000D01*
X116906000Y-85344000D02*
X116332000Y-85344000D01*
X126760000Y-71490000D02*
X126205408Y-72044592D01*
X118750000Y-81250000D02*
X118000000Y-82000000D01*
%TO.N,/MD0*%
X114250000Y-83616000D02*
X112522000Y-85344000D01*
X125804408Y-75820592D02*
X120875000Y-80750000D01*
X120875000Y-80750000D02*
X115000000Y-80750000D01*
X115000000Y-80750000D02*
X114250000Y-81500000D01*
X125964485Y-71405378D02*
X125804408Y-71565455D01*
X125804408Y-71565455D02*
X125804408Y-75820592D01*
X114250000Y-81500000D02*
X114250000Y-83616000D01*
%TO.N,/MD3*%
X125349000Y-77651000D02*
X125349000Y-83947000D01*
X125349000Y-83947000D02*
X123952000Y-85344000D01*
X126606408Y-76393592D02*
X125349000Y-77651000D01*
X126606408Y-72492121D02*
X126606408Y-76393592D01*
X126808832Y-72289697D02*
X126606408Y-72492121D01*
%TO.N,/MD2*%
X127007408Y-76559692D02*
X127007408Y-73082188D01*
X125750000Y-85750000D02*
X125750000Y-77817100D01*
X125750000Y-77817100D02*
X127007408Y-76559692D01*
X124913284Y-86586716D02*
X125750000Y-85750000D01*
X127007408Y-73082188D02*
X127577218Y-72512378D01*
X121384716Y-86586716D02*
X124913284Y-86586716D01*
X120142000Y-85344000D02*
X121384716Y-86586716D01*
%TO.N,/MD1*%
X120942100Y-81250000D02*
X118750000Y-81250000D01*
D19*
%TO.N,+3.3V*%
X148163000Y-71413000D02*
X147837000Y-71413000D01*
X150750000Y-74000000D02*
X148163000Y-71413000D01*
X150750000Y-80750000D02*
X150750000Y-74000000D01*
%TD*%
%TA.AperFunction,Conductor*%
%TO.N,+3.3V*%
G36*
X144407197Y-79266612D02*
G01*
X144487515Y-79312984D01*
X144627525Y-79350500D01*
X144627528Y-79350500D01*
X144772472Y-79350500D01*
X144772475Y-79350500D01*
X144912485Y-79312984D01*
X144992802Y-79266612D01*
X145054802Y-79250000D01*
X147448638Y-79250000D01*
X147515677Y-79269685D01*
X147536319Y-79286319D01*
X148750000Y-80500000D01*
X155702956Y-80500000D01*
X155769995Y-80519685D01*
X155790637Y-80536319D01*
X157034788Y-81780470D01*
X157114712Y-81826614D01*
X157203856Y-81850500D01*
X157203858Y-81850500D01*
X158799138Y-81850500D01*
X158866177Y-81870185D01*
X158886819Y-81886819D01*
X160963681Y-83963681D01*
X160997166Y-84025004D01*
X161000000Y-84051362D01*
X161000000Y-85198638D01*
X160980315Y-85265677D01*
X160963681Y-85286319D01*
X160536319Y-85713681D01*
X160474996Y-85747166D01*
X160448638Y-85750000D01*
X157805225Y-85750000D01*
X157738186Y-85730315D01*
X157713057Y-85708952D01*
X155500000Y-83250000D01*
X154750000Y-83250000D01*
X151030907Y-83250000D01*
X150963868Y-83230315D01*
X150923520Y-83188000D01*
X150864776Y-83086253D01*
X150864771Y-83086247D01*
X150762282Y-82983758D01*
X150762276Y-82983753D01*
X150636753Y-82911282D01*
X150636754Y-82911282D01*
X150625271Y-82908205D01*
X150496740Y-82873765D01*
X150351790Y-82873765D01*
X150223258Y-82908205D01*
X150211776Y-82911282D01*
X150086253Y-82983753D01*
X150086247Y-82983758D01*
X150032560Y-83037446D01*
X149971237Y-83070931D01*
X149944879Y-83073765D01*
X140729591Y-83073765D01*
X140640447Y-83097651D01*
X140640444Y-83097652D01*
X140560526Y-83143792D01*
X140560521Y-83143796D01*
X140490637Y-83213681D01*
X140429314Y-83247166D01*
X140402956Y-83250000D01*
X138793497Y-83250000D01*
X138726458Y-83230315D01*
X138716035Y-83222828D01*
X137546538Y-82287230D01*
X137506486Y-82229979D01*
X137500000Y-82190402D01*
X137500000Y-80915067D01*
X137519685Y-80848028D01*
X137572489Y-80802273D01*
X137591894Y-80795296D01*
X137712485Y-80762984D01*
X137838015Y-80690509D01*
X137940509Y-80588015D01*
X138012984Y-80462485D01*
X138050500Y-80322475D01*
X138050500Y-80177525D01*
X138012984Y-80037515D01*
X137988096Y-79994409D01*
X137971624Y-79926509D01*
X137994476Y-79860482D01*
X138018016Y-79835586D01*
X138716035Y-79277172D01*
X138780681Y-79250664D01*
X138793497Y-79250000D01*
X144345198Y-79250000D01*
X144407197Y-79266612D01*
G37*
%TD.AperFunction*%
%TD*%
M02*
