%TF.GenerationSoftware,KiCad,Pcbnew,9.0.7*%
%TF.CreationDate,2026-02-15T15:39:24-05:00*%
%TF.ProjectId,BezelBud,42657a65-6c42-4756-942e-6b696361645f,rev?*%
%TF.SameCoordinates,Original*%
%TF.FileFunction,Soldermask,Bot*%
%TF.FilePolarity,Negative*%
%FSLAX46Y46*%
G04 Gerber Fmt 4.6, Leading zero omitted, Abs format (unit mm)*
G04 Created by KiCad (PCBNEW 9.0.7) date 2026-02-15 15:39:24*
%MOMM*%
%LPD*%
G01*
G04 APERTURE LIST*
%ADD10C,0.800000*%
%ADD11C,6.400000*%
%ADD12C,1.400000*%
%ADD13C,1.700000*%
%ADD14R,1.700000X1.700000*%
%ADD15C,0.650000*%
%ADD16O,1.000000X2.100000*%
%ADD17O,1.000000X1.800000*%
%ADD18C,0.850000*%
G04 APERTURE END LIST*
D10*
%TO.C,H4*%
X169600000Y-93200000D03*
X170302944Y-91502944D03*
X170302944Y-94897056D03*
X172000000Y-90800000D03*
D11*
X172000000Y-93200000D03*
D10*
X172000000Y-95600000D03*
X173697056Y-91502944D03*
X173697056Y-94897056D03*
X174400000Y-93200000D03*
%TD*%
%TO.C,H3*%
X110102944Y-93197056D03*
X110805888Y-91500000D03*
X110805888Y-94894112D03*
X112502944Y-90797056D03*
D11*
X112502944Y-93197056D03*
D10*
X112502944Y-95597056D03*
X114200000Y-91500000D03*
X114200000Y-94894112D03*
X114902944Y-93197056D03*
%TD*%
%TO.C,H2*%
X169600000Y-64000000D03*
X170302944Y-62302944D03*
X170302944Y-65697056D03*
X172000000Y-61600000D03*
D11*
X172000000Y-64000000D03*
D10*
X172000000Y-66400000D03*
X173697056Y-62302944D03*
X173697056Y-65697056D03*
X174400000Y-64000000D03*
%TD*%
%TO.C,H1*%
X110100000Y-64100000D03*
X110802944Y-62402944D03*
X110802944Y-65797056D03*
X112500000Y-61700000D03*
D11*
X112500000Y-64100000D03*
D10*
X112500000Y-66500000D03*
X114197056Y-62402944D03*
X114197056Y-65797056D03*
X114900000Y-64100000D03*
%TD*%
D12*
%TO.C,MICR1*%
X133986663Y-63589979D03*
X132086663Y-63589979D03*
%TD*%
%TO.C,MICL1*%
X136144000Y-63589979D03*
X138044000Y-63589979D03*
%TD*%
D13*
%TO.C,SW9*%
X135382000Y-87884000D03*
X135382000Y-85344000D03*
D14*
X135382000Y-82804000D03*
%TD*%
D13*
%TO.C,SW8*%
X127762000Y-87884000D03*
X127762000Y-85344000D03*
D14*
X127762000Y-82804000D03*
%TD*%
D13*
%TO.C,SW5*%
X131572000Y-87884000D03*
X131572000Y-85344000D03*
D14*
X131572000Y-82804000D03*
%TD*%
D13*
%TO.C,SW4*%
X120142000Y-87884000D03*
X120142000Y-85344000D03*
D14*
X120142000Y-82804000D03*
%TD*%
D13*
%TO.C,SW6*%
X112522000Y-87884000D03*
X112522000Y-85344000D03*
D14*
X112522000Y-82804000D03*
%TD*%
D13*
%TO.C,SW3*%
X116332000Y-87884000D03*
X116332000Y-85344000D03*
D14*
X116332000Y-82804000D03*
%TD*%
D13*
%TO.C,SW7*%
X123952000Y-87884000D03*
X123952000Y-85344000D03*
D14*
X123952000Y-82804000D03*
%TD*%
D15*
%TO.C,J1*%
X139856000Y-91570000D03*
X145636000Y-91570000D03*
D16*
X138426000Y-91050000D03*
D17*
X138426000Y-95250000D03*
D16*
X147066000Y-91050000D03*
D17*
X147066000Y-95250000D03*
%TD*%
D18*
%TO.C,SW1*%
X123976000Y-96000000D03*
X126976000Y-96000000D03*
%TD*%
D14*
%TO.C,J2*%
X168402000Y-74168000D03*
D13*
X168402000Y-76708000D03*
X168402000Y-79248000D03*
X168402000Y-81788000D03*
X168402000Y-84328000D03*
%TD*%
D14*
%TO.C,SW2*%
X147008810Y-84895043D03*
D13*
X149548810Y-84895043D03*
X152088810Y-84895043D03*
%TD*%
M02*
